<svg width="262" height="220" viewBox="0 0 262 220" fill="none" xmlns="http://www.w3.org/2000/svg">
<g clip-path="url(#clip0_2694_373)">
<path d="M19.4769 200.676C19.6573 200.45 19.8626 200.244 20.0889 200.064C20.3321 199.927 20.5334 199.727 20.671 199.484C20.8085 199.241 20.8771 198.966 20.8692 198.687C20.8692 193.944 20.8692 189.201 20.8692 184.458C20.8896 184.298 20.8746 184.136 20.8254 183.983C20.7763 183.829 20.6941 183.689 20.5847 183.57C20.4753 183.452 20.3414 183.359 20.1923 183.299C20.0432 183.238 19.8825 183.211 19.7217 183.219C19.4463 183.219 19.1709 183.219 18.8496 183.111V182.255H24.3576C26.2242 182.255 28.1061 182.163 29.988 182.255C34.578 182.454 36.9343 184.672 37.4239 189.201C37.6746 190.615 37.6256 192.066 37.2804 193.46C36.9351 194.855 36.3012 196.161 35.4195 197.295C33.6987 199.335 31.2512 200.624 28.5957 200.89C28.173 200.921 27.7485 200.921 27.3258 200.89H19.6758L19.4769 200.676ZM24.3423 191.419V197.142C24.3423 199.62 24.3423 199.62 26.8362 199.544C30.2787 199.437 32.4207 198.014 33.2776 195.153C33.9756 192.829 34.0337 190.361 33.4458 188.008C33.2748 187.12 32.874 186.292 32.2834 185.608C31.6928 184.923 30.933 184.405 30.0798 184.106C28.3995 183.554 26.6231 183.356 24.8625 183.525C24.3117 183.525 24.3423 183.892 24.3423 184.274V191.419Z" fill="white"/>
<path d="M124.297 200.691C124.496 200.476 124.649 200.186 124.879 200.063C125.129 199.932 125.335 199.73 125.471 199.482C125.607 199.235 125.667 198.952 125.644 198.671C125.644 193.959 125.644 189.246 125.644 184.534C125.644 183.539 125.399 183.325 124.389 183.203L123.624 183.111V182.285C123.782 182.276 123.94 182.276 124.098 182.285C127.373 182.285 130.662 182.285 133.936 182.285C135.141 182.299 136.339 182.469 137.501 182.789C138.573 183.052 139.549 183.61 140.32 184.4C141.091 185.19 141.625 186.179 141.862 187.257C142.639 189.864 142.51 192.658 141.494 195.183C140.819 196.807 139.694 198.204 138.253 199.212C136.811 200.22 135.112 200.797 133.355 200.874C130.433 201.134 127.48 200.874 124.527 200.874L124.297 200.691ZM129.117 191.511C129.117 193.836 129.117 196.101 129.117 198.487C129.117 199.298 129.392 199.558 130.111 199.528C131.257 199.518 132.401 199.446 133.538 199.314C134.534 199.177 135.47 198.763 136.241 198.119C137.012 197.475 137.587 196.627 137.899 195.672C138.8 193.142 138.896 190.395 138.174 187.808C137.967 186.824 137.467 185.925 136.741 185.229C136.015 184.533 135.096 184.072 134.105 183.906C132.75 183.709 131.387 183.582 130.019 183.524C129.362 183.524 129.101 183.723 129.117 184.442C129.147 186.768 129.117 189.124 129.117 191.48V191.511Z" fill="white"/>
<path d="M165.883 191.74C166.003 190.49 166.203 189.248 166.48 188.022C166.902 186.341 167.852 184.84 169.191 183.739C170.529 182.637 172.185 181.994 173.915 181.902C175.366 181.751 176.832 181.823 178.261 182.116C179.745 182.42 181.102 183.168 182.152 184.261C183.201 185.354 183.893 186.741 184.136 188.236C184.625 190.35 184.625 192.548 184.136 194.662C183.766 196.41 182.834 197.988 181.483 199.156C180.132 200.325 178.436 201.02 176.654 201.134C175.093 201.283 173.518 201.185 171.988 200.844C170.309 200.424 168.819 199.455 167.754 198.091C166.69 196.727 166.112 195.046 166.112 193.316C166.112 192.781 166.112 192.245 166.112 191.71L165.883 191.74ZM180.754 191.878C180.816 189.715 180.326 187.572 179.332 185.651C178.968 184.897 178.388 184.269 177.666 183.847C176.944 183.424 176.112 183.227 175.277 183.279C174.403 183.185 173.52 183.355 172.743 183.767C171.966 184.178 171.33 184.813 170.917 185.59C170.002 187.496 169.556 189.593 169.617 191.706C169.679 193.82 170.245 195.888 171.268 197.738C171.657 198.48 172.266 199.084 173.011 199.467C173.755 199.85 174.6 199.994 175.43 199.88C176.347 199.907 177.25 199.66 178.025 199.169C178.799 198.678 179.409 197.966 179.775 197.126C180.479 195.467 180.833 193.68 180.816 191.878H180.754Z" fill="white"/>
<path d="M89.2296 201.196C88.6044 201.268 87.9714 201.163 87.4031 200.893C86.8349 200.622 86.3544 200.197 86.0166 199.666C82.9566 195.519 79.7895 191.434 76.6529 187.319L75.9032 186.355C75.9032 186.722 75.8267 186.936 75.8267 187.135C75.8267 190.705 75.8267 194.275 75.8267 197.845C75.8267 198.075 75.8267 198.304 75.8267 198.518C75.9032 199.666 76.0868 199.849 77.2496 199.941L77.8616 200.033V200.874H72.3689C72.0782 200.171 72.3689 199.926 73.0574 199.91C74.0825 199.91 74.3579 199.604 74.3579 198.579C74.3579 193.989 74.3579 189.262 74.3579 184.595C74.3579 183.555 74.0978 183.325 73.0727 183.203L72.3077 183.111V182.224C73.8377 182.224 75.3677 182.224 76.8977 182.224C77.1425 182.224 77.4485 182.514 77.6321 182.759C80.8655 186.951 84.0836 191.164 87.2865 195.397L87.5772 195.718C87.6396 195.53 87.6807 195.335 87.6996 195.137C87.6996 191.909 87.6996 188.68 87.6996 185.452C87.6996 183.432 87.6231 183.432 85.6647 183.05V182.239H91.2186V182.958C91.1572 183.011 91.0905 183.057 91.0197 183.096C89.1531 183.341 89.0918 183.386 89.0918 185.299C89.0918 190.379 89.0918 195.458 89.0918 200.599L89.2296 201.196Z" fill="white"/>
<path d="M239.675 194.387V193.408H246.82C246.958 193.867 246.927 194.173 246.392 194.403C246.243 194.51 246.122 194.65 246.037 194.812C245.952 194.974 245.906 195.153 245.902 195.336C245.902 196.606 245.902 197.876 245.902 199.13C245.891 199.27 245.849 199.405 245.781 199.526C245.712 199.648 245.618 199.753 245.504 199.834C242.64 201.165 239.441 201.602 236.324 201.089C234.216 200.772 232.294 199.704 230.911 198.082C229.527 196.46 228.777 194.392 228.797 192.261C228.617 190.435 228.901 188.593 229.623 186.906C230.308 185.529 231.335 184.351 232.604 183.484C233.873 182.616 235.344 182.087 236.875 181.948C239.524 181.544 242.233 181.806 244.755 182.713C245.504 182.974 245.841 183.28 245.627 184.244C245.413 185.207 245.321 186.462 245.168 187.594H244.296C244.272 187.156 244.272 186.717 244.296 186.278C244.343 185.874 244.255 185.464 244.044 185.115C243.834 184.766 243.513 184.497 243.133 184.351C242.109 183.783 240.976 183.442 239.81 183.349C238.643 183.257 237.47 183.416 236.37 183.815C235.481 184.185 234.698 184.77 234.092 185.518C233.485 186.266 233.075 187.153 232.897 188.099C232.468 189.639 232.367 191.252 232.601 192.834C232.836 194.416 233.401 195.93 234.259 197.279C235.111 198.515 236.381 199.4 237.836 199.771C239.29 200.142 240.829 199.974 242.169 199.299C242.27 199.222 242.352 199.122 242.408 199.008C242.464 198.894 242.492 198.768 242.49 198.641C242.49 197.646 242.49 196.667 242.49 195.688C242.513 195.548 242.504 195.405 242.465 195.268C242.426 195.132 242.357 195.006 242.263 194.899C242.17 194.792 242.054 194.708 241.924 194.651C241.794 194.594 241.653 194.567 241.511 194.571C240.853 194.464 240.302 194.449 239.675 194.387Z" fill="white"/>
<path d="M253.919 191.832C253.919 194.311 253.919 196.575 253.919 198.855C253.949 198.971 254.009 199.077 254.092 199.163C254.175 199.249 254.279 199.311 254.394 199.345C256.123 199.345 257.867 199.345 259.596 199.161C259.856 199.161 260.177 198.733 260.315 198.427C260.499 197.984 260.608 197.513 260.636 197.034C260.713 196.392 261.034 196.254 261.677 196.453C261.6 197.769 261.554 199.085 261.432 200.385C261.432 200.584 260.988 200.859 260.743 200.875C258.984 200.875 257.209 200.875 255.449 200.875H248.916C249.238 200.462 249.36 200.156 249.574 200.049C249.875 199.888 250.118 199.639 250.272 199.335C250.425 199.031 250.481 198.687 250.431 198.35C250.431 193.76 250.431 189.308 250.431 184.794C250.431 183.433 250.263 183.264 248.901 183.127H248.381V182.239H256.459C257.897 182.239 259.32 182.239 260.743 182.239C260.973 182.239 261.386 182.576 261.386 182.729C261.386 183.876 261.218 185.024 261.111 186.171H260.284C260.284 185.835 260.284 185.529 260.193 185.223C260.07 183.922 260.04 183.815 258.77 183.693C257.24 183.693 255.602 183.693 253.965 183.693V190.41C255.388 190.41 256.811 190.41 258.219 190.41C258.402 190.41 258.662 190.027 258.739 189.767C258.833 189.297 258.894 188.822 258.923 188.344H259.764V194.112H258.953C258.867 193.713 258.805 193.31 258.77 192.903C258.776 192.754 258.752 192.606 258.698 192.466C258.644 192.327 258.562 192.2 258.458 192.094C258.353 191.988 258.227 191.904 258.089 191.849C257.95 191.793 257.802 191.767 257.653 191.771C256.444 191.802 255.251 191.832 253.919 191.832Z" fill="white"/>
<path d="M18.2686 199.941V200.874H10.6186V200.017L11.4907 199.926C12.3169 199.926 12.6229 199.528 12.3934 198.732C12.0721 197.646 11.6743 196.606 11.2612 195.55C11.1967 195.444 11.1073 195.355 11.0006 195.291C10.894 195.227 10.7734 195.19 10.6492 195.183C8.88972 195.183 7.11488 195.183 5.35538 195.183C5.21768 195.197 5.08558 195.245 4.97082 195.322C4.85606 195.4 4.7622 195.504 4.69749 195.626C4.33028 196.544 4.02429 197.478 3.74889 198.411C3.47349 199.344 3.74884 199.941 4.85045 199.941C5.44715 199.941 5.76849 200.14 5.55428 200.859H0.0615234V199.987C1.59153 200.155 1.95873 199.008 2.35653 197.952C4.23334 192.852 6.11013 187.752 7.98694 182.652C8.13994 182.193 8.3389 182.025 8.8132 182.055C9.28751 182.086 9.91478 181.933 10.2208 182.728C12.2098 187.946 14.26 193.133 16.2643 198.335C16.5703 199.268 16.9987 200.125 18.2686 199.941ZM5.43186 193.622H10.5727L8.0482 186.859H7.92577L5.43186 193.622Z" fill="white"/>
<path d="M59.1044 200.033V200.875H53.627C53.4434 200.263 53.5352 199.941 54.239 199.895C54.9428 199.85 55.3253 199.176 55.5701 198.549C56.3657 196.514 57.1001 194.479 57.8957 192.429C59.0891 189.17 60.2978 185.896 61.4453 182.622C61.4669 182.521 61.5084 182.427 61.5674 182.343C61.6264 182.259 61.7017 182.188 61.7888 182.133C61.8758 182.079 61.9729 182.043 62.0742 182.027C62.1756 182.011 62.2791 182.015 62.3787 182.04C62.8683 182.04 63.3732 181.872 63.6486 182.622C65.6376 187.854 67.7031 193.072 69.7686 198.304C70.1358 199.253 70.5641 200.064 71.834 199.941V200.875H64.184C63.9545 200.247 64.0922 199.941 64.8266 199.926C65.8364 199.926 66.1118 199.498 65.8058 198.534C65.4998 197.57 65.1632 196.621 64.7807 195.688C64.7144 195.555 64.6174 195.44 64.4976 195.352C64.3779 195.264 64.2389 195.206 64.0922 195.183C62.3174 195.183 60.5579 195.183 58.7831 195.183C58.6478 195.205 58.5195 195.258 58.408 195.337C58.2965 195.417 58.2049 195.521 58.1405 195.642C57.8039 196.484 57.5438 197.34 57.2684 198.182C56.8706 199.467 57.1613 199.865 58.4924 199.957L59.1044 200.033ZM64.1381 193.653L61.583 186.86H61.4759L59.028 193.653H64.1381Z" fill="white"/>
<path d="M109.334 183.096V182.285H122.416C122.308 183.524 122.232 184.672 122.079 185.804C122.079 186.003 121.666 186.156 121.314 186.416C121.215 186.005 121.158 185.584 121.146 185.161C121.222 184.182 120.748 183.785 119.83 183.769C118.3 183.769 116.846 183.769 115.362 183.769C115.194 183.769 114.888 184.136 114.873 184.335C114.873 186.187 114.873 188.038 114.873 189.889C114.873 190.318 115.041 190.501 115.469 190.486H118.744C119.463 190.486 119.769 190.195 119.784 189.491C119.804 189.112 119.845 188.734 119.906 188.359H120.778V194.081C120.059 194.357 119.86 194.081 119.784 193.408C119.6 191.97 119.371 191.786 117.902 191.786C117.122 191.786 116.372 191.786 115.546 191.863L114.873 191.97V194.418C114.873 195.78 114.873 197.157 114.873 198.534C114.873 199.085 114.995 199.391 115.607 199.375L120.319 199.222C120.458 199.235 120.597 199.219 120.728 199.175C120.86 199.13 120.98 199.059 121.083 198.966C121.185 198.872 121.267 198.758 121.322 198.631C121.378 198.504 121.406 198.366 121.406 198.228C121.406 197.799 121.589 197.402 121.651 196.988C121.758 196.346 122.094 196.208 122.706 196.468C122.63 197.708 122.538 198.962 122.477 200.217C122.477 200.737 122.232 200.89 121.742 200.89H116.617H109.931C110.252 200.477 110.359 200.201 110.573 200.094C110.872 199.934 111.117 199.689 111.275 199.389C111.433 199.089 111.498 198.748 111.461 198.411C111.461 194.005 111.461 189.599 111.461 185.192C111.415 183.417 111.384 183.417 109.334 183.096Z" fill="white"/>
<path d="M214.262 183.08V182.254H227.359L227.022 186.186H226.211C226.127 185.716 226.07 185.24 226.043 184.763C226.062 184.644 226.053 184.521 226.018 184.405C225.983 184.289 225.921 184.183 225.839 184.095C225.756 184.006 225.654 183.938 225.541 183.894C225.428 183.851 225.307 183.834 225.186 183.845C223.564 183.845 221.942 183.753 220.321 183.769C220.152 183.769 219.831 184.136 219.831 184.335C219.831 186.186 219.831 188.037 219.831 189.889C219.831 190.317 219.999 190.501 220.428 190.485H223.656C224.36 190.485 224.681 190.195 224.666 189.475C224.692 189.101 224.738 188.728 224.803 188.359H225.63V194.157C224.956 194.402 224.727 194.157 224.666 193.484C224.528 192.076 224.283 191.862 222.891 191.847H219.831V194.723C219.831 196.055 219.831 197.37 219.831 198.686C219.831 199.16 219.969 199.436 220.489 199.421C222.111 199.421 223.732 199.421 225.354 199.283C225.607 199.291 225.854 199.2 226.04 199.028C226.226 198.856 226.337 198.618 226.349 198.365C226.441 197.722 226.609 197.11 226.747 196.468H227.68C227.573 197.845 227.496 199.191 227.359 200.522C227.359 200.675 226.93 200.905 226.701 200.92C225.018 200.92 223.335 200.92 221.652 200.92H214.904C215.195 200.507 215.302 200.201 215.501 200.094C215.792 199.964 216.035 199.747 216.197 199.473C216.359 199.199 216.431 198.881 216.404 198.564C216.404 193.974 216.404 189.521 216.404 185.008C216.343 183.432 216.281 183.432 214.262 183.08Z" fill="white"/>
<path d="M38.2344 183.187V182.27H46.0527V183.065L45.5172 183.172C44.1402 183.279 43.9872 183.509 44.385 184.779C45.7314 188.558 47.1391 192.322 48.5161 196.085C48.5161 196.085 48.6231 196.193 48.7302 196.33C48.8985 195.917 49.0362 195.55 49.1586 195.198C50.2806 192.199 51.3822 189.2 52.4634 186.202C52.5552 185.957 52.6318 185.712 52.7083 185.483C53.3203 183.555 53.2591 183.448 51.2701 183.142L51.0099 183.05V182.27H56.6251V183.142C55.2022 183.019 54.8502 184.014 54.483 185.024C52.5705 190.118 50.6274 195.198 48.7455 200.324C48.7207 200.43 48.6744 200.531 48.6095 200.619C48.5447 200.708 48.4626 200.782 48.3682 200.838C48.2738 200.894 48.1692 200.93 48.0604 200.944C47.9517 200.958 47.8413 200.95 47.7357 200.92C47.2308 200.92 46.68 201.119 46.3893 200.339C44.5533 195.397 42.6561 190.47 40.7895 185.544L40.6059 185.085C40.2846 183.968 39.7797 182.973 38.2344 183.187Z" fill="white"/>
<path d="M108.63 198.472C108.324 198.992 108.141 199.666 107.682 200.002C103.566 202.94 95.9465 201.165 93.6362 196.697C92.8495 195.213 92.4054 193.571 92.3366 191.892C92.2678 190.214 92.5759 188.541 93.2384 186.997C93.7928 185.745 94.6489 184.649 95.7302 183.808C96.8115 182.967 98.0843 182.407 99.4349 182.178C102.232 181.467 105.185 181.682 107.85 182.79C108.447 183.019 108.676 183.31 108.538 183.983C108.324 185.131 108.202 186.309 108.049 187.471C107.376 187.732 107.131 187.471 107.1 186.829C107.162 186.05 106.924 185.278 106.435 184.669C105.946 184.06 105.242 183.662 104.469 183.555C103.67 183.279 102.823 183.171 101.981 183.238C101.138 183.306 100.319 183.547 99.5747 183.946C98.8301 184.346 98.1765 184.895 97.6547 185.56C97.133 186.224 96.7545 186.99 96.5432 187.808C95.7522 190.329 95.9211 193.054 97.0175 195.458C98.6699 199.084 102.434 200.477 106.458 199.023C107.1 198.778 107.728 198.488 108.355 198.212L108.63 198.472Z" fill="white"/>
<path d="M164.95 198.197C164.827 199.023 164.751 199.727 164.047 200.049C163.068 200.51 162.042 200.864 160.987 201.104C159.08 201.483 157.109 201.383 155.25 200.814C153.438 200.292 151.843 199.2 150.699 197.701C149.556 196.203 148.925 194.375 148.9 192.49C148.844 191.47 148.869 190.447 148.977 189.43C149.604 184.519 153.689 182.453 157.055 181.964C159.484 181.59 161.969 181.881 164.246 182.805C164.843 183.035 165.133 183.326 164.98 184.045C164.751 185.192 164.644 186.37 164.475 187.533C163.756 187.778 163.512 187.533 163.557 186.814C163.695 184.978 163.313 184.55 161.247 183.754C160.458 183.404 159.602 183.229 158.738 183.242C157.875 183.254 157.025 183.453 156.245 183.825C155.466 184.197 154.777 184.734 154.225 185.398C153.672 186.061 153.27 186.837 153.046 187.671C152.199 190.204 152.319 192.962 153.383 195.413C154.989 199.176 158.891 200.661 162.976 199.115C163.557 198.825 164.139 198.595 164.95 198.197Z" fill="white"/>
<path d="M199.957 183.157C199.957 182.912 199.957 182.759 199.957 182.59C199.951 182.478 199.951 182.366 199.957 182.254H207.53V183.034C207.438 183.034 207.408 183.172 207.362 183.172C205.495 183.539 205.465 183.539 205.449 185.452C205.449 189.858 205.449 194.264 205.449 198.671C205.449 199.115 205.556 199.39 206.046 199.375L210.911 199.237C211.045 199.248 211.179 199.23 211.305 199.186C211.432 199.141 211.547 199.07 211.644 198.977C211.741 198.885 211.817 198.773 211.867 198.649C211.918 198.525 211.941 198.392 211.937 198.258C211.937 197.799 212.151 197.324 212.212 196.865C212.273 196.406 212.549 195.993 213.252 196.253C213.176 197.615 213.115 199.007 212.977 200.4C212.977 200.583 212.533 200.859 212.288 200.874C210.636 200.874 208.968 200.874 207.316 200.874H200.768L200.615 200.66C200.761 200.416 200.947 200.199 201.165 200.017C201.427 199.882 201.644 199.675 201.79 199.42C201.937 199.165 202.007 198.873 201.992 198.579V184.595C201.992 183.769 201.701 183.233 200.768 183.248C200.495 183.241 200.224 183.21 199.957 183.157Z" fill="white"/>
<path d="M185.62 183.157V182.27H193.27V183.126C191.312 183.585 191.266 183.585 191.235 185.666C191.235 189.996 191.235 194.311 191.235 198.641C191.235 199.191 191.419 199.406 191.97 199.375L196.667 199.253C196.806 199.261 196.946 199.241 197.078 199.193C197.209 199.145 197.33 199.071 197.431 198.975C197.533 198.879 197.614 198.763 197.67 198.634C197.725 198.506 197.753 198.367 197.753 198.227C197.753 197.768 197.967 197.294 198.013 196.835C198.059 196.376 198.396 196.009 199.084 196.254C198.977 197.646 198.916 199.069 198.748 200.492C198.748 200.645 198.273 200.874 198.013 200.89C196.101 200.89 194.188 200.89 192.291 200.89H186.293C186.584 200.507 186.706 200.216 186.905 200.109C187.207 199.952 187.455 199.707 187.616 199.407C187.777 199.107 187.844 198.765 187.808 198.426C187.808 193.943 187.808 189.445 187.808 184.962C187.808 183.432 187.808 183.432 186.278 183.233C186.018 183.295 185.865 183.203 185.62 183.157Z" fill="white"/>
<path d="M166.694 209.626C165.164 209.626 165.378 210.59 165.378 211.446C165.378 213.374 165.378 215.317 165.378 217.26C165.378 217.949 165.378 218.653 166.373 218.653C166.373 218.653 166.48 218.821 166.602 219.02H162.318C162.549 218.898 162.765 218.749 162.961 218.576C163.19 218.362 163.573 218.102 163.573 217.857C163.636 215.688 163.585 213.518 163.42 211.355L159.993 219.265H159.717L156.275 211.37H156.061V212.9C156.061 214.43 156.061 215.868 156.061 217.368C156.061 218.025 156.061 218.622 156.979 218.637C156.979 218.637 157.101 218.79 157.223 218.974H154.163C154.255 218.821 154.301 218.653 154.362 218.653C155.372 218.653 155.296 217.903 155.296 217.23C155.296 215.149 155.296 213.068 155.296 210.987C155.296 210.345 155.296 209.641 154.378 209.626C154.301 209.626 154.24 209.473 153.995 209.197C155.189 209.197 156.168 209.197 157.147 209.197C157.285 209.197 157.453 209.549 157.545 209.779C158.463 211.875 159.365 213.986 160.345 216.251C160.528 215.914 160.666 215.715 160.758 215.501C161.599 213.558 162.441 211.599 163.298 209.641C163.374 209.473 163.496 209.197 163.604 209.197C164.552 209.197 165.501 209.197 166.449 209.197L166.694 209.626Z" fill="white"/>
<path d="M225.967 216.419C226.992 214.063 227.925 211.982 228.797 209.855C228.861 209.657 228.997 209.49 229.179 209.388C229.36 209.286 229.574 209.256 229.776 209.305C230.526 209.305 231.306 209.305 232.041 209.305C232.041 209.519 232.041 209.565 232.041 209.565C230.74 209.794 230.955 210.804 230.939 211.691C230.939 213.543 230.939 215.394 230.939 217.261C230.939 217.964 230.863 218.791 231.918 218.791C231.918 218.791 231.995 218.791 232.01 218.913C232.025 219.035 232.01 219.02 232.01 219.142H228.078L228.002 218.989C228.178 218.908 228.347 218.81 228.507 218.699C228.721 218.53 229.073 218.316 229.073 218.117C229.073 215.945 229.073 213.772 228.935 211.538C227.793 214.139 226.655 216.751 225.523 219.372H225.248L221.79 211.447H221.591V215.516C221.591 216.052 221.591 216.587 221.591 217.123C221.591 217.658 221.484 218.653 222.601 218.745C222.601 218.745 222.601 218.882 222.708 219.035H219.74C219.831 218.882 219.893 218.683 219.954 218.683C220.856 218.683 220.887 218.071 220.887 217.414V211.783C220.887 210.253 220.887 210.253 219.709 209.427C219.893 209.35 220.015 209.243 220.137 209.243C220.473 209.281 220.812 209.281 221.147 209.243C222.677 208.876 223.167 209.672 223.626 210.911C224.268 212.716 225.186 214.43 225.967 216.419Z" fill="white"/>
<path d="M96.3449 213.987L99.558 219.097H97.4312C97.2823 219.046 97.1571 218.943 97.0793 218.806C96.146 217.276 95.228 215.67 94.2641 214.017C94.616 213.941 94.8761 213.91 95.1209 213.834C95.6313 213.658 96.0552 213.294 96.3056 212.816C96.556 212.338 96.6139 211.782 96.4673 211.263C96.4221 211.043 96.3331 210.833 96.2056 210.648C96.0781 210.462 95.9146 210.304 95.7249 210.183C95.5351 210.061 95.3229 209.979 95.1009 209.942C94.8789 209.904 94.6516 209.911 94.4324 209.963C94.2029 209.963 93.851 210.33 93.851 210.529C93.851 212.946 93.851 215.363 93.851 217.781C93.851 218.255 94.0193 218.577 94.5548 218.622C94.7078 218.622 94.8302 218.76 94.922 219.035H90.8369C91.0052 218.852 91.1123 218.638 91.2347 218.638C91.9232 218.638 92.0456 218.194 92.0456 217.628C92.0456 215.394 92.0456 213.145 92.0456 210.896C92.0456 210.039 91.6172 209.687 90.7451 209.565L90.9134 209.305C91.1429 209.305 91.3571 209.305 91.5713 209.305H95.534C97.064 209.305 97.9055 209.718 98.1962 210.605C98.3933 211.199 98.3686 211.844 98.1267 212.42C97.8847 212.997 97.442 213.466 96.8805 213.742L96.3449 213.987Z" fill="white"/>
<path d="M142.949 217.291C143.332 217.659 143.835 217.877 144.366 217.905C144.897 217.933 145.42 217.77 145.84 217.444C145.84 218.102 144.922 219.296 144.417 219.235C143.654 219.157 142.906 218.966 142.199 218.668C141.786 218.485 141.556 218.424 141.174 218.668C140.775 218.958 140.319 219.159 139.836 219.259C139.353 219.359 138.855 219.356 138.374 219.25C137.853 219.199 137.359 218.99 136.96 218.651C136.561 218.312 136.275 217.859 136.14 217.353C135.942 216.818 135.931 216.232 136.109 215.69C136.287 215.148 136.643 214.683 137.119 214.369C137.29 214.29 137.443 214.176 137.569 214.035C137.694 213.894 137.789 213.728 137.848 213.549C137.907 213.37 137.928 213.18 137.911 212.992C137.893 212.804 137.837 212.622 137.747 212.457C137.288 211.126 138.221 210.131 139.185 209.397C139.496 209.2 139.865 209.114 140.232 209.153C140.598 209.192 140.941 209.353 141.204 209.611C141.45 209.937 141.583 210.335 141.583 210.743C141.583 211.152 141.45 211.549 141.204 211.875C140.745 212.472 140.21 213.007 139.582 213.742L142.122 216.802C142.414 216.524 142.609 216.161 142.681 215.765C142.752 215.369 142.696 214.961 142.52 214.599C142.382 214.323 141.847 214.231 141.403 214.017L141.648 213.375H145.626L145.427 214.308H143.79L142.949 217.291ZM138.19 214.338C137.98 214.557 137.815 214.815 137.705 215.097C137.595 215.38 137.542 215.681 137.549 215.984C137.556 216.287 137.623 216.586 137.747 216.862C137.87 217.139 138.047 217.389 138.267 217.597C138.424 217.804 138.621 217.977 138.846 218.107C139.071 218.237 139.32 218.321 139.578 218.353C139.835 218.386 140.097 218.367 140.347 218.298C140.598 218.229 140.832 218.11 141.036 217.949L138.19 214.338ZM139.062 212.808C139.98 212.304 140.592 211.768 140.439 210.85C140.439 210.544 140.011 210.07 139.781 210.07C139.552 210.07 138.94 210.437 138.909 210.682C138.897 211.409 138.948 212.136 139.062 212.854V212.808Z" fill="white"/>
<path d="M10.3584 213.894C10.3584 217.98 7.55851 220.152 3.8559 219.204C3.0387 218.996 2.3058 218.54 1.75793 217.899C1.21006 217.258 0.87406 216.463 0.795887 215.623C0.490733 214.549 0.531929 213.406 0.913737 212.357C1.29555 211.308 1.99846 210.406 2.92252 209.779C3.72258 209.302 4.63357 209.042 5.56492 209.026C6.49627 209.01 7.41562 209.238 8.23169 209.687C8.94197 210.122 9.51718 210.745 9.89281 211.489C10.2684 212.232 10.4297 213.065 10.3584 213.894ZM8.56825 214.201C8.33718 213.166 8.05118 212.145 7.71145 211.14C7.5323 210.675 7.19948 210.285 6.76818 210.034C6.33688 209.784 5.833 209.688 5.33996 209.763C4.82825 209.761 4.3287 209.92 3.91155 210.216C3.49441 210.512 3.18062 210.932 3.01432 211.416C2.35987 213.2 2.39259 215.163 3.10612 216.924C3.25804 217.441 3.58192 217.892 4.02418 218.2C4.46643 218.509 5.00069 218.658 5.53887 218.622C6.12221 218.663 6.70048 218.49 7.16524 218.135C7.63001 217.78 7.94939 217.268 8.06341 216.694C8.27761 215.929 8.36935 215.149 8.56825 214.124V214.201Z" fill="white"/>
<path d="M178.353 209.305C178.963 209.366 179.578 209.366 180.189 209.305C181.03 209.121 181.229 209.718 181.596 210.192C183.126 212.242 184.733 214.277 186.385 216.434C186.44 216.285 186.481 216.132 186.507 215.975C186.507 214.292 186.507 212.609 186.507 210.926C186.507 210.268 186.37 209.764 185.574 209.718C185.574 209.718 185.436 209.58 185.268 209.381H188.328C188.328 209.534 188.328 209.626 188.328 209.641C187.364 209.764 187.227 210.376 187.242 211.171C187.242 213.833 187.242 216.496 187.242 219.204C186.952 219.255 186.654 219.222 186.382 219.108C186.111 218.994 185.878 218.804 185.712 218.561C184.182 216.496 182.652 214.445 181.122 212.441C180.913 212.132 180.635 211.876 180.311 211.691V212.64C180.311 214.262 180.311 215.884 180.311 217.521C180.311 218.148 180.311 218.729 181.198 218.729C181.275 218.729 181.351 218.882 181.535 219.097H178.475C178.628 218.928 178.704 218.729 178.796 218.729C179.531 218.729 179.668 218.24 179.668 217.643V210.835C179.668 210.223 179.515 209.779 178.812 209.748C178.704 209.748 178.613 209.595 178.521 209.519L178.353 209.305Z" fill="white"/>
<path d="M71.0228 216.205V210.651C71.0228 210.146 70.8851 209.779 70.3037 209.718C70.1507 209.718 70.013 209.565 69.9059 209.305H72.8894C72.7976 209.458 72.7364 209.642 72.6752 209.642C71.7725 209.642 71.696 210.299 71.696 210.988C71.696 213.528 71.696 216.052 71.696 218.638V219.281L71.4971 219.495C71.0016 219.27 70.5468 218.965 70.1507 218.592C68.4524 216.465 66.8306 214.278 65.1934 212.12L64.7345 211.569C64.6887 211.781 64.6581 211.996 64.6427 212.212C64.6427 213.941 64.6427 215.685 64.6427 217.429C64.6427 218.103 64.6426 218.76 65.6218 218.745C65.6218 218.745 65.729 218.898 65.8667 219.082H62.8066C62.9749 218.898 63.0668 218.715 63.1586 218.715C63.9695 218.715 64.0459 218.21 64.0459 217.582C64.0459 215.7 64.0459 213.818 64.0459 211.937C64.0459 210.315 64.046 210.315 62.9138 209.504C63.4459 209.275 64.034 209.21 64.6033 209.316C65.1726 209.422 65.6976 209.695 66.1115 210.101C67.6415 212.197 69.3092 214.277 70.9004 216.358L71.0228 216.205Z" fill="white"/>
<path d="M249.865 216.221V214.339C249.865 213.191 249.865 212.044 249.865 210.896C249.865 210.254 249.789 209.703 248.963 209.672C248.918 209.685 248.87 209.685 248.825 209.672C248.825 209.672 248.825 209.565 248.733 209.412H251.655L251.839 209.611C250.217 209.779 250.584 210.896 250.584 211.814C250.584 214.308 250.584 216.802 250.584 219.281C250.276 219.347 249.955 219.317 249.664 219.193C249.374 219.07 249.129 218.86 248.963 218.592C247.422 216.552 245.892 214.512 244.373 212.472L243.699 211.6C243.655 211.843 243.625 212.088 243.608 212.334C243.608 214.079 243.608 215.808 243.608 217.552C243.608 218.225 243.608 218.806 244.556 218.791C244.556 218.791 244.648 218.791 244.678 218.898C244.685 218.98 244.685 219.061 244.678 219.143H241.833L241.496 218.837C241.685 218.822 241.874 218.822 242.062 218.837C242.766 218.837 242.888 218.378 242.888 217.827C242.888 215.547 242.888 213.237 242.888 211.003C242.888 210.146 242.399 209.886 241.618 209.779L241.756 209.473C242.326 209.527 242.9 209.527 243.47 209.473C244.22 209.351 244.541 209.703 245 210.254C246.53 212.365 248.167 214.431 249.758 216.511L249.865 216.221Z" fill="white"/>
<path d="M36.7508 211.431C36.7508 213.772 36.7508 215.868 36.7508 217.964C36.7508 218.194 37.1179 218.424 37.3321 218.622C37.4842 218.713 37.6493 218.78 37.8217 218.821V219.036H34.7617C35.0218 218.821 35.1442 218.653 35.2666 218.653C35.8939 218.653 36.0623 218.255 36.0623 217.704C36.0623 215.379 36.0623 213.114 36.0623 210.712C36.0623 209.794 35.3737 209.794 34.8535 209.519V209.274C35.2248 209.313 35.5992 209.313 35.9705 209.274C37.2251 209.014 37.837 209.687 38.5103 210.636C39.9196 212.603 41.4527 214.478 43.1003 216.251V214.476C43.1003 213.329 43.1003 212.166 43.1003 211.018C43.1003 210.314 43.1003 209.702 42.1364 209.672C42.1082 209.667 42.0813 209.657 42.0575 209.641C42.0338 209.625 42.0137 209.604 41.9987 209.58C41.9987 209.58 41.9987 209.488 41.9987 209.335H44.9516C44.9647 209.416 44.9647 209.499 44.9516 209.58C43.9265 209.718 43.8346 210.422 43.8346 211.278C43.8346 213.91 43.8346 216.557 43.8346 219.234C43.5476 219.304 43.2462 219.282 42.9721 219.172C42.6979 219.063 42.4646 218.871 42.3046 218.622C40.7746 216.496 39.0917 214.384 37.4699 212.258L36.7508 211.431Z" fill="white"/>
<path d="M107.957 211.417C107.957 213.742 107.957 215.808 107.957 217.888C107.957 218.699 108.722 218.516 109.318 218.99H106.09C106.09 218.868 106.197 218.699 106.243 218.699C107.253 218.699 107.284 218.011 107.268 217.246C107.268 215.486 107.268 213.712 107.268 211.952C107.268 210.958 107.712 209.734 105.968 209.519C106.547 209.227 107.208 209.136 107.845 209.26C108.483 209.385 109.06 209.719 109.487 210.208C111.017 212.166 112.547 214.125 113.985 216.068C114.081 216.167 114.189 216.254 114.306 216.328C114.306 214.278 114.306 212.319 114.306 210.376C114.306 210.162 113.97 209.932 113.756 209.764C113.541 209.596 113.388 209.611 113.235 209.336H116.204C116.204 209.473 116.127 209.596 116.081 209.596C114.995 209.596 115.025 210.453 115.041 211.233C115.041 213.681 115.041 216.114 115.041 218.562C115.041 218.776 115.041 219.005 115.041 219.51C114.516 219.282 114.031 218.972 113.603 218.592C111.904 216.466 110.282 214.278 108.63 212.12C108.416 211.952 108.263 211.784 107.957 211.417Z" fill="white"/>
<path d="M54.5903 212.028C54.5033 211.851 54.4513 211.659 54.4373 211.462C54.4373 210.62 53.963 210.269 53.2898 210.024C52.7503 209.75 52.1489 209.622 51.5447 209.651C50.9406 209.68 50.3543 209.866 49.8436 210.19C49.3328 210.514 48.9151 210.965 48.6314 211.499C48.3478 212.033 48.2079 212.632 48.2255 213.237C48.086 214.472 48.326 215.721 48.9139 216.817C49.2576 217.538 49.855 218.107 50.5919 218.414C51.3287 218.722 52.1531 218.747 52.9073 218.485C53.3357 218.347 53.5652 218.133 53.5193 217.643C53.481 217.338 53.481 217.03 53.5193 216.725C53.5193 216.067 53.3356 215.715 52.6318 215.715C52.4329 215.715 52.2493 215.501 52.0657 215.394C52.2526 215.278 52.4606 215.2 52.6778 215.165C53.7392 215.129 54.8017 215.155 55.8602 215.241C54.9881 216.021 55.3553 216.985 55.3247 217.857C55.3521 218.061 55.3009 218.268 55.1816 218.436C55.0623 218.603 54.8837 218.719 54.6821 218.76C52.9314 219.505 50.9635 219.56 49.1741 218.913C48.1137 218.437 47.2509 217.608 46.7322 216.568C46.2135 215.528 46.0707 214.34 46.3282 213.206C46.4494 212.107 46.9634 211.088 47.7759 210.338C48.5883 209.587 49.6444 209.155 50.75 209.121C52.0558 209.131 53.3575 209.269 54.6362 209.534C54.8351 209.534 55.1564 209.871 55.1411 210.024C55.0879 210.707 54.996 211.386 54.8657 212.059L54.5903 212.028Z" fill="white"/>
<path d="M127.266 215.241C126.256 215.945 126.608 216.863 126.608 217.673C126.644 217.918 126.585 218.167 126.443 218.37C126.3 218.572 126.086 218.711 125.843 218.76C124.443 219.288 122.928 219.436 121.452 219.188C118.79 218.683 117.382 216.572 117.566 213.466C117.612 212.302 118.099 211.198 118.929 210.38C119.759 209.562 120.868 209.09 122.033 209.06C123.338 209.084 124.639 209.222 125.92 209.473C126.363 209.473 126.501 209.809 126.394 210.268C126.287 210.727 126.195 211.446 126.088 212.043H125.828C125.759 211.91 125.717 211.764 125.705 211.615C125.812 210.651 125.2 210.284 124.435 210.085C123.914 209.836 123.339 209.722 122.762 209.753C122.185 209.785 121.625 209.961 121.135 210.266C120.644 210.571 120.238 210.995 119.954 211.498C119.67 212.001 119.517 212.567 119.509 213.145C119.338 214.434 119.574 215.744 120.182 216.893C120.543 217.614 121.162 218.173 121.917 218.456C122.672 218.74 123.506 218.728 124.252 218.423C124.373 218.356 124.479 218.264 124.564 218.153C124.648 218.042 124.709 217.916 124.741 217.781C124.772 217.445 124.772 217.107 124.741 216.771C124.741 216.098 124.588 215.7 123.823 215.715C123.655 215.715 123.472 215.486 123.303 215.363C123.477 215.26 123.669 215.193 123.869 215.164C124.757 215.164 125.659 215.164 126.547 215.164C126.788 215.173 127.028 215.199 127.266 215.241Z" fill="white"/>
<path d="M208.663 212.029C208.663 211.86 208.494 211.677 208.525 211.524C208.647 210.621 208.035 210.284 207.347 209.994C206.829 209.73 206.254 209.602 205.674 209.621C205.093 209.639 204.527 209.805 204.028 210.101C203.529 210.397 203.113 210.815 202.818 211.315C202.524 211.815 202.36 212.382 202.344 212.962C202.134 214.278 202.36 215.626 202.986 216.802C203.341 217.529 203.96 218.092 204.717 218.376C205.474 218.66 206.311 218.645 207.056 218.332C207.296 218.196 207.472 217.971 207.546 217.705C207.576 217.4 207.576 217.092 207.546 216.787C207.546 216.068 207.439 215.563 206.566 215.609C206.398 215.609 206.23 215.425 206.138 215.135H210.131C208.999 215.884 209.366 216.833 209.366 217.674C209.397 217.919 209.331 218.166 209.183 218.364C209.034 218.561 208.815 218.692 208.571 218.73C207.066 219.303 205.424 219.409 203.858 219.036C203.059 218.857 202.327 218.456 201.745 217.879C201.163 217.303 200.756 216.574 200.569 215.777C199.467 211.845 201.716 208.907 205.801 208.984C206.771 209.048 207.734 209.197 208.678 209.428C208.877 209.428 209.198 209.718 209.198 209.856C209.198 210.56 209.014 211.264 208.907 211.967L208.663 212.029Z" fill="white"/>
<path d="M240.242 219.066H234.122C234.299 218.404 234.422 217.729 234.489 217.047C234.489 215.272 234.489 213.513 234.489 211.738C234.489 210.82 234.841 209.718 233.234 209.535L233.433 209.32H240.242L240.074 211.462C239.844 211.34 239.737 211.309 239.722 211.263C239.354 210.039 239.354 210.039 238.023 210.039H236.325V213.62C237.442 213.513 238.804 214.354 239.385 212.518V215.578C238.758 215.226 239.171 214.17 238.222 214.247C237.656 214.247 237.059 214.247 236.356 214.247C236.356 215.517 236.356 216.695 236.356 217.858C236.356 218.011 236.631 218.256 236.815 218.286C237.288 218.325 237.764 218.325 238.237 218.286C239.11 218.286 239.951 218.179 239.936 216.986C239.936 216.894 240.043 216.787 240.104 216.71C240.165 216.634 240.211 216.71 240.425 216.71L240.242 219.066Z" fill="white"/>
<path d="M89.4443 219.081H83.0948C83.8598 218.469 83.6761 217.643 83.6914 216.894V211.676C83.6914 210.146 83.6915 210.146 82.3604 209.351H89.4137L89.2301 211.477C89.0159 211.324 88.9088 211.294 88.8935 211.232C88.5263 210.039 88.5263 210.039 87.1799 210.039C85.4816 210.039 85.4816 210.039 85.4816 211.737V213.65C86.0981 213.611 86.7164 213.611 87.3329 213.65C88.2662 213.757 87.899 212.793 88.4498 212.38V215.44C88.0826 215.042 87.7919 214.491 87.3482 214.308C86.7501 214.214 86.1409 214.214 85.5428 214.308V218.485C86.5067 218.485 87.4706 218.485 88.4345 218.316C88.6181 218.316 88.8017 217.98 88.9241 217.766C89.0443 217.456 89.1465 217.139 89.2301 216.817H89.5514L89.4443 219.081Z" fill="white"/>
<path d="M29.5597 210.039V213.65C30.1813 213.611 30.8047 213.611 31.4263 213.65C32.329 213.757 31.9006 212.717 32.5279 212.456V215.685C32.329 215.455 32.1607 215.333 32.1454 215.21C32.1454 214.4 31.6405 214.247 30.952 214.292H29.575V218.485C30.5542 218.485 31.5181 218.408 32.482 218.301C32.6656 218.301 32.8492 217.964 32.9563 217.735C33.0861 217.432 33.1935 217.12 33.2776 216.802H33.6142L33.4765 219.051H26.8822C27.8767 218.454 27.7237 217.643 27.739 216.878V211.661C27.739 210.131 27.739 210.131 26.3926 209.351H33.4612L33.2623 211.37H33.0481C33.0481 211.263 32.8492 211.156 32.8645 211.064C32.9716 210.116 32.329 210.024 31.6405 210.008L29.5597 210.039Z" fill="white"/>
<path d="M192.368 219.051H189.507C189.507 218.929 189.507 218.776 189.507 218.776C190.517 218.531 190.639 217.643 190.93 216.878C191.787 214.568 192.628 212.288 193.515 209.947C193.567 209.792 193.648 209.648 193.756 209.524C193.864 209.401 193.995 209.3 194.143 209.228C194.648 209.045 194.755 209.534 194.908 209.902C195.872 212.411 196.836 214.92 197.861 217.414C198.162 217.992 198.532 218.531 198.962 219.02H195.076C195.101 218.915 195.137 218.812 195.183 218.714C196.3 218.607 195.948 217.98 195.795 217.291C195.566 216.282 195.061 215.869 194.051 216.037C193.796 216.06 193.54 216.06 193.286 216.037C191.94 216.037 191.94 216.037 191.542 217.322C191.328 218.011 191.175 218.623 192.215 218.668C192.215 218.668 192.215 218.668 192.307 218.791C192.399 218.913 192.353 218.913 192.368 219.051ZM193.776 211.783H193.577L192.337 215.226H195.061L193.776 211.783Z" fill="white"/>
<path d="M171.942 209.304C172.538 209.136 172.86 209.304 173.074 209.932C173.915 212.196 174.772 214.522 175.69 216.664C176.042 217.521 176.042 218.653 177.404 218.836L177.235 219.051H173.242C173.349 218.928 173.41 218.714 173.502 218.714C174.313 218.714 174.206 218.179 174.038 217.643C173.548 216.113 173.548 216.113 171.957 216.113H171.636C169.937 216.113 169.937 216.113 169.524 217.72C169.402 218.27 169.432 218.683 170.136 218.714C170.259 218.714 170.381 218.852 170.457 219.081H167.627V218.928C168.545 218.546 168.774 217.674 169.065 216.847C170.034 214.297 170.993 211.783 171.942 209.304ZM173.211 215.317L171.789 211.569C171.299 212.961 170.886 214.093 170.457 215.317H173.211Z" fill="white"/>
<path d="M211.554 209.305H218.378L218.163 211.523C217.934 211.34 217.796 211.263 217.796 211.202C217.888 210.131 217.154 210.085 216.389 210.054C214.4 209.978 214.4 209.963 214.4 211.952C214.4 213.941 214.675 213.987 216.48 213.65C216.687 213.559 216.859 213.403 216.97 213.206C217.072 212.981 217.148 212.745 217.199 212.502H217.429V215.562C217.276 215.562 217.184 215.562 217.169 215.486C216.985 215.134 216.893 214.522 216.633 214.445C216 214.338 215.354 214.338 214.721 214.445C214.598 214.445 214.415 214.797 214.4 214.996C214.4 215.945 214.4 216.909 214.4 217.857C214.4 218.072 214.751 218.362 214.996 218.424C215.412 218.486 215.835 218.486 216.251 218.424C217.567 218.424 217.582 218.424 217.995 217.077C218.053 216.961 218.125 216.853 218.209 216.756H218.485L218.362 219.02H211.691C212.747 218.454 212.609 217.658 212.609 216.924C212.609 215.165 212.609 213.39 212.609 211.63C212.609 210.728 212.885 209.672 211.37 209.488L211.554 209.305Z" fill="white"/>
<path d="M80.1112 212.533V215.516C79.744 215.118 79.4381 214.552 78.9944 214.384C78.3917 214.283 77.7763 214.283 77.1736 214.384V218.484C78.1682 218.484 79.1626 218.393 80.1571 218.285C80.3254 218.285 80.4784 217.903 80.6008 217.673C80.7137 217.388 80.8108 217.097 80.8916 216.801H81.1057V219.05H74.4808C75.4141 218.484 75.3376 217.719 75.3376 216.985V211.752C75.3376 210.222 75.3376 210.222 74.083 209.335H81.0905L80.8916 211.355L80.6162 211.508C80.6162 211.385 80.4784 211.247 80.4937 211.14C80.5855 210.222 80.0194 210.1 79.3003 210.054C77.1124 209.901 77.1124 209.886 77.0971 212.074V213.466C78.7801 213.986 79.4992 213.726 80.1112 212.533Z" fill="white"/>
<path d="M11.6435 209.305H18.2991L18.1002 211.584C17.8554 211.248 17.7024 211.125 17.7024 211.018C17.7789 210.177 17.2433 210.039 16.6007 210.024H14.6117V213.589C15.8357 213.818 15.8357 213.818 17.381 212.609V215.669C16.9985 215.149 16.7538 214.568 16.356 214.4C15.7636 214.298 15.1582 214.298 14.5659 214.4C14.5659 215.67 14.5659 216.817 14.5659 217.964C14.5659 218.179 14.9483 218.408 15.1778 218.592C15.3651 218.703 15.5656 218.79 15.7745 218.852V219.051H11.7047L11.6282 218.898C11.7965 218.791 11.9495 218.622 12.1331 218.592C12.638 218.592 12.791 218.255 12.791 217.796C12.791 215.409 12.791 213.023 12.791 210.636C12.791 209.825 12.2556 209.702 11.5977 209.641L11.6435 209.305Z" fill="white"/>
<path d="M259.015 219.051H254.761C254.93 218.852 255.006 218.638 255.098 218.638C255.909 218.638 256.016 218.118 256.001 217.444C256.001 215.012 256.001 212.579 256.001 210.085H254.027C253.033 210.085 253.736 211.233 252.956 211.615L252.727 209.305H260.958L260.774 211.539H260.56C260.453 211.347 260.376 211.141 260.331 210.926C260.331 210.207 259.979 209.993 259.336 210.009H257.806V213.069C257.806 214.599 257.806 216.037 257.806 217.521C257.806 218.148 257.883 218.638 258.663 218.668C258.724 218.653 258.847 218.821 259.015 219.051Z" fill="white"/>
<path d="M61.7208 209.58C59.9613 209.748 60.4203 210.957 60.405 211.921C60.405 213.681 60.405 215.455 60.405 217.215C60.405 217.964 60.405 218.653 61.4301 218.745C61.4301 218.745 61.4301 218.867 61.6443 219.066H57.4981C57.6205 218.913 57.697 218.714 57.7888 218.699C58.5997 218.699 58.6303 218.163 58.6303 217.551C58.6303 215.389 58.6303 213.232 58.6303 211.079C58.6303 210.422 58.6302 209.81 57.7275 209.81C57.7275 209.81 57.5898 209.611 57.4521 209.396H61.4761L61.7208 209.58Z" fill="white"/>
<path d="M100.521 218.744C100.668 218.682 100.823 218.641 100.981 218.622C101.791 218.622 101.837 218.087 101.837 217.475C101.837 215.287 101.837 213.099 101.837 210.926C101.837 210.284 101.761 209.733 100.919 209.733C100.828 209.733 100.751 209.549 100.598 209.396C100.763 209.32 100.938 209.269 101.118 209.243H104.178C104.344 209.276 104.5 209.344 104.637 209.442C104.515 209.549 104.392 209.748 104.27 209.748C103.704 209.748 103.581 210.13 103.581 210.605V217.75C103.581 218.224 103.689 218.576 104.255 218.607C104.408 218.607 104.545 218.79 104.622 219.05H100.705L100.521 218.744Z" fill="white"/>
<path d="M189.017 137.853L176.961 134.793C174.941 134.288 172.891 133.86 170.841 133.263C170.207 133.04 169.667 132.609 169.311 132.039C163.629 122.278 157.989 112.501 152.389 102.709C148.212 95.4263 144.096 88.0976 139.935 80.7994C139.323 79.7284 138.634 78.688 137.976 77.6017L125.155 99.2819C122.171 95.564 119.31 92.045 116.526 88.4801C116.367 88.2239 116.27 87.934 116.243 87.6337C116.217 87.3335 116.261 87.0312 116.373 86.7512C123.513 74.5111 130.719 62.2711 137.991 50.031C138.095 49.9337 138.208 49.8465 138.328 49.7709L158.57 84.961C165.322 96.6604 172.09 108.36 178.873 120.059C188.381 107.145 192.887 91.2235 191.557 75.2422C190.226 59.261 183.149 44.3034 171.636 33.1397C139.506 2.11121 94.9524 10.5263 72.5072 37.3626C66.3617 44.4224 61.8077 52.7222 59.1545 61.6983C56.5013 70.6743 55.811 80.1163 57.1306 89.3827C59.6246 108.906 69.3707 124.007 84.9309 136.048L77.8622 147.63C75.965 146.1 74.0219 144.769 72.1706 143.27C65.8936 138.165 60.466 132.097 56.0903 125.292C52.6175 120.292 49.891 114.813 47.9966 109.028C46.8491 105.157 45.5026 101.378 44.5999 97.3999C43.9538 94.162 43.5143 90.8864 43.2841 87.5927C42.9509 84.765 42.8384 81.9157 42.9476 79.0705C43.1924 74.9395 43.835 70.8391 44.3093 66.7234C45.1092 60.8639 46.7316 55.1466 49.1287 49.7403C51.6199 43.4589 55.0112 37.5731 59.1962 32.2677C62.0597 28.6942 65.1247 25.2869 68.3762 22.0625C72.3463 18.1995 76.7516 14.8108 81.5037 11.9645C86.6742 8.76113 92.212 6.1926 97.9971 4.31442C102.435 2.90411 106.978 1.85016 111.584 1.16262C116.179 0.393887 120.833 0.0355006 125.491 0.0916413C131.025 0.171276 136.537 0.817215 141.939 2.01942C148.626 3.50746 155.105 5.80944 161.232 8.87386C166.945 11.7881 172.283 15.3844 177.129 19.5839C183.711 25.1904 189.311 31.8559 193.699 39.3057C196.382 44.2972 198.723 49.4652 200.706 54.774C201.77 57.5561 202.619 60.4154 203.246 63.3268C203.8 65.7134 204.178 68.1373 204.378 70.579C204.73 74.4958 205.098 78.4279 205.098 82.3447C205.059 88.3596 204.304 94.3484 202.848 100.185C201.05 107.713 198.142 114.932 194.219 121.605C192.245 124.909 189.905 128 187.61 131.121C186.722 132.315 186.08 133.279 187.258 134.686C187.933 135.69 188.521 136.75 189.017 137.853Z" fill="white"/>
<path d="M139.796 42.0136C133.883 39.5978 127.634 38.1015 121.268 37.5767C116.59 37.1647 111.876 37.5843 107.345 38.816C104.862 39.4664 102.543 40.6304 100.537 42.2327C98.5315 43.835 96.8842 45.8401 95.7016 48.1184C92.8157 53.5894 91.9904 59.9147 93.376 65.9429C94.5198 71.2042 96.5922 76.2194 99.4961 80.7534C102.556 85.9095 105.708 91.1115 109.227 96.0534C112.693 100.854 116.433 105.452 120.427 109.823C124.01 113.702 127.805 117.38 131.794 120.84C137.918 126.368 144.713 131.103 152.021 134.931C156.948 137.44 161.844 140.056 166.939 142.153C173.989 145.13 181.411 147.138 189.001 148.12C194.511 148.99 200.15 148.463 205.403 146.59C208.233 145.588 210.751 143.864 212.708 141.588C214.665 139.312 215.992 136.563 216.557 133.615C217.964 127.312 216.74 121.375 214.843 115.439C214.259 113.801 213.864 112.102 213.665 110.374C214.491 112.379 215.425 114.337 216.113 116.387C217.705 120.786 218.603 125.406 218.775 130.081C218.775 134.747 218.561 139.261 216.144 143.346C214.34 146.381 211.678 148.814 208.494 150.338C204.386 152.308 199.918 153.417 195.366 153.597C189.366 153.892 183.356 153.273 177.542 151.761C170.263 149.88 163.225 147.17 156.565 143.683C149.012 139.84 141.84 135.291 135.145 130.096C132.192 127.816 129.239 125.506 126.516 122.92C122.507 119.157 118.499 115.27 114.842 111.246C110.084 105.891 105.448 100.383 101.164 94.6458C95.538 87.3554 91.2866 79.1016 88.6177 70.2882C86.7006 64.2874 86.3114 57.9031 87.4855 51.7139C88.1017 48.7917 89.4039 46.058 91.2847 43.7382C93.1655 41.4185 95.571 39.5793 98.3027 38.3723C103.562 35.9333 109.347 34.8447 115.133 35.2051C122.396 35.4781 129.554 37.032 136.277 39.7952C139.705 41.1722 143.04 42.8552 146.406 44.3852C146.943 44.6079 147.42 44.9537 147.798 45.395L143.208 43.6814L139.796 42.0136Z" fill="white"/>
<path d="M139.796 42.014L143.162 43.544C142.506 43.6054 141.845 43.6054 141.189 43.544C136.323 42.6107 131.473 41.0043 126.593 40.8207C120.059 40.5759 113.649 41.8917 108.753 46.9407C105.968 50.0073 104.139 53.8198 103.489 57.9108C102.311 63.6483 103.581 69.1563 105.723 74.4348C107.404 78.7269 109.388 82.894 111.66 86.9044C113.898 90.6868 116.458 94.27 119.31 97.6145C123.242 102.296 127.358 106.794 131.672 111.155C138.219 117.646 145.465 123.393 153.276 128.291C160.208 132.868 167.7 136.534 175.568 139.2C180.311 140.694 185.19 141.719 190.134 142.26C194.272 142.761 198.467 142.47 202.496 141.403C205.848 140.719 208.903 139.005 211.235 136.5C213.566 133.996 215.057 130.827 215.501 127.434C215.807 125.659 215.884 123.839 216.083 121.789C217.322 129.27 216.174 135.91 210.727 141.204C207.408 144.201 203.225 146.071 198.778 146.544C192.885 147.427 186.879 147.219 181.061 145.932C173.263 144.239 165.77 141.36 158.845 137.395C152.832 133.967 146.88 130.403 141.128 126.532C137.676 124.101 134.431 121.389 131.427 118.422C126.332 113.572 121.13 108.784 116.556 103.474C112.315 98.4608 108.435 93.1537 104.943 87.5929C102.418 83.5408 100.263 79.2702 98.5016 74.8327C97.2614 71.5423 96.3641 68.1328 95.8241 64.6582C94.9025 59.9681 95.2349 55.1178 96.788 50.5974C97.6565 47.9239 99.1638 45.5024 101.179 43.5428C103.195 41.5833 105.658 40.1447 108.355 39.3518C113.113 37.9774 118.108 37.6229 123.012 38.3114C128.382 38.8473 133.66 40.0818 138.71 41.9835C139.068 42.055 139.435 42.0653 139.796 42.014Z" fill="white"/>
<path d="M81.5342 147.477C84.5942 148.272 87.6542 149.297 90.8366 149.833C96.0234 150.72 101.271 151.363 106.519 151.975C108.313 152.23 110.124 152.347 111.935 152.327C118.387 152.399 124.821 151.633 131.076 150.047C136.937 148.625 142.49 146.147 147.462 142.734C148.01 142.393 148.588 142.106 149.191 141.877L163.328 149.221C161.125 151.21 151.165 155.616 148.028 156.443C142.533 158.07 136.899 159.186 131.198 159.778C125.335 160.247 119.44 160.119 113.603 159.396C107.923 158.591 102.34 157.207 96.9413 155.265C91.4944 153.337 86.3166 150.719 81.5342 147.477Z" fill="white"/>
<path d="M105.953 105.417L115.332 115.622C112.624 120.365 109.977 125.032 107.269 129.668C103.979 135.313 100.598 140.929 97.3697 146.62C96.6659 147.859 96.1457 148.15 94.738 147.676C91.5097 146.651 88.1896 145.901 84.9001 145.014C84.4238 144.839 83.9588 144.634 83.5078 144.402C91.0048 131.397 98.4254 118.499 105.953 105.417Z" fill="white"/>
</g>
<defs>
<clipPath id="clip0_2694_373">
<rect width="261.707" height="219.51" fill="white"/>
</clipPath>
</defs>
</svg>
