<svg width="1996" height="2544" viewBox="0 0 1996 2544" fill="none" xmlns="http://www.w3.org/2000/svg">
<g clip-path="url(#clip0_2694_348)">
<path d="M57.6924 2542.6H49.4785V2430.43H57.6924V2542.6Z" fill="white"/>
<path d="M238.383 2430.63V2542.59H232.774C232.774 2542.59 232.772 2542.59 231.571 2541.39L158.656 2443.88C158.756 2445.41 158.756 2446.95 158.656 2448.49V2542.59H151.643V2430.43H157.252C157.572 2430.55 157.864 2430.74 158.106 2430.98C158.347 2431.23 158.535 2431.52 158.656 2431.84L231.372 2528.95C231.284 2527.41 231.284 2525.87 231.372 2524.34V2430.23L238.383 2430.63Z" fill="white"/>
<path d="M405.25 2437.46H365.185V2542.6H356.971V2437.26H316.907V2430.43H404.049L405.25 2437.46Z" fill="white"/>
<path d="M552.485 2536.17V2542.6H485.378V2430.43H552.485V2437.26H492.389V2482.4H541.469V2489.02H492.389V2535.77L552.485 2536.17Z" fill="white"/>
<path d="M715.346 2542.6H708.536C707.819 2542.83 707.049 2542.83 706.332 2542.6C705.594 2542.24 704.97 2541.68 704.53 2540.99L668.672 2495.44L667.268 2494.04H665.867H663.864H646.236V2542.6H638.223V2430.43H666.87C677.038 2429.67 687.173 2432.28 695.715 2437.86C698.945 2440.51 701.502 2443.9 703.173 2447.74C704.844 2451.57 705.582 2455.75 705.33 2459.93C705.433 2463.99 704.683 2468.02 703.127 2471.77C701.674 2475.27 699.489 2478.42 696.717 2481C693.804 2483.79 690.411 2486.03 686.701 2487.62C682.474 2489.37 678.024 2490.52 673.479 2491.03C674.751 2491.87 675.899 2492.88 676.886 2494.04L715.346 2542.6ZM665.466 2485.81C670.004 2485.87 674.527 2485.27 678.888 2484.01C682.549 2483.08 685.965 2481.37 688.904 2478.99C691.564 2476.83 693.688 2474.08 695.113 2470.96C696.546 2467.61 697.231 2463.98 697.118 2460.33C697.427 2456.98 696.891 2453.61 695.561 2450.53C694.231 2447.44 692.15 2444.74 689.506 2442.67C682.689 2438.39 674.702 2436.35 666.669 2436.85H646.637V2485.81H665.466Z" fill="white"/>
<path d="M881.614 2430.63V2542.59H876.005C876.005 2542.59 876.006 2542.59 874.804 2541.39L802.087 2443.88C802.087 2445.48 802.087 2446.89 802.087 2448.49V2542.59H794.876V2430.43H800.684C801.231 2430.75 801.656 2431.25 801.887 2431.84L874.603 2528.95C874.508 2527.41 874.508 2525.87 874.603 2524.34V2430.23L881.614 2430.63Z" fill="white"/>
<path d="M1060.9 2542.59H1054.69H1052.89C1052.42 2542.11 1052.02 2541.57 1051.69 2540.99L1038.67 2508.28H983.577L970.355 2540.99C970.447 2541.45 970.447 2541.93 970.355 2542.39C969.702 2542.6 969.005 2542.6 968.352 2542.39H962.144L1008.02 2430.23H1016.03L1060.9 2542.59ZM1036.06 2502.47L1013.22 2445.88C1013.22 2443.88 1011.82 2441.67 1011.02 2439.06C1011.02 2440.47 1011.02 2441.67 1011.02 2442.67L1009.82 2445.88L986.983 2502.47H1036.06Z" fill="white"/>
<path d="M1202.33 2437.46H1162.26V2542.6H1154.25V2437.26H1114.19V2430.43H1201.33L1202.33 2437.46Z" fill="white"/>
<path d="M1289.47 2542.6H1281.25V2430.43H1289.47V2542.6Z" fill="white"/>
<path d="M1483.98 2486.61C1484.07 2494.68 1482.71 2502.7 1479.97 2510.29C1477.66 2517 1473.97 2523.15 1469.15 2528.35C1464.34 2533.36 1458.54 2537.32 1452.13 2539.99C1445.27 2542.79 1437.9 2544.16 1430.49 2544C1423.08 2544.18 1415.71 2542.81 1408.86 2539.99C1402.44 2537.32 1396.65 2533.36 1391.83 2528.35C1387.08 2523.1 1383.4 2516.96 1381.01 2510.29C1375.67 2495.03 1375.67 2478.4 1381.01 2463.14C1383.4 2456.47 1387.08 2450.33 1391.83 2445.08C1396.65 2440.07 1402.44 2436.11 1408.86 2433.44C1415.71 2430.62 1423.08 2429.25 1430.49 2429.43C1437.9 2429.27 1445.27 2430.63 1452.13 2433.44C1458.54 2436.11 1464.34 2440.07 1469.15 2445.08C1473.97 2450.28 1477.66 2456.43 1479.97 2463.14C1482.68 2470.67 1484.04 2478.61 1483.98 2486.61ZM1475.57 2486.61C1475.59 2479.47 1474.51 2472.36 1472.36 2465.55C1470.38 2459.7 1467.25 2454.3 1463.15 2449.69C1459.15 2445.45 1454.3 2442.1 1448.92 2439.86C1443.07 2437.48 1436.81 2436.32 1430.49 2436.45C1424.25 2436.31 1418.04 2437.47 1412.26 2439.86C1406.79 2442.04 1401.87 2445.4 1397.84 2449.69C1393.74 2454.3 1390.6 2459.7 1388.63 2465.55C1384.35 2479.33 1384.35 2494.09 1388.63 2507.88C1390.6 2513.73 1393.74 2519.12 1397.84 2523.73C1401.87 2528.03 1406.79 2531.39 1412.26 2533.57C1418.04 2535.96 1424.25 2537.12 1430.49 2536.98C1436.81 2537.1 1443.07 2535.94 1448.92 2533.57C1454.3 2531.33 1459.15 2527.98 1463.15 2523.73C1467.25 2519.12 1470.38 2513.73 1472.36 2507.88C1474.54 2501.01 1475.62 2493.83 1475.57 2486.61Z" fill="white"/>
<path d="M1657.26 2430.63V2542.59H1651.65C1651.65 2542.59 1651.65 2542.59 1650.45 2541.39L1577.73 2443.88C1577.73 2445.48 1577.73 2446.89 1577.73 2448.49V2542.59H1569.92V2430.43H1575.73C1576.27 2430.75 1576.7 2431.25 1576.93 2431.84L1649.64 2528.95C1649.55 2527.41 1649.55 2525.87 1649.64 2524.34V2430.23L1657.26 2430.63Z" fill="white"/>
<path d="M1836.55 2542.59H1830.33H1828.53C1828.01 2542.16 1827.59 2541.61 1827.33 2540.99L1814.31 2508.28H1759.22L1746 2540.99C1746.09 2541.45 1746.09 2541.93 1746 2542.39C1745.35 2542.6 1744.65 2542.6 1743.99 2542.39H1737.79L1783.66 2430.23H1791.67L1836.55 2542.59ZM1811.7 2502.47L1788.87 2445.88L1786.66 2439.06C1786.66 2440.47 1786.66 2441.67 1786.66 2442.67L1785.46 2445.88L1762.63 2502.47H1811.7Z" fill="white"/>
<path d="M1977.37 2535.97V2542.6H1916.07V2430.43H1924.28V2535.77L1977.37 2535.97Z" fill="white"/>
<path d="M456.532 2176.41H187.7L136.618 2300.41H-0.401367L257.011 1721.55H389.225L647.637 2300.41H507.412L456.532 2176.41ZM414.463 2074.69L322.717 1852.97L231.171 2074.69H414.463Z" fill="white"/>
<path d="M708.536 1721.55H842.352V2300.41H708.536V1721.55Z" fill="white"/>
<path d="M1098.56 1830.7H913.664V1721.55H1417.27V1830.7H1232.38V2300.41H1098.56V1830.7Z" fill="white"/>
<path d="M1444.52 2010.88C1444.52 1836.52 1578.33 1711.52 1758.22 1711.52C1858.38 1711.52 1941.51 1748.04 1996 1814.05L1910.06 1894.31C1892.45 1872.85 1870.27 1855.62 1845.13 1843.88C1820 1832.14 1792.56 1826.2 1764.83 1826.49C1715.79 1826.49 1668.76 1846 1634.09 1880.73C1599.41 1915.46 1579.93 1962.57 1579.93 2011.69C1579.93 2060.8 1599.41 2107.91 1634.09 2142.64C1668.76 2177.37 1715.79 2196.88 1764.83 2196.88C1792.64 2197.2 1820.17 2191.2 1845.33 2179.31C1870.49 2167.42 1892.62 2149.97 1910.06 2128.26L1996 2208.52C1941.51 2275.54 1858.18 2311.85 1757.42 2311.85C1578.33 2310.25 1444.52 2185.45 1444.52 2010.88Z" fill="white"/>
<path d="M1245 0H750.803C682.705 -5.09193e-06 615.275 13.438 552.363 39.5465C489.451 65.655 432.29 103.922 384.146 152.163C336.003 200.403 297.82 257.671 271.779 320.695C245.737 383.72 232.346 451.265 232.372 519.474V1014.27C232.346 1082.48 245.737 1150.02 271.779 1213.05C297.82 1276.07 336.003 1333.34 384.146 1381.58C432.29 1429.82 489.451 1468.09 552.363 1494.2C615.275 1520.31 682.705 1533.74 750.803 1533.74H1245C1382.51 1533.69 1514.38 1478.94 1611.59 1381.52C1708.81 1284.11 1763.43 1152.01 1763.43 1014.27V519.474C1763.43 381.736 1708.81 249.636 1611.59 152.221C1514.38 54.8068 1382.51 0.0532014 1245 0ZM1218.55 309.197H1298.68C1315.35 309.089 1331.38 315.591 1343.28 327.282C1355.18 338.974 1361.97 354.905 1362.18 371.598V441.423C1362.26 449.713 1360.71 457.938 1357.61 465.625C1354.51 473.313 1349.92 480.311 1344.12 486.22C1338.31 492.129 1331.39 496.832 1323.77 500.06C1316.15 503.287 1307.96 504.975 1299.68 505.028H1219.56C1211.29 505.134 1203.08 503.601 1195.41 500.517C1187.73 497.434 1180.74 492.861 1174.84 487.061C1168.94 481.261 1164.24 474.349 1161.02 466.723C1157.79 459.097 1156.1 450.908 1156.05 442.627V372.802C1155.95 356.073 1162.46 339.985 1174.18 328.062C1185.9 316.14 1201.85 309.356 1218.55 309.197ZM564.306 377.617C564.198 360.923 570.69 344.865 582.362 332.948C594.034 321.031 609.939 314.224 626.605 314.012L1064.71 310.4C1072.98 310.321 1081.19 311.879 1088.87 314.984C1096.54 318.09 1103.53 322.682 1109.43 328.498C1115.33 334.314 1120.03 341.239 1123.25 348.876C1126.47 356.513 1128.16 364.711 1128.21 373.002V442.827C1128.31 459.556 1121.8 475.644 1110.08 487.567C1098.37 499.489 1082.41 506.273 1065.71 506.432L627.605 509.843C619.355 509.923 611.169 508.37 603.519 505.275C595.868 502.179 588.903 497.602 583.022 491.804C577.141 486.007 572.462 479.105 569.25 471.492C566.038 463.879 564.358 455.707 564.306 447.442V377.617ZM1369.6 853.15H1366.39L1368.79 1155.93C1368.95 1172.65 1362.49 1188.76 1350.81 1200.72C1339.13 1212.68 1323.19 1219.52 1306.49 1219.73H1226.37C1209.72 1219.89 1193.69 1213.44 1181.78 1201.78C1169.88 1190.12 1163.08 1174.21 1162.87 1157.53L1160.46 854.354L764.827 857.564L766.228 1027.71L1071.12 1025.3C1079.38 1025.2 1087.59 1026.73 1095.26 1029.82C1102.94 1032.9 1109.93 1037.47 1115.83 1043.27C1121.73 1049.07 1126.43 1055.98 1129.66 1063.61C1132.88 1071.24 1134.57 1079.42 1134.62 1087.71V1157.53C1134.73 1174.26 1128.21 1190.35 1116.49 1202.27C1104.78 1214.19 1088.82 1220.98 1072.12 1221.14L634.218 1224.75C617.921 1224.87 602.207 1218.67 590.37 1207.45C578.533 1196.23 571.49 1180.86 570.715 1164.55C570.715 1162.35 570.715 1160.54 570.715 1158.33V1091.72L567.71 728.147V726.542C567.511 724.809 567.511 723.058 567.71 721.325C568.865 705.512 575.911 690.712 587.451 679.86C598.991 669.007 614.181 662.895 630.009 662.736L1158.86 658.322V605.351C1158.75 588.676 1165.25 572.639 1176.93 560.754C1188.6 548.869 1204.51 542.106 1221.16 541.947H1301.29C1309.54 541.841 1317.74 543.375 1325.4 546.461C1333.07 549.547 1340.04 554.123 1345.93 559.926C1351.81 565.728 1356.49 572.641 1359.7 580.266C1362.9 587.891 1364.56 596.076 1364.59 604.348V657.319H1367.99C1384.66 657.265 1400.67 663.818 1412.53 675.547C1424.39 687.275 1431.14 703.228 1431.29 719.92V789.746C1431.3 806.287 1424.85 822.176 1413.32 834.021C1401.8 845.867 1386.11 852.731 1369.6 853.15Z" fill="white"/>
<path d="M570.916 1164.95C570.818 1164.16 570.818 1163.35 570.916 1162.55V1158.13C570.716 1160.94 570.916 1162.75 570.916 1164.95Z" fill="#FF7500"/>
</g>
<defs>
<clipPath id="clip0_2694_348">
<rect width="1996" height="2544" fill="white"/>
</clipPath>
</defs>
</svg>
