<svg width="186" height="162" viewBox="0 0 186 162" fill="none" xmlns="http://www.w3.org/2000/svg">
<g clip-path="url(#clip0_2694_479)">
<path d="M35.4144 154.16L39.947 156.883C39.5058 157.634 38.9739 158.329 38.3633 158.952C37.3693 159.921 36.2024 160.696 34.9229 161.238C33.6329 161.769 32.2498 162.037 30.8545 162.028C29.4587 162.042 28.0745 161.774 26.7861 161.238C25.4995 160.709 24.3303 159.932 23.3457 158.952C22.3498 157.964 21.5609 156.789 21.0248 155.494C20.4877 154.21 20.2184 152.83 20.233 151.438C20.2213 150.056 20.4906 148.685 21.0248 147.409C21.5609 146.115 22.3498 144.94 23.3457 143.952C24.3303 142.971 25.4995 142.194 26.7861 141.665C28.0728 141.121 29.4569 140.843 30.8545 140.849C32.2516 140.849 33.6346 141.126 34.9229 141.665C36.2024 142.207 37.3693 142.983 38.3633 143.952C38.9739 144.575 39.5058 145.269 39.947 146.021L35.4144 148.743C35.1826 148.376 34.9075 148.038 34.5952 147.736C34.1109 147.237 33.5292 146.841 32.8859 146.574C32.2425 146.308 31.5512 146.175 30.8545 146.184C30.1534 146.173 29.4574 146.304 28.8093 146.571C28.1612 146.838 27.5749 147.234 27.0864 147.736C26.5855 148.219 26.189 148.799 25.9213 149.44C25.6537 150.082 25.5205 150.771 25.53 151.465C25.5184 152.164 25.6505 152.858 25.9182 153.504C26.1858 154.151 26.5834 154.735 27.0864 155.222C27.5749 155.724 28.1612 156.12 28.8093 156.387C29.4574 156.654 30.1534 156.785 30.8545 156.774C31.5512 156.783 32.2425 156.651 32.8859 156.384C33.5292 156.117 34.1109 155.722 34.5952 155.222C34.9111 154.903 35.1862 154.547 35.4144 154.16Z" fill="white"/>
<path d="M56.0837 160.585C55.679 160.82 55.2594 161.029 54.8277 161.211C53.5387 161.744 52.1549 162.013 50.7594 162C49.3638 162.013 47.98 161.744 46.6909 161.211C45.4042 160.682 44.2351 159.905 43.2505 158.924C42.2628 157.935 41.483 156.76 40.957 155.467C40.4113 154.184 40.1325 152.804 40.1378 151.411C40.1355 150.026 40.4142 148.656 40.957 147.382C41.483 146.089 42.2628 144.913 43.2505 143.925C44.2351 142.944 45.4042 142.167 46.6909 141.638C47.9782 141.096 49.362 140.818 50.7594 140.821C52.1567 140.818 53.5404 141.096 54.8277 141.638C56.1144 142.167 57.2836 142.944 58.2682 143.925C59.2642 144.907 60.0452 146.084 60.5618 147.382C61.1045 148.656 61.3832 150.026 61.3809 151.411V162H56.0837V160.585ZM50.7594 146.13C50.0583 146.118 49.3622 146.25 48.7142 146.517C48.0661 146.783 47.4798 147.18 46.9913 147.681C46.4991 148.169 46.1102 148.751 45.8475 149.392C45.5849 150.032 45.4539 150.719 45.4622 151.411C45.4518 152.107 45.5817 152.799 45.8444 153.444C46.107 154.089 46.4971 154.675 46.9913 155.167C47.4798 155.669 48.0661 156.065 48.7142 156.332C49.3622 156.599 50.0583 156.731 50.7594 156.719C51.4604 156.731 52.1564 156.599 52.8045 156.332C53.4525 156.065 54.0389 155.669 54.5274 155.167C55.0304 154.68 55.428 154.096 55.6957 153.45C55.9634 152.804 56.0954 152.11 56.0837 151.411C56.0933 150.716 55.9602 150.027 55.6925 149.386C55.4248 148.744 55.0284 148.164 54.5274 147.681C54.0389 147.18 53.4525 146.783 52.8045 146.517C52.1564 146.25 51.4604 146.118 50.7594 146.13Z" fill="white"/>
<path d="M71.5657 154.078V162H66.2686V154.078H63.5381V148.77H66.2686V146.048C66.2562 144.656 66.5255 143.277 67.0604 141.991C67.5904 140.702 68.3804 139.534 69.3813 138.561C70.3509 137.563 71.5241 136.783 72.8217 136.275C74.1084 135.731 75.4925 135.453 76.8902 135.458V140.739C76.1891 140.728 75.493 140.859 74.845 141.126C74.1969 141.393 73.6106 141.789 73.1221 142.291C72.6191 142.778 72.2214 143.362 71.9537 144.009C71.6861 144.655 71.554 145.349 71.5657 146.048V148.77H76.8902V154.078H71.5657Z" fill="white"/>
<path d="M92.9726 147.627C92.5312 147.15 91.9947 146.771 91.3975 146.513C90.8003 146.255 90.1557 146.124 89.505 146.13C88.8039 146.118 88.1078 146.25 87.4598 146.517C86.8117 146.783 86.2254 147.18 85.7369 147.681C85.236 148.164 84.8395 148.744 84.5718 149.386C84.3042 150.027 84.171 150.716 84.1805 151.411C84.1688 152.11 84.3009 152.804 84.5686 153.45C84.8362 154.096 85.2339 154.68 85.7369 155.167C86.2254 155.669 86.8117 156.065 87.4598 156.332C88.1078 156.599 88.8039 156.731 89.505 156.719C90.2017 156.729 90.893 156.596 91.5363 156.329C92.1797 156.062 92.7614 155.667 93.2457 155.167C93.558 154.865 93.833 154.527 94.0648 154.16L98.5974 156.882C98.1562 157.634 97.6244 158.329 97.0138 158.951C96.0197 159.92 94.8529 160.696 93.5733 161.238C92.2834 161.768 90.9003 162.037 89.505 162.027C88.1092 162.042 86.7249 161.773 85.4365 161.238C84.1499 160.709 82.9807 159.932 81.9962 158.951C81.0003 157.964 80.2113 156.789 79.6752 155.494C79.1382 154.21 78.8688 152.83 78.8834 151.438C78.8717 150.055 79.1411 148.685 79.6752 147.409C80.2113 146.115 81.0003 144.939 81.9962 143.952C82.9807 142.971 84.1499 142.194 85.4365 141.665C86.7232 141.121 88.1074 140.843 89.505 140.849C90.9021 140.848 92.2851 141.126 93.5733 141.665C94.8529 142.207 96.0197 142.983 97.0138 143.952C97.9933 144.947 98.7719 146.121 99.3074 147.409C99.7948 148.558 100.072 149.784 100.126 151.03L88.1943 154.623L86.8017 149.532L92.9726 147.627ZM87.7302 138.29L90.4607 135.567H93.1911L90.4607 138.29H87.7302Z" fill="white"/>
<path d="M116.045 142.264C116.45 142.029 116.869 141.82 117.301 141.638C118.588 141.094 119.972 140.816 121.37 140.821C122.767 140.821 124.15 141.099 125.438 141.638C126.718 142.18 127.884 142.956 128.878 143.925C129.858 144.92 130.637 146.094 131.172 147.382C131.715 148.656 131.993 150.026 131.991 151.411C131.996 152.804 131.718 154.184 131.172 155.467C130.637 156.755 129.858 157.929 128.878 158.924C127.884 159.893 126.718 160.669 125.438 161.211C124.148 161.741 122.765 162.01 121.37 162C119.974 162.015 118.59 161.746 117.301 161.211C116.015 160.682 114.845 159.905 113.861 158.924C112.865 157.937 112.076 156.761 111.54 155.467C111.019 154.178 110.75 152.801 110.748 151.411V135.567H116.045V142.264ZM121.37 156.719C122.066 156.729 122.758 156.596 123.401 156.329C124.044 156.062 124.626 155.667 125.11 155.167C125.613 154.68 126.011 154.096 126.279 153.45C126.546 152.804 126.678 152.11 126.667 151.411C126.676 150.716 126.543 150.027 126.275 149.386C126.008 148.744 125.611 148.164 125.11 147.681C124.626 147.182 124.044 146.787 123.401 146.52C122.758 146.253 122.066 146.12 121.37 146.13C120.668 146.118 119.973 146.25 119.324 146.517C118.676 146.783 118.09 147.18 117.601 147.681C117.101 148.164 116.704 148.744 116.436 149.386C116.169 150.027 116.036 150.716 116.045 151.411C116.034 152.11 116.166 152.804 116.433 153.45C116.701 154.096 117.098 154.68 117.601 155.167C118.09 155.669 118.676 156.065 119.324 156.332C119.973 156.599 120.668 156.731 121.37 156.719Z" fill="white"/>
<path d="M144.414 162C143.019 162.015 141.635 161.746 140.346 161.211C139.059 160.682 137.89 159.905 136.906 158.924C135.91 157.937 135.121 156.761 134.585 155.467C134.064 154.178 133.795 152.801 133.793 151.411C133.794 150.03 134.063 148.662 134.585 147.382C135.121 146.088 135.91 144.912 136.906 143.925C137.89 142.944 139.059 142.167 140.346 141.638C141.633 141.094 143.017 140.816 144.414 140.821C145.812 140.821 147.195 141.099 148.483 141.638C149.763 142.18 150.929 142.956 151.923 143.925C152.903 144.92 153.681 146.094 154.217 147.382C154.76 148.656 155.038 150.027 155.036 151.411C155.041 152.804 154.763 154.184 154.217 155.467C153.681 156.755 152.903 157.929 151.923 158.924C150.929 159.893 149.763 160.669 148.483 161.211C147.193 161.741 145.81 162.01 144.414 162ZM144.414 156.719C145.111 156.729 145.803 156.596 146.446 156.329C147.089 156.062 147.671 155.667 148.155 155.168C148.658 154.681 149.056 154.096 149.324 153.45C149.591 152.804 149.723 152.11 149.712 151.411C149.721 150.716 149.588 150.027 149.32 149.386C149.053 148.744 148.656 148.164 148.155 147.681C147.671 147.182 147.089 146.787 146.446 146.52C145.803 146.253 145.111 146.12 144.414 146.13C143.713 146.118 143.017 146.25 142.369 146.517C141.721 146.783 141.135 147.18 140.646 147.681C140.145 148.164 139.749 148.744 139.481 149.386C139.214 150.027 139.081 150.716 139.09 151.411C139.078 152.11 139.21 152.804 139.478 153.45C139.746 154.096 140.143 154.681 140.646 155.168C141.135 155.669 141.721 156.065 142.369 156.332C143.017 156.599 143.713 156.731 144.414 156.719Z" fill="white"/>
<path d="M162.627 162H157.303V135.567H162.627V142.291C163.025 142.061 163.436 141.852 163.856 141.665C165.144 141.126 166.527 140.848 167.924 140.849C169.322 140.843 170.706 141.121 171.993 141.665C173.279 142.194 174.449 142.971 175.433 143.952C176.429 144.939 177.218 146.115 177.754 147.409C178.288 148.685 178.558 150.055 178.546 151.438V162.027H173.249V151.438C173.258 150.743 173.125 150.054 172.857 149.413C172.59 148.771 172.193 148.191 171.692 147.709C171.204 147.207 170.617 146.811 169.969 146.544C169.321 146.277 168.625 146.145 167.924 146.157C167.228 146.147 166.536 146.28 165.893 146.547C165.25 146.814 164.668 147.209 164.184 147.709C163.683 148.191 163.286 148.771 163.018 149.413C162.751 150.054 162.618 150.743 162.627 151.438V162Z" fill="white"/>
<path d="M184.525 49.7083H183.87H183.16C166.144 47.8802 148.948 48.6236 132.155 51.9133L133.984 25.8071H141.002C141.371 25.8256 141.741 25.7689 142.089 25.6403C142.436 25.5118 142.753 25.3142 143.021 25.0596C143.289 24.8049 143.503 24.4986 143.648 24.1591C143.794 23.8196 143.869 23.4541 143.869 23.0849V15.7893C143.869 15.4201 143.794 15.0546 143.648 14.7152C143.503 14.3757 143.289 14.0693 143.021 13.8147C142.753 13.56 142.436 13.3624 142.089 13.2339C141.741 13.1054 141.371 13.0486 141.002 13.0671H134.585L131.854 2.36873C131.694 1.70433 131.312 1.11379 130.772 0.693541C130.231 0.273288 129.564 0.0481417 128.878 0.0548324H56.4388C55.7533 0.0481417 55.0858 0.273288 54.5453 0.693541C54.0048 1.11379 53.6231 1.70433 53.4625 2.36873L50.7321 13.0671H44.3154C43.5913 13.0671 42.8968 13.3539 42.3847 13.8644C41.8727 14.3749 41.585 15.0673 41.585 15.7893V22.6766C41.585 23.3986 41.8727 24.091 42.3847 24.6015C42.8968 25.112 43.5913 25.3988 44.3154 25.3988H51.3328L53.0257 49.5178L49.2303 49.055C32.9783 47.4009 16.5608 48.6266 0.737066 52.6756L-0.109375 52.8661C-0.109375 53.3289 0.0817183 53.7917 0.190937 54.2545C4.99239 74.882 16.5856 93.3118 33.1206 106.603C49.9716 120.112 70.94 127.487 92.563 127.51C114.801 127.543 136.341 119.771 153.406 105.555C170.471 91.3386 181.972 71.5868 185.891 49.7628L184.525 49.7083ZM56.193 3.02206C56.2228 3.00761 56.2555 3.00012 56.2886 3.00012C56.3217 3.00012 56.3544 3.00761 56.3842 3.02206H128.824C128.853 3.00761 128.886 3.00012 128.919 3.00012C128.952 3.00012 128.985 3.00761 129.015 3.02206L131.5 13.0127H53.8994L56.193 3.02206ZM44.3154 22.7582V15.7893H140.892V22.6766H44.3154V22.7582ZM54.1997 25.4805H131.008L129.097 52.2128C125.245 53.0521 121.444 54.1063 117.711 55.3706C111.136 57.6901 104.747 60.502 98.5973 63.7823C85.2571 56.9229 70.891 52.2621 56.0565 49.9806L54.1997 25.4805ZM48.9299 51.995C65.0845 53.6755 80.806 58.2301 95.348 65.4428L90.5151 68.1651C86.0644 70.6151 81.6957 73.0106 77.0266 75.134C67.9885 72.2431 58.6727 70.2998 49.2303 69.3356C35.7699 67.983 22.1835 68.5975 8.90116 71.1595C6.59036 66.0124 4.76225 60.6631 3.44021 55.18C18.3483 51.6004 33.7577 50.5695 49.0119 52.1311L48.9299 51.995ZM10.1845 73.7729C22.9533 71.3732 36.0016 70.814 48.9299 72.1123C57.088 72.9982 65.1486 74.62 73.0128 76.9579C67.1816 79.2904 61.0968 80.9349 54.8824 81.8579C40.6839 84.0085 23.1543 79.1357 10.9763 75.3245C10.7306 74.8618 10.5122 74.3717 10.2118 73.909L10.1845 73.7729ZM12.915 78.8362C23.972 82.5786 35.5142 84.7059 47.1825 85.1518C49.9233 85.1612 52.6611 84.9702 55.3739 84.5801C70.9376 82.239 81.2042 76.5768 92.0715 70.6151C100.59 65.6364 109.546 61.4449 118.83 58.0928C125.356 55.8334 149.029 48.8372 182.641 52.2128C181.458 57.8083 179.739 63.2778 177.508 68.5462C147.637 66.6678 126.885 72.4934 119.294 75.134C109.816 78.5167 100.675 82.7727 91.9896 87.8468C81.3407 93.6996 71.2925 99.2257 56.2476 101.458C47.2616 102.443 38.1713 101.816 29.4071 99.6068C22.9386 93.5663 17.3915 86.6144 12.9423 78.9723L12.915 78.8362ZM166.149 88.1735C150.687 88.0509 135.304 90.385 120.578 95.0879C111.155 98.4993 102.062 102.754 93.4094 107.801C84.2978 113.35 74.4169 117.532 64.0841 120.214C52.9707 116.655 42.6515 110.989 33.6939 103.527C38.6552 104.461 43.69 104.953 48.7388 104.997C51.3981 105.008 54.0544 104.817 56.6845 104.425C72.2482 102.084 82.5148 96.4491 93.3821 90.4601C101.896 85.4922 110.843 81.3011 120.113 77.9379C138.208 72.2507 157.225 70.0609 176.143 71.4862C173.44 77.4363 170.098 83.077 166.177 88.3096L166.149 88.1735ZM109.683 123.127C114.001 121.067 118.431 119.249 122.953 117.682C127.018 116.326 131.157 115.199 135.349 114.307C127.293 118.537 118.653 121.555 109.71 123.263L109.683 123.127ZM142.694 109.979C135.715 111.09 128.845 112.803 122.161 115.096C115.012 117.615 108.074 120.691 101.41 124.297L101.082 124.488C98.3516 124.733 95.6211 124.842 92.8906 124.842C84.9903 124.875 77.1178 123.906 69.4632 121.956C78.3325 119.087 86.8504 115.234 94.8566 110.469C103.365 105.49 112.313 101.298 121.588 97.9463C135.277 93.5582 149.558 91.2816 163.938 91.1951C157.897 98.5649 150.739 104.948 142.722 110.115L142.694 109.979Z" fill="white"/>
<path fill-rule="evenodd" clip-rule="evenodd" d="M78.4737 33.7832C87.4296 38.1116 83.7162 43.2838 90.5424 47.5849C90.9869 48.6409 91.68 49.5746 92.5629 50.3071C89.3137 51.8316 84.3715 50.5249 80.8765 46.8227C76.7808 42.6577 75.7432 36.9682 78.4737 33.8649V33.7832Z" fill="white"/>
<path fill-rule="evenodd" clip-rule="evenodd" d="M90.0238 45.7339C85.4912 40.8339 86.2284 34.845 78.6104 33.7289L78.7742 33.5383C81.8596 30.5439 87.7848 31.6056 92.0443 35.9611C92.3174 36.2334 92.5904 36.5328 92.8362 36.8322C91.5743 38.431 90.6879 40.2914 90.2422 42.2767C89.939 43.4495 89.8649 44.6694 90.0238 45.87V45.7339Z" fill="white"/>
<path fill-rule="evenodd" clip-rule="evenodd" d="M108.209 33.7827C99.0073 38.22 103.185 43.5283 95.5941 47.9111C94.6495 48.5278 93.575 48.919 92.4541 49.0544C95.5395 52.0489 101.492 50.96 105.724 46.6317C109.956 42.3033 110.857 36.7772 108.127 33.6738L108.209 33.7827Z" fill="white"/>
<path fill-rule="evenodd" clip-rule="evenodd" d="M93.6557 48.1291C101.847 43.093 99.1167 34.8719 108.1 33.6469L107.909 33.4563C104.823 30.4618 98.8983 31.5235 94.6387 35.8791C90.3792 40.2347 89.5054 45.8697 92.3178 48.9186L93.6557 48.1291Z" fill="white"/>
</g>
<defs>
<clipPath id="clip0_2694_479">
<rect width="186" height="162" fill="white"/>
</clipPath>
</defs>
</svg>
