<svg width="220" height="191" viewBox="0 0 220 191" fill="none" xmlns="http://www.w3.org/2000/svg">
<path d="M194.963 15.3994C194.963 7.23488 190.655 2.00014 182.835 0.319853C180.853 0.0317385 178.847 -0.0620667 176.846 0.0397948H86.5847C81.8885 0.0397948 77.1923 0.0398105 72.4961 0.190606C70.2456 0.176631 68.0422 0.835641 66.169 2.08317C64.2958 3.3307 62.8383 5.10979 61.9836 7.19181C61.3411 9.05883 60.052 10.6344 58.3492 11.634C56.6464 12.6335 54.6423 12.991 52.6989 12.6419C50.4863 12.3144 48.2288 12.4762 46.0855 13.1159C45.0294 13.3952 44.1246 14.0769 43.565 15.015C43.0053 15.9532 42.8352 17.0731 43.0911 18.1351C43.0998 19.1071 43.4752 20.04 44.1423 20.747C44.8094 21.454 45.7188 21.883 46.6887 21.9481C48.1118 22.1847 49.5566 22.2642 50.9971 22.1851L67.3907 21.862C68.3883 21.8423 69.3832 21.973 70.3419 22.2497C71.3307 22.4265 72.2314 22.9303 72.8994 23.6804C73.5674 24.4305 73.9641 25.3833 74.0257 26.3858C74.2812 27.5266 74.1251 28.7209 73.585 29.7577C73.0449 30.7945 72.1556 31.607 71.0744 32.0514C69.5869 32.6719 67.9898 32.9869 66.3782 32.9777C51.9162 33.2793 37.4542 33.6096 22.9923 33.9687C21.54 34.0139 20.0962 34.2088 18.6839 34.5502C15.7541 35.3042 13.2983 38.1262 13.5568 40.3235C13.8153 42.5208 16.4219 44.1365 20.0195 44.0073C30.9413 43.6195 41.8417 43.1671 52.7635 42.7578C54.293 42.7578 55.8441 42.5855 57.3736 42.7578C58.1282 42.7453 58.8774 42.8874 59.5752 43.1751C60.2729 43.4628 60.9045 43.8901 61.4311 44.4308C61.9576 44.9715 62.3681 45.6141 62.6372 46.3193C62.9064 47.0244 63.0285 47.7771 62.9961 48.5311C62.9961 51.6332 60.8419 53.4859 57.2443 53.8736C51.6218 54.4553 46.0209 54.1967 40.3984 54.3044C38.2372 54.26 36.076 54.3897 33.9357 54.6922C33.2679 54.6941 32.6091 54.8466 32.0084 55.1384C31.4078 55.4303 30.8808 55.8539 30.4666 56.3778C30.0525 56.9017 29.7619 57.5124 29.6166 58.1642C29.4712 58.816 29.4749 59.4922 29.6273 60.1424C29.7996 62.5551 31.4799 63.9338 34.4312 63.9553C39.5151 63.9553 44.5991 63.9553 49.6615 63.9553C50.3936 63.8665 51.1364 63.9388 51.8377 64.167C52.539 64.3953 53.182 64.774 53.7216 65.2767C54.2613 65.7794 54.6845 66.394 54.9619 67.0774C55.2392 67.7608 55.3638 68.4966 55.3271 69.2332C55.3745 70.5968 54.8877 71.925 53.9703 72.935C53.0528 73.945 51.7773 74.5568 50.4155 74.6402C48.4336 74.8772 46.4301 74.9633 44.4483 75.028C36.0468 75.2218 27.6669 75.308 19.287 75.5881C14.1327 75.5517 8.9811 75.8395 3.86286 76.4498C3.2822 76.4795 2.71466 76.6334 2.19842 76.9009C1.68218 77.1683 1.22921 77.5433 0.869996 78.0005C0.510782 78.4576 0.253654 78.9864 0.115908 79.5513C-0.0218368 80.1162 -0.0369996 80.704 0.0714343 81.2752C0.0707499 82.3923 0.503925 83.4658 1.27958 84.2696C2.05524 85.0734 3.11274 85.5446 4.22907 85.5837C4.99647 85.6375 5.76669 85.6375 6.53408 85.5837L51.988 84.3342C54.1422 84.3342 56.1457 84.1619 58.2137 84.3342C59.6526 84.2176 61.081 84.6612 62.2008 85.5723C63.3207 86.4834 64.0454 87.7917 64.224 89.2243C64.5686 92.0248 62.6299 94.2436 59.2477 95.0838C58.1986 95.2989 57.1304 95.4071 56.0595 95.4069C51.5239 95.2484 46.9828 95.3923 42.4664 95.8377C41.8284 95.8458 41.2002 95.9955 40.6272 96.2759C40.0541 96.5564 39.5505 96.9607 39.1526 97.4595C38.7548 97.9583 38.4728 98.5392 38.3268 99.1603C38.1809 99.7814 38.1747 100.427 38.3088 101.051C38.5026 103.787 39.9675 105.101 43.1342 105.079C47.4426 105.079 51.7511 104.864 56.0595 104.799C61.1434 104.799 66.2274 104.562 71.2898 104.648C72.6586 104.584 73.998 105.06 75.018 105.976C76.0379 106.891 76.6565 108.171 76.74 109.539C76.876 110.893 76.4835 112.247 75.6445 113.319C74.8056 114.391 73.585 115.097 72.2377 115.29C71.1253 115.574 69.982 115.719 68.834 115.721C62.9099 115.721 56.9858 115.721 51.0617 116.195C50.0555 116.124 49.0534 116.382 48.2063 116.929C47.3593 117.477 46.7133 118.286 46.3655 119.233C45.6546 121.602 47.1195 123.175 48.929 124.403C50.4667 125.451 52.3515 125.86 54.1853 125.544C55.4153 125.181 56.7254 125.192 57.9492 125.576C59.1729 125.959 60.2548 126.698 61.0573 127.699C65.1503 133.903 70.8805 135.841 78.0325 135.755C94.3399 135.54 110.669 135.755 126.976 135.755H135.593C150.673 135.755 165.601 135.755 180.595 135.583C183.696 135.594 186.713 134.571 189.167 132.674C191.621 130.778 193.373 128.117 194.145 125.113C194.824 122.594 195.122 119.987 195.028 117.38V35.8858C195.093 28.9493 195.157 22.1851 194.963 15.3994ZM175.058 75.4158C156.274 75.4158 137.51 75.4158 118.726 75.4158C116.119 75.4158 116.033 75.4158 117.11 77.8931C118.395 80.742 120.4 83.2073 122.927 85.0468C125.454 86.8862 128.416 88.0363 131.522 88.3841C135.676 89.2522 139.975 89.1519 144.084 88.0909C148.193 87.03 152.003 85.0369 155.218 82.2662C156.058 81.5337 156.446 81.7922 157.049 82.417C161.616 87.1778 166.183 91.9817 170.836 96.6779C171.892 97.755 171.138 98.2289 170.513 98.8321C165.007 104.456 157.883 108.222 150.134 109.603C137.338 112.037 124.65 111.973 112.435 106.673C103.021 102.58 96.3002 95.9024 93.6936 85.7129C92.8006 81.8407 92.9096 77.8048 94.0102 73.9864C95.1109 70.1681 97.1669 66.6934 99.984 63.8907C100.458 63.3952 100.953 62.9429 101.47 62.4905C101.985 62.0367 102.524 61.6124 103.086 61.2195C103.646 60.8102 104.206 60.4439 104.788 60.0993C105.678 59.5841 106.599 59.1237 107.545 58.7206C109.158 58.0632 110.843 57.6003 112.565 57.3419H113.232L114.654 57.1696L116.701 56.9972C122.043 56.6956 127.472 57.148 132.75 56.9972C133.891 56.9972 133.913 57.665 133.913 58.5052C133.913 60.7671 133.913 63.029 133.913 65.7864L154.895 50.7069L139.277 39.548L133.956 35.7566C133.956 38.2124 133.848 40.2374 133.956 42.2192C134.064 44.2011 133.525 44.3735 131.802 44.3735C126.115 44.3735 120.449 44.3735 114.762 44.3735H111.164C109.768 44.357 108.372 44.429 106.985 44.589C106.376 44.6297 105.771 44.7161 105.176 44.8474C101.743 45.3806 98.4824 46.7084 95.654 48.725C94.7207 49.3613 93.8481 50.0825 93.0474 50.8792C90.8684 53.1297 89.1165 55.7575 87.8772 58.6344C87.7916 58.8442 87.6754 59.0401 87.5326 59.216C87.5326 59.3237 87.2956 59.3669 86.9079 59.5823C87.4535 56.609 88.3652 53.7147 89.6222 50.9654C96.5372 35.6059 108.558 27.0966 125.102 24.8563C138.544 23.0252 151.082 25.1579 162.112 33.4731C166.363 36.6575 169.901 40.6966 172.499 45.3305C175.096 49.9644 176.694 55.0906 177.191 60.3793C177.708 64.537 177.363 68.6946 177.557 72.8307C177.6 75.0495 176.889 75.4158 175.145 75.4158H175.058Z" fill="white"/>
<path d="M30.1592 174.469V154.758H42.8906V157.86H33.4551V162.728H41.2534V165.809H33.4551V171.388H42.8906V174.469H30.1592Z" fill="white"/>
<path d="M51.4 174.899C50.4654 174.936 49.5353 174.752 48.6857 174.361C48.0213 174.026 47.4399 173.548 46.9839 172.96C46.5746 172.414 46.2614 171.802 46.0576 171.151C45.8755 170.56 45.7457 169.955 45.6698 169.341C45.6439 168.875 45.6439 168.407 45.6698 167.941V159.69H49.0089V166.778C48.9796 167.287 48.9796 167.798 49.0089 168.307C49.0703 168.874 49.2231 169.427 49.4613 169.945C49.6816 170.462 50.0391 170.909 50.4953 171.237C51.0491 171.604 51.7056 171.785 52.3694 171.754C52.7953 171.756 53.2182 171.683 53.6189 171.539C54.0397 171.397 54.4228 171.161 54.7391 170.849C55.0943 170.448 55.3654 169.979 55.5361 169.471C55.7456 168.772 55.8473 168.046 55.8377 167.316L57.7981 168.157C57.8077 169.331 57.5576 170.493 57.0656 171.56C56.5969 172.568 55.8494 173.42 54.9114 174.016C53.849 174.639 52.6307 174.945 51.4 174.899ZM56.2255 174.468V169.901H55.8377V159.69H59.1552V174.468H56.2255Z" fill="white"/>
<path d="M62.6445 174.468V159.691H65.5743V163.288L65.2081 162.836C65.3913 162.353 65.6376 161.897 65.9405 161.479C66.2418 161.077 66.6142 160.734 67.0391 160.466C67.4168 160.225 67.8218 160.03 68.2455 159.884C68.6958 159.755 69.1575 159.668 69.6242 159.626C70.0756 159.583 70.53 159.583 70.9813 159.626V162.706C70.4833 162.572 69.9653 162.528 69.4519 162.577C68.9116 162.627 68.3892 162.796 67.9224 163.073C67.4808 163.298 67.0973 163.622 66.8022 164.021C66.511 164.409 66.2921 164.847 66.1559 165.313C66.0227 165.834 65.9575 166.37 65.962 166.907V174.404L62.6445 174.468Z" fill="white"/>
<path d="M79.7053 174.878C78.3291 174.905 76.9697 174.571 75.7631 173.908C74.6471 173.274 73.7296 172.342 73.1134 171.215C72.4675 169.996 72.1414 168.632 72.1656 167.252C72.1249 165.762 72.4426 164.285 73.0919 162.943C73.6769 161.792 74.582 160.835 75.6985 160.186C76.8592 159.504 78.1874 159.161 79.533 159.195C80.911 159.157 82.2688 159.532 83.4321 160.272C84.5292 161.007 85.3661 162.07 85.8233 163.31C86.3637 164.782 86.5625 166.359 86.4049 167.92H83.1305V166.778C83.23 165.548 82.9358 164.318 82.2904 163.266C81.9765 162.88 81.5731 162.576 81.1151 162.381C80.6571 162.185 80.1584 162.105 79.6622 162.146C79.0971 162.107 78.5307 162.199 78.0074 162.416C77.484 162.633 77.0182 162.968 76.6463 163.396C75.9235 164.475 75.5753 165.761 75.6554 167.058C75.5827 168.3 75.9319 169.529 76.6463 170.548C76.9983 170.963 77.4427 171.291 77.9439 171.504C78.4452 171.717 78.9894 171.81 79.533 171.776C80.2882 171.81 81.037 171.623 81.6872 171.237C82.2835 170.857 82.7554 170.31 83.0444 169.664L86.3188 170.655C85.7889 171.939 84.8697 173.024 83.6906 173.757C82.4986 174.509 81.1142 174.898 79.7053 174.878ZM74.6214 168.006V165.507H84.7893V168.006H74.6214Z" fill="white"/>
<path d="M89.0967 174.469V154.758H92.4357V166.821L97.8428 159.691H101.979L96.2271 167.08L102.453 174.469H98.1444L92.4788 167.36V174.469H89.0967Z" fill="white"/>
<path d="M107.71 174.877C106.769 174.912 105.834 174.705 104.996 174.274C104.298 173.9 103.717 173.341 103.316 172.659C102.944 172.002 102.751 171.259 102.756 170.504C102.743 169.849 102.86 169.197 103.1 168.587C103.347 168.014 103.723 167.505 104.199 167.101C104.768 166.644 105.419 166.301 106.116 166.088C106.822 165.868 107.542 165.695 108.271 165.571C109.068 165.42 109.929 165.27 110.877 165.14L113.807 164.71L112.622 165.377C112.663 164.973 112.623 164.565 112.505 164.177C112.386 163.789 112.192 163.428 111.933 163.115C111.609 162.844 111.235 162.639 110.832 162.514C110.429 162.388 110.005 162.343 109.585 162.383C108.911 162.392 108.248 162.554 107.646 162.857C107.021 163.197 106.557 163.77 106.353 164.451L103.337 163.525C103.697 162.306 104.456 161.244 105.492 160.509C106.72 159.693 108.177 159.293 109.649 159.367C110.838 159.341 112.018 159.561 113.118 160.013C114.081 160.435 114.85 161.204 115.272 162.167C115.537 162.663 115.705 163.204 115.767 163.762C115.767 164.3 115.767 164.882 115.767 165.528V174.597H112.881V171.409L113.376 171.926C112.806 172.896 111.998 173.704 111.028 174.274C109.991 174.753 108.85 174.961 107.71 174.877ZM108.357 172.249C109.017 172.269 109.673 172.136 110.274 171.861C110.764 171.635 111.197 171.304 111.545 170.892C111.811 170.57 112.022 170.206 112.17 169.815C112.352 169.355 112.454 168.867 112.471 168.372C112.471 167.812 112.471 167.381 112.471 167.036L113.484 167.338L110.92 167.747L109.089 168.092C108.631 168.181 108.178 168.296 107.732 168.436C107.389 168.551 107.063 168.71 106.763 168.91C106.511 169.079 106.298 169.3 106.138 169.556C105.999 169.807 105.925 170.089 105.922 170.375C105.923 170.718 106.02 171.054 106.203 171.344C106.41 171.629 106.683 171.858 107 172.012C107.415 172.187 107.864 172.268 108.314 172.249H108.357Z" fill="white"/>
<path d="M128.844 174.469V157.86H122.382V154.758H138.452V157.86H131.99V174.469H128.844Z" fill="white"/>
<path d="M139.012 174.468V159.691H141.941V163.288L141.575 162.836C141.759 162.353 142.005 161.897 142.308 161.479C142.614 161.082 142.986 160.739 143.406 160.466C143.789 160.221 144.202 160.026 144.634 159.884C145.077 159.753 145.531 159.666 145.991 159.626C146.443 159.583 146.897 159.583 147.349 159.626V162.706C146.857 162.575 146.347 162.531 145.841 162.577C145.293 162.624 144.763 162.793 144.29 163.073C143.852 163.304 143.47 163.627 143.169 164.021C142.877 164.405 142.664 164.845 142.545 165.313C142.393 165.831 142.321 166.368 142.329 166.907V174.404L139.012 174.468Z" fill="white"/>
<path d="M153.402 174.878C152.468 174.91 151.541 174.702 150.709 174.274C150.004 173.911 149.42 173.35 149.029 172.659C148.649 172.004 148.449 171.261 148.447 170.505C148.442 169.848 148.566 169.196 148.814 168.587C149.06 168.014 149.436 167.505 149.912 167.101C150.481 166.644 151.132 166.301 151.83 166.088C152.534 165.865 153.254 165.692 153.984 165.571C154.781 165.421 155.643 165.27 156.569 165.141L159.412 164.624L158.228 165.291C158.299 164.477 158.051 163.666 157.538 163.029C157.215 162.758 156.841 162.553 156.438 162.428C156.035 162.302 155.611 162.258 155.19 162.297C154.516 162.306 153.853 162.468 153.251 162.771C152.938 162.933 152.661 163.159 152.439 163.433C152.216 163.707 152.053 164.025 151.959 164.365L148.943 163.439C149.295 162.217 150.055 161.152 151.097 160.423C152.325 159.607 153.782 159.207 155.255 159.281C156.443 159.255 157.624 159.475 158.723 159.927C159.679 160.359 160.445 161.125 160.877 162.082C161.137 162.577 161.298 163.119 161.351 163.676C161.386 164.264 161.386 164.854 161.351 165.442V174.511H158.465V171.323L158.938 171.84C158.37 172.804 157.57 173.611 156.612 174.188C155.615 174.677 154.512 174.914 153.402 174.878ZM154.07 172.25C154.73 172.269 155.386 172.136 155.987 171.862C156.473 171.63 156.906 171.3 157.258 170.892C157.524 170.57 157.735 170.206 157.883 169.815C158.066 169.355 158.168 168.867 158.184 168.372C158.184 167.812 158.184 167.381 158.184 167.036L159.197 167.338L156.655 167.747L154.802 168.092C154.351 168.183 153.906 168.299 153.467 168.437C153.119 168.555 152.787 168.714 152.476 168.91C152.237 169.087 152.033 169.306 151.873 169.557C151.734 169.807 151.66 170.089 151.657 170.375C151.658 170.718 151.755 171.054 151.937 171.345C152.136 171.637 152.412 171.869 152.734 172.013C153.156 172.193 153.612 172.274 154.07 172.25Z" fill="white"/>
<path d="M170.637 174.878C169.376 174.914 168.135 174.56 167.082 173.866C166.059 173.164 165.247 172.195 164.734 171.065C164.156 169.817 163.869 168.455 163.894 167.08C163.872 165.698 164.159 164.329 164.734 163.073C165.263 161.946 166.09 160.985 167.125 160.294C168.211 159.601 169.479 159.249 170.766 159.282C172.02 159.242 173.256 159.596 174.299 160.294C175.269 161.003 176.016 161.975 176.453 163.095C176.964 164.36 177.213 165.716 177.186 167.08C177.211 168.444 176.962 169.799 176.453 171.065C176.009 172.181 175.263 173.15 174.299 173.866C173.214 174.578 171.933 174.932 170.637 174.878ZM171.154 171.927C171.919 171.973 172.678 171.76 173.308 171.324C173.877 170.896 174.299 170.301 174.514 169.622C174.769 168.799 174.893 167.941 174.881 167.08C174.877 166.246 174.746 165.418 174.493 164.624C174.277 163.957 173.864 163.371 173.308 162.944C172.717 162.508 171.995 162.287 171.262 162.319C170.489 162.295 169.731 162.53 169.107 162.987C168.529 163.438 168.088 164.043 167.836 164.732C167.552 165.511 167.413 166.336 167.427 167.166C167.412 168.003 167.551 168.835 167.836 169.622C168.072 170.308 168.498 170.913 169.064 171.367C169.681 171.776 170.415 171.972 171.154 171.927ZM174.859 174.469V164.107H174.493V154.758H177.81V174.469H174.859Z" fill="white"/>
<path d="M187.998 174.878C186.622 174.905 185.263 174.571 184.056 173.908C182.94 173.274 182.023 172.342 181.406 171.216C180.761 169.996 180.434 168.632 180.459 167.252C180.407 165.761 180.725 164.281 181.385 162.943C181.969 161.799 182.865 160.843 183.97 160.186C185.133 159.51 186.46 159.167 187.804 159.195C189.189 159.157 190.554 159.532 191.725 160.272C192.813 161.017 193.648 162.077 194.116 163.31C194.657 164.782 194.856 166.359 194.698 167.92H191.424V166.778C191.513 165.549 191.219 164.322 190.583 163.266C190.27 162.88 189.866 162.576 189.408 162.381C188.95 162.185 188.451 162.105 187.955 162.146C187.39 162.104 186.822 162.195 186.298 162.412C185.775 162.629 185.309 162.966 184.939 163.396C184.208 164.471 183.859 165.761 183.948 167.058C183.865 168.301 184.215 169.534 184.939 170.548C185.287 170.963 185.727 171.291 186.225 171.504C186.723 171.717 187.264 171.81 187.804 171.776C188.559 171.806 189.307 171.619 189.959 171.237C190.555 170.857 191.027 170.31 191.316 169.664L194.569 170.655C194.047 171.937 193.135 173.023 191.962 173.757C190.775 174.502 189.4 174.891 187.998 174.878ZM182.914 168.006V165.507H193.082V168.006H182.914Z" fill="white"/>
<path d="M197.435 174.469V159.691H200.343V163.289L199.998 162.837C200.173 162.35 200.42 161.892 200.731 161.479C201.032 161.078 201.404 160.735 201.829 160.467C202.207 160.226 202.612 160.031 203.036 159.885C203.479 159.758 203.933 159.671 204.393 159.627C204.844 159.583 205.299 159.583 205.75 159.627V162.707C205.259 162.572 204.748 162.528 204.242 162.578C203.702 162.628 203.179 162.797 202.712 163.073C202.267 163.293 201.883 163.619 201.592 164.021C201.293 164.405 201.073 164.844 200.946 165.314C200.813 165.835 200.748 166.37 200.752 166.908V174.405L197.435 174.469Z" fill="white"/>
<path d="M213.266 174.879C211.694 174.948 210.141 174.518 208.828 173.651C208.251 173.251 207.761 172.737 207.391 172.14C207.02 171.543 206.776 170.877 206.674 170.182L210.056 169.665C210.199 170.366 210.608 170.984 211.198 171.389C211.831 171.823 212.584 172.049 213.352 172.035C214.003 172.065 214.648 171.9 215.205 171.561C215.41 171.416 215.577 171.221 215.69 170.996C215.803 170.77 215.858 170.52 215.851 170.268C215.865 169.977 215.782 169.689 215.614 169.45C215.319 169.162 214.956 168.954 214.558 168.847C214.02 168.653 213.201 168.416 212.081 168.136C211.062 167.881 210.073 167.52 209.13 167.059C208.492 166.767 207.948 166.305 207.557 165.723C207.218 165.15 207.046 164.493 207.062 163.827C207.05 162.967 207.306 162.124 207.794 161.415C208.308 160.711 209.01 160.166 209.819 159.842C210.798 159.451 211.845 159.26 212.899 159.282C213.944 159.261 214.983 159.444 215.958 159.82C216.79 160.138 217.53 160.656 218.113 161.328C218.655 161.998 219.005 162.802 219.125 163.655L215.743 164.258C215.715 163.962 215.625 163.676 215.481 163.416C215.336 163.157 215.139 162.93 214.903 162.75C214.324 162.36 213.641 162.15 212.943 162.147C212.298 162.075 211.646 162.195 211.068 162.492C210.853 162.6 210.673 162.766 210.547 162.972C210.422 163.178 210.356 163.414 210.358 163.655C210.351 163.79 210.372 163.925 210.42 164.051C210.468 164.177 210.542 164.292 210.638 164.387C210.978 164.669 211.375 164.874 211.801 164.991C212.383 165.185 213.244 165.443 214.386 165.723C215.372 165.951 216.327 166.298 217.229 166.757C217.856 167.077 218.385 167.561 218.759 168.157C219.084 168.759 219.248 169.434 219.233 170.118C219.264 170.789 219.131 171.457 218.846 172.065C218.56 172.673 218.131 173.202 217.596 173.608C216.333 174.499 214.81 174.946 213.266 174.879Z" fill="white"/>
<path d="M43.7091 188.686C43.1203 188.697 42.5395 188.548 42.0288 188.255C41.5693 187.962 41.2031 187.543 40.9732 187.049C40.7249 186.486 40.6 185.876 40.607 185.261C40.5969 184.638 40.7218 184.021 40.9732 183.451C41.2031 182.957 41.5693 182.538 42.0288 182.245C42.5395 181.952 43.1203 181.803 43.7091 181.814C44.3889 181.785 45.0581 181.991 45.6048 182.396C46.1046 182.791 46.4666 183.334 46.6388 183.947L45.6694 184.205C45.5598 183.787 45.3272 183.412 45.0016 183.128C44.6234 182.864 44.1703 182.728 43.7091 182.74C43.3005 182.729 42.8971 182.833 42.5458 183.042C42.2375 183.266 41.9986 183.572 41.8564 183.925C41.6832 184.349 41.6024 184.804 41.6195 185.261C41.6048 185.711 41.6856 186.159 41.8564 186.575C41.992 186.932 42.2323 187.24 42.5458 187.458C42.8948 187.675 43.2984 187.787 43.7091 187.781C44.1727 187.788 44.626 187.644 45.0016 187.372C45.3272 187.088 45.5598 186.713 45.6694 186.295L46.6388 186.553C46.4666 187.167 46.1046 187.71 45.6048 188.104C45.0581 188.51 44.3889 188.715 43.7091 188.686Z" fill="white"/>
<path d="M47.3926 188.535V183.602H48.2543V184.808L48.125 184.636C48.191 184.485 48.2703 184.341 48.362 184.205C48.4604 184.081 48.5765 183.972 48.7067 183.882L49.116 183.666C49.2733 183.646 49.4326 183.646 49.5899 183.666C49.7471 183.644 49.9066 183.644 50.0638 183.666V184.571C49.8858 184.538 49.7033 184.538 49.5253 184.571C49.3324 184.59 49.1473 184.656 48.9867 184.765C48.8343 184.852 48.7079 184.979 48.6205 185.131C48.5126 185.268 48.4454 185.432 48.4266 185.605C48.4042 185.791 48.4042 185.979 48.4266 186.165V188.642L47.3926 188.535Z" fill="white"/>
<path d="M52.9506 188.685C52.4985 188.696 52.0517 188.585 51.6581 188.362C51.2878 188.152 50.9879 187.837 50.7964 187.457C50.5759 187.047 50.4646 186.587 50.4732 186.122C50.4639 185.638 50.5672 185.159 50.7749 184.721C50.9629 184.333 51.2631 184.011 51.6365 183.795C52.0147 183.573 52.4475 183.461 52.886 183.472C53.3425 183.447 53.7951 183.568 54.1785 183.817C54.5437 184.053 54.8232 184.4 54.9756 184.808C55.1522 185.297 55.2255 185.818 55.191 186.337H54.2216V185.992C54.2486 185.546 54.1356 185.101 53.8985 184.721C53.7815 184.58 53.6324 184.47 53.4637 184.398C53.295 184.327 53.1116 184.298 52.9291 184.312C52.7266 184.298 52.5236 184.331 52.3365 184.41C52.1493 184.488 51.9834 184.61 51.852 184.765C51.5908 185.151 51.4622 185.612 51.4857 186.079C51.4583 186.525 51.5879 186.967 51.852 187.328C51.9756 187.481 52.134 187.601 52.3139 187.68C52.4938 187.759 52.69 187.793 52.886 187.78C53.1639 187.785 53.4384 187.719 53.683 187.587C53.8976 187.432 54.0683 187.224 54.1785 186.983L55.1263 187.285C54.9513 187.716 54.6414 188.079 54.2431 188.319C53.8551 188.56 53.4073 188.687 52.9506 188.685ZM51.1841 186.337V185.605H54.717V186.337H51.1841Z" fill="white"/>
<path d="M57.3457 188.686C57.0229 188.701 56.7022 188.627 56.4194 188.47C56.1842 188.349 55.9895 188.162 55.8593 187.932C55.7306 187.709 55.6636 187.456 55.6654 187.199C55.6606 186.97 55.7047 186.743 55.7946 186.532C55.887 186.34 56.0282 186.177 56.2039 186.058C56.3954 185.92 56.6059 185.811 56.8287 185.735L57.5826 185.562L58.4659 185.433L59.3706 185.304L59.026 185.498C59.0448 185.192 58.9615 184.889 58.789 184.636C58.6695 184.53 58.5292 184.451 58.3771 184.402C58.225 184.354 58.0644 184.338 57.9058 184.356C57.6586 184.357 57.415 184.416 57.1949 184.528C56.9721 184.663 56.81 184.88 56.7425 185.131L55.8377 184.851C55.9548 184.444 56.2051 184.087 56.5486 183.839C56.953 183.581 57.4266 183.453 57.9058 183.473C58.3046 183.459 58.7016 183.532 59.0691 183.688C59.3847 183.831 59.6375 184.083 59.78 184.399C59.8596 184.561 59.9106 184.736 59.9308 184.916C59.9415 185.11 59.9415 185.304 59.9308 185.498V188.535H59.0691V187.415L59.2414 187.566C59.0526 187.903 58.7869 188.191 58.4659 188.406C58.1203 188.588 57.7361 188.684 57.3457 188.686ZM57.518 187.889C57.7543 187.894 57.9891 187.85 58.2074 187.759C58.3865 187.668 58.5472 187.543 58.6813 187.393C58.7897 187.252 58.8702 187.091 58.9183 186.919C58.9322 186.755 58.9322 186.589 58.9183 186.424V185.993L59.2414 186.101L58.4228 186.23L57.7335 186.338C57.5557 186.355 57.3814 186.399 57.2164 186.467C57.0947 186.5 56.9785 186.551 56.8717 186.618C56.7713 186.68 56.6835 186.76 56.6133 186.855C56.5784 186.967 56.5784 187.087 56.6133 187.199C56.6157 187.322 56.653 187.442 56.721 187.544C56.7862 187.656 56.8838 187.747 57.001 187.803C57.1648 187.87 57.3414 187.899 57.518 187.889Z" fill="white"/>
<path d="M60.4277 184.378V183.602H63.8098V184.378H60.4277ZM63.8098 188.536C63.5018 188.567 63.1915 188.567 62.8835 188.536C62.6087 188.535 62.3372 188.476 62.0865 188.363C61.8617 188.263 61.6788 188.088 61.5695 187.868C61.4654 187.675 61.4065 187.462 61.3971 187.243C61.3971 187.028 61.3971 186.791 61.3971 186.511V182.202H62.3665V187.049C62.3396 187.17 62.3396 187.295 62.3665 187.415C62.4243 187.508 62.5032 187.586 62.5969 187.642C62.6905 187.698 62.7961 187.731 62.9051 187.738C63.1842 187.77 63.466 187.77 63.7452 187.738L63.8098 188.536Z" fill="white"/>
<path d="M64.7568 182.805V181.857H65.7262V182.805H64.7568ZM64.7568 188.536V183.602H65.7262V188.536H64.7568Z" fill="white"/>
<path d="M66.9111 188.536V183.602H67.7728V185.024V188.536H66.9111ZM70.3794 188.536V186.166C70.4 185.965 70.4 185.763 70.3794 185.563C70.3548 185.367 70.2965 185.178 70.2071 185.003C70.1134 184.831 69.9806 184.683 69.8193 184.572C69.6236 184.459 69.3987 184.406 69.1731 184.421C69.0168 184.388 68.8554 184.388 68.6991 184.421C68.5456 184.487 68.4066 184.582 68.2898 184.701C68.1696 184.838 68.0813 185 68.0313 185.175C67.9593 185.42 67.923 185.674 67.9236 185.929L67.342 185.714C67.3263 185.305 67.4075 184.899 67.5789 184.529C67.7391 184.191 67.9934 183.907 68.3114 183.71C68.6586 183.513 69.0539 183.416 69.4531 183.43C69.7491 183.428 70.0425 183.486 70.3148 183.602C70.5318 183.702 70.7233 183.849 70.8749 184.033C71.0234 184.201 71.1337 184.4 71.198 184.615C71.2772 184.808 71.328 185.011 71.3488 185.218C71.3677 185.397 71.3677 185.578 71.3488 185.757V188.492L70.3794 188.536Z" fill="white"/>
<path d="M74.3199 188.687C73.9333 188.67 73.5595 188.543 73.2428 188.32C72.9078 188.076 72.6408 187.749 72.4673 187.372C72.2909 186.957 72.2029 186.51 72.2088 186.058C72.1986 185.6 72.2867 185.144 72.4673 184.723C72.638 184.344 72.9148 184.022 73.2644 183.796C73.6126 183.558 74.0276 183.438 74.4492 183.452C74.8711 183.435 75.2871 183.556 75.634 183.796C75.9597 184.031 76.2133 184.352 76.3664 184.723C76.5274 185.149 76.6078 185.602 76.6034 186.058C76.6093 186.51 76.5213 186.957 76.3449 187.372C76.2101 187.754 75.9621 188.084 75.634 188.32C75.2472 188.582 74.7861 188.71 74.3199 188.687ZM74.3199 190.841C74.0561 190.84 73.7942 190.796 73.5444 190.712C73.3007 190.633 73.074 190.509 72.8766 190.345C72.6659 190.189 72.4898 189.991 72.3596 189.764L73.2428 189.311C73.3351 189.511 73.4955 189.671 73.6952 189.764C73.8871 189.867 74.1022 189.919 74.3199 189.914C74.5659 189.926 74.8106 189.874 75.0308 189.764C75.2189 189.673 75.3707 189.521 75.4617 189.333C75.5717 189.113 75.6237 188.868 75.6125 188.622V187.243H75.7202V183.56H76.5603V189.01V189.376C76.5074 189.679 76.3734 189.962 76.1726 190.195C75.9646 190.413 75.7055 190.576 75.4186 190.668C75.0958 190.797 74.7534 190.87 74.4061 190.884L74.3199 190.841ZM74.3199 187.782C74.5907 187.79 74.8563 187.706 75.0739 187.545C75.2818 187.399 75.4338 187.186 75.5048 186.942C75.6104 186.652 75.6615 186.345 75.6555 186.037C75.6652 185.728 75.614 185.421 75.5048 185.132C75.4321 184.883 75.281 184.664 75.0739 184.507C74.8617 184.354 74.6031 184.278 74.3415 184.292C74.0624 184.271 73.7858 184.356 73.5659 184.529C73.3508 184.682 73.1919 184.902 73.1136 185.154C73.006 185.435 72.9548 185.735 72.9628 186.037C72.9564 186.338 73.0076 186.638 73.1136 186.92C73.1926 187.166 73.3425 187.384 73.5444 187.545C73.8042 187.757 74.1371 187.857 74.4707 187.825L74.3199 187.782Z" fill="white"/>
<path d="M79.4033 188.535V181.965H80.3727V184.808H83.6687V181.965H84.6165V188.535H83.6687V185.692H80.3727V188.535H79.4033Z" fill="white"/>
<path d="M87.1386 188.686C86.8159 188.701 86.4952 188.627 86.2123 188.47C85.9723 188.356 85.7757 188.167 85.6522 187.932C85.5235 187.709 85.4566 187.456 85.4584 187.199C85.4536 186.97 85.4976 186.743 85.5876 186.532C85.6791 186.346 85.8117 186.184 85.9754 186.058C86.1746 185.92 86.3922 185.811 86.6217 185.735L87.3756 185.562L88.2373 185.433L89.1636 185.304L88.8189 185.498C88.8427 185.188 88.7506 184.881 88.5604 184.636C88.445 184.531 88.3084 184.451 88.1598 184.403C88.0112 184.355 87.854 184.339 87.6988 184.356C87.4515 184.357 87.208 184.416 86.9879 184.528C86.765 184.663 86.603 184.88 86.5355 185.131L85.6307 184.851C85.7478 184.444 85.9981 184.087 86.3416 183.839C86.746 183.581 87.2196 183.453 87.6988 183.473C88.0976 183.459 88.4946 183.532 88.862 183.688C89.1777 183.831 89.4304 184.083 89.5729 184.399C89.6525 184.561 89.7035 184.736 89.7237 184.916C89.7344 185.11 89.7344 185.304 89.7237 185.498V188.535H88.8836V187.415L89.0559 187.566C88.8671 187.903 88.6014 188.191 88.2804 188.406C87.9284 188.591 87.5364 188.687 87.1386 188.686ZM87.2895 187.889C87.5328 187.896 87.775 187.852 88.0004 187.759C88.1795 187.668 88.3402 187.543 88.4743 187.393C88.5827 187.252 88.6631 187.091 88.7112 186.919C88.7251 186.755 88.7251 186.589 88.7112 186.424V185.993L89.0344 186.101L88.3235 186.165L87.6557 186.273C87.4779 186.29 87.3037 186.334 87.1386 186.402L86.7724 186.553L86.5355 186.79C86.5006 186.902 86.5006 187.023 86.5355 187.135C86.5031 187.247 86.5031 187.367 86.5355 187.479C86.6094 187.593 86.714 187.682 86.8371 187.738C86.9756 187.82 87.1297 187.871 87.2895 187.889Z" fill="white"/>
<path d="M90.7568 190.732V183.602H91.6185V187.156H91.7262V190.732H90.7568ZM93.0834 188.686C92.6633 188.689 92.2514 188.569 91.8986 188.341C91.5697 188.101 91.3158 187.772 91.1661 187.393C91.0073 186.973 90.927 186.528 90.9292 186.079C90.9248 185.623 91.0052 185.17 91.1661 184.743C91.3192 184.372 91.5729 184.052 91.8986 183.817C92.2374 183.576 92.6466 183.455 93.0618 183.472C93.4892 183.465 93.9092 183.585 94.2682 183.817C94.6187 184.035 94.8904 184.36 95.0437 184.743C95.2417 185.16 95.3377 185.618 95.3238 186.079C95.3335 186.533 95.2376 186.983 95.0437 187.393C94.8823 187.777 94.6129 188.107 94.2682 188.341C93.9213 188.582 93.5053 188.703 93.0834 188.686ZM92.9541 187.824C93.2249 187.832 93.4905 187.748 93.7081 187.587C93.9105 187.421 94.0664 187.206 94.1605 186.962C94.2665 186.68 94.3176 186.38 94.3113 186.079C94.3193 185.777 94.2681 185.477 94.1605 185.196C94.0664 184.952 93.9105 184.736 93.7081 184.571C93.4855 184.403 93.2109 184.319 92.9326 184.334C92.6643 184.32 92.3989 184.396 92.1786 184.549C91.9785 184.712 91.829 184.929 91.7478 185.174C91.6565 185.467 91.6129 185.772 91.6185 186.079C91.616 186.385 91.6596 186.69 91.7478 186.984C91.8271 187.224 91.9773 187.434 92.1786 187.587C92.4043 187.748 92.6767 187.832 92.9541 187.824Z" fill="white"/>
<path d="M96.1426 190.732V183.602H97.0043V187.156H97.112V190.732H96.1426ZM98.4691 188.686C98.049 188.689 97.6372 188.569 97.2843 188.341C96.9555 188.101 96.7015 187.772 96.5519 187.393C96.393 186.973 96.3127 186.528 96.3149 186.079C96.3105 185.623 96.3909 185.17 96.5519 184.743C96.705 184.372 96.9586 184.052 97.2843 183.817C97.6312 183.576 98.0472 183.455 98.4691 183.472C98.8907 183.458 99.3057 183.579 99.6539 183.817C100.004 184.035 100.276 184.36 100.429 184.743C100.627 185.16 100.723 185.618 100.71 186.079C100.715 186.53 100.627 186.978 100.451 187.393C100.278 187.77 100.011 188.096 99.6755 188.341C99.3165 188.573 98.8965 188.693 98.4691 188.686ZM98.3399 187.824C98.6107 187.832 98.8763 187.748 99.0938 187.587C99.3089 187.434 99.4679 187.214 99.5462 186.962C99.6522 186.68 99.7034 186.38 99.697 186.079C99.705 185.777 99.6538 185.477 99.5462 185.196C99.4679 184.944 99.3089 184.724 99.0938 184.571C98.873 184.4 98.5971 184.315 98.3183 184.334C98.05 184.32 97.7847 184.396 97.5643 184.549C97.3642 184.712 97.2148 184.929 97.1335 185.174C97.0423 185.467 96.9986 185.772 97.0043 186.079C97.0018 186.385 97.0453 186.69 97.1335 186.984C97.221 187.225 97.3785 187.435 97.5859 187.587C97.8035 187.748 98.0691 187.832 98.3399 187.824Z" fill="white"/>
<path d="M101.635 182.805V181.857H102.583V182.805H101.635ZM101.635 188.536V183.602H102.583V188.536H101.635Z" fill="white"/>
<path d="M103.789 188.535V183.602H104.651V185.024V188.535H103.789ZM107.257 188.535V186.165C107.257 185.971 107.257 185.778 107.257 185.562C107.226 185.366 107.16 185.176 107.063 185.002C106.978 184.831 106.852 184.683 106.697 184.571C106.5 184.461 106.276 184.409 106.051 184.42C105.895 184.388 105.733 184.388 105.577 184.42C105.421 184.481 105.281 184.577 105.168 184.7C105.048 184.841 104.953 185.002 104.888 185.174C104.852 185.424 104.852 185.678 104.888 185.928L104.285 185.713C104.276 185.303 104.364 184.897 104.543 184.528C104.703 184.19 104.958 183.906 105.275 183.709C105.616 183.516 106.004 183.419 106.396 183.429C106.692 183.422 106.987 183.481 107.257 183.602C107.484 183.694 107.684 183.843 107.839 184.033C107.972 184.211 108.081 184.407 108.162 184.614C108.23 184.81 108.28 185.012 108.313 185.217C108.313 185.433 108.313 185.605 108.313 185.756V188.492L107.257 188.535Z" fill="white"/>
<path d="M111.372 188.685C110.92 188.696 110.473 188.585 110.08 188.362C109.715 188.144 109.417 187.832 109.218 187.457C109.005 187.045 108.901 186.585 108.916 186.122C108.897 185.637 109.001 185.155 109.218 184.721C109.4 184.336 109.693 184.014 110.058 183.795C110.445 183.575 110.884 183.463 111.329 183.472C111.784 183.458 112.234 183.578 112.622 183.817C112.975 184.066 113.251 184.409 113.419 184.807C113.598 185.296 113.664 185.819 113.613 186.337H112.665V185.992C112.675 185.547 112.564 185.107 112.342 184.721C112.225 184.58 112.076 184.469 111.907 184.398C111.738 184.327 111.555 184.297 111.372 184.312C111.17 184.296 110.966 184.328 110.779 184.407C110.591 184.486 110.425 184.608 110.295 184.764C110.02 185.144 109.89 185.611 109.929 186.078C109.892 186.526 110.022 186.971 110.295 187.328C110.419 187.48 110.577 187.601 110.757 187.68C110.937 187.759 111.133 187.793 111.329 187.78C111.6 187.788 111.869 187.721 112.105 187.586C112.326 187.433 112.504 187.225 112.622 186.983L113.548 187.285C113.379 187.713 113.077 188.075 112.686 188.319C112.289 188.557 111.835 188.684 111.372 188.685ZM109.606 186.337V185.604H113.139V186.337H109.606Z" fill="white"/>
<path d="M116.328 188.687C115.81 188.699 115.3 188.557 114.863 188.278C114.68 188.146 114.524 187.979 114.406 187.787C114.288 187.595 114.209 187.381 114.174 187.158L115.143 187.007C115.205 187.255 115.359 187.471 115.574 187.61C115.816 187.771 116.102 187.853 116.393 187.847C116.644 187.861 116.894 187.793 117.104 187.653C117.185 187.599 117.251 187.525 117.296 187.438C117.341 187.352 117.364 187.255 117.362 187.158C117.39 187.059 117.39 186.955 117.362 186.856C117.253 186.748 117.12 186.667 116.974 186.619L116.113 186.361C115.764 186.282 115.424 186.167 115.1 186.016C114.892 185.912 114.714 185.756 114.583 185.563C114.468 185.383 114.408 185.174 114.411 184.96C114.41 184.677 114.492 184.4 114.648 184.163C114.83 183.935 115.067 183.757 115.337 183.646C115.661 183.528 116.004 183.469 116.35 183.474C116.694 183.473 117.037 183.531 117.362 183.646C117.63 183.761 117.872 183.93 118.073 184.142C118.245 184.368 118.357 184.635 118.396 184.917L117.427 185.09C117.39 184.865 117.266 184.663 117.082 184.529C116.865 184.385 116.61 184.31 116.35 184.314C116.102 184.282 115.852 184.335 115.639 184.465C115.558 184.503 115.49 184.564 115.444 184.641C115.398 184.718 115.376 184.806 115.38 184.896C115.374 184.948 115.381 185 115.4 185.049C115.418 185.098 115.449 185.141 115.488 185.176C115.594 185.283 115.729 185.357 115.876 185.391C116.165 185.494 116.46 185.58 116.759 185.65C117.1 185.731 117.432 185.846 117.75 185.994C117.955 186.112 118.132 186.274 118.267 186.468C118.377 186.665 118.429 186.889 118.418 187.115C118.428 187.332 118.386 187.549 118.296 187.748C118.207 187.946 118.071 188.12 117.901 188.256C117.443 188.58 116.887 188.732 116.328 188.687Z" fill="white"/>
<path d="M121.089 188.687C120.57 188.705 120.058 188.562 119.624 188.278C119.438 188.149 119.28 187.983 119.162 187.79C119.043 187.597 118.966 187.382 118.935 187.158L119.904 187.007C119.932 187.131 119.984 187.249 120.058 187.352C120.132 187.456 120.226 187.544 120.335 187.61C120.577 187.771 120.863 187.853 121.153 187.847C121.405 187.861 121.655 187.793 121.864 187.653C121.94 187.595 122.001 187.52 122.042 187.434C122.084 187.348 122.104 187.253 122.101 187.158C122.138 187.06 122.138 186.953 122.101 186.856C122.001 186.748 121.875 186.666 121.735 186.619L120.873 186.361C120.523 186.286 120.184 186.17 119.861 186.016C119.643 185.918 119.457 185.761 119.322 185.563C119.215 185.381 119.163 185.172 119.172 184.96C119.171 184.677 119.253 184.4 119.408 184.163C119.582 183.935 119.812 183.757 120.076 183.646C120.401 183.528 120.744 183.469 121.089 183.474C121.434 183.471 121.777 183.53 122.101 183.646C122.376 183.749 122.621 183.919 122.812 184.142C123 184.361 123.12 184.631 123.157 184.917L122.166 185.09C122.157 184.978 122.123 184.87 122.067 184.773C122.012 184.676 121.935 184.593 121.843 184.529C121.626 184.385 121.371 184.31 121.11 184.314C120.863 184.277 120.61 184.33 120.399 184.465C120.313 184.497 120.239 184.556 120.188 184.634C120.138 184.712 120.114 184.803 120.119 184.896C120.119 184.999 120.157 185.099 120.227 185.176C120.338 185.287 120.481 185.363 120.636 185.391C120.918 185.494 121.206 185.581 121.498 185.65C121.841 185.724 122.174 185.84 122.489 185.994C122.705 186.106 122.889 186.269 123.028 186.468C123.137 186.665 123.189 186.889 123.178 187.115C123.19 187.334 123.146 187.554 123.052 187.753C122.959 187.952 122.817 188.125 122.64 188.256C122.192 188.583 121.641 188.737 121.089 188.687Z" fill="white"/>
<path d="M127.747 188.686C127.395 188.685 127.046 188.627 126.713 188.514C126.412 188.414 126.138 188.244 125.916 188.018C125.75 187.839 125.625 187.626 125.549 187.394C125.464 187.166 125.413 186.926 125.399 186.683C125.366 186.44 125.366 186.193 125.399 185.95C125.478 185.724 125.594 185.513 125.743 185.326C125.812 185.243 125.891 185.17 125.98 185.11L126.239 184.938C126.066 184.754 125.914 184.552 125.786 184.335C125.679 184.121 125.627 183.884 125.636 183.645C125.636 183.286 125.741 182.934 125.937 182.633C126.131 182.347 126.41 182.128 126.734 182.008L127.208 181.857H127.682C127.951 181.86 128.219 181.896 128.479 181.965C128.722 182.042 128.944 182.175 129.125 182.353C129.243 182.459 129.345 182.583 129.427 182.719C129.505 182.849 129.57 182.986 129.621 183.128L128.673 183.365C128.629 183.213 128.538 183.077 128.415 182.978C128.317 182.891 128.198 182.832 128.07 182.805H127.661C127.468 182.771 127.271 182.771 127.079 182.805C126.935 182.878 126.816 182.99 126.734 183.128C126.646 183.27 126.601 183.435 126.605 183.602C126.568 183.736 126.568 183.878 126.605 184.012C126.676 184.118 126.755 184.219 126.842 184.313L127.057 184.529L127.294 184.766L129.104 186.424V185.132H129.966V186.274C129.977 186.446 129.977 186.618 129.966 186.791C129.992 186.911 129.992 187.036 129.966 187.157L130.806 187.932L130.181 188.579L129.513 187.954C129.375 188.099 129.215 188.223 129.039 188.32L128.522 188.536H128.07L127.747 188.686ZM127.747 187.76H128.091C128.192 187.772 128.293 187.772 128.393 187.76C128.501 187.717 128.603 187.659 128.695 187.588L128.91 187.437L127.036 185.713L126.777 185.843C126.691 185.889 126.617 185.955 126.562 186.037C126.491 186.125 126.439 186.228 126.411 186.338C126.378 186.458 126.378 186.585 126.411 186.704C126.389 186.84 126.389 186.978 126.411 187.114C126.451 187.23 126.509 187.339 126.583 187.437C126.72 187.593 126.9 187.705 127.1 187.76C127.322 187.795 127.547 187.795 127.768 187.76H127.747Z" fill="white"/>
<path d="M135.888 188.688C135.292 188.702 134.703 188.553 134.186 188.257C133.727 187.963 133.36 187.545 133.13 187.05C132.882 186.487 132.757 185.878 132.764 185.262C132.754 184.64 132.879 184.022 133.13 183.453C133.36 182.958 133.727 182.54 134.186 182.246C134.703 181.951 135.292 181.802 135.888 181.816C136.561 181.79 137.222 181.995 137.762 182.397C138.262 182.792 138.624 183.335 138.796 183.948L137.827 184.207C137.717 183.789 137.484 183.414 137.159 183.13C136.791 182.861 136.343 182.725 135.888 182.742C135.472 182.726 135.061 182.831 134.703 183.043C134.395 183.267 134.156 183.573 134.014 183.927C133.84 184.35 133.76 184.805 133.777 185.262C133.762 185.712 133.843 186.16 134.014 186.576C134.149 186.934 134.389 187.241 134.703 187.46C135.058 187.68 135.47 187.792 135.888 187.783C136.344 187.784 136.789 187.641 137.159 187.373C137.484 187.089 137.717 186.714 137.827 186.296L138.796 186.555C138.624 187.168 138.262 187.711 137.762 188.106C137.222 188.508 136.561 188.713 135.888 188.688Z" fill="white"/>
<path d="M139.637 188.535V181.965H140.498V185.519H140.606V188.535H139.637ZM143.105 188.535V186.166C143.105 185.972 143.105 185.778 143.105 185.562C143.073 185.366 143.008 185.176 142.911 185.002C142.826 184.831 142.7 184.683 142.545 184.571C142.348 184.462 142.124 184.41 141.899 184.421C141.742 184.388 141.581 184.388 141.425 184.421C141.265 184.475 141.124 184.572 141.015 184.701C140.888 184.836 140.792 184.998 140.735 185.175C140.7 185.425 140.7 185.679 140.735 185.929L140.132 185.713C140.123 185.303 140.212 184.897 140.391 184.528C140.551 184.191 140.805 183.906 141.123 183.71C141.464 183.516 141.851 183.419 142.243 183.43C142.54 183.422 142.834 183.481 143.105 183.602C143.332 183.695 143.532 183.843 143.687 184.033C143.82 184.212 143.928 184.407 144.01 184.615C144.078 184.811 144.128 185.013 144.161 185.218C144.161 185.433 144.161 185.605 144.161 185.756V188.492L143.105 188.535Z" fill="white"/>
<path d="M146.488 188.686C146.165 188.7 145.845 188.625 145.562 188.471C145.326 188.35 145.132 188.163 145.002 187.932C144.873 187.71 144.806 187.457 144.808 187.2C144.809 186.969 144.86 186.741 144.958 186.532C145.05 186.347 145.183 186.185 145.346 186.058C145.543 185.917 145.761 185.808 145.992 185.735L146.725 185.563L147.608 185.434L148.513 185.304L148.168 185.498C148.198 185.192 148.114 184.885 147.931 184.637C147.812 184.531 147.671 184.451 147.519 184.403C147.367 184.355 147.207 184.339 147.048 184.356C146.801 184.357 146.557 184.416 146.337 184.529C146.114 184.664 145.952 184.88 145.885 185.132L145.002 184.852C145.103 184.443 145.348 184.084 145.691 183.839C146.102 183.579 146.583 183.451 147.07 183.473C147.461 183.461 147.851 183.535 148.211 183.689C148.536 183.825 148.798 184.079 148.944 184.4C149.014 184.566 149.064 184.739 149.095 184.917C149.095 185.11 149.095 185.304 149.095 185.498V188.536H148.254V187.415L148.405 187.566C148.227 187.911 147.959 188.201 147.63 188.406C147.278 188.592 146.886 188.688 146.488 188.686ZM146.66 187.889C146.897 187.895 147.131 187.851 147.35 187.76C147.532 187.674 147.694 187.549 147.824 187.394C147.94 187.258 148.021 187.095 148.061 186.92C148.085 186.756 148.085 186.589 148.061 186.424C148.07 186.281 148.07 186.137 148.061 185.994L148.362 186.101L147.544 186.231L146.876 186.338C146.691 186.353 146.509 186.397 146.337 186.468L145.992 186.618C145.893 186.674 145.811 186.756 145.756 186.855C145.685 186.957 145.648 187.077 145.648 187.2C145.65 187.323 145.688 187.442 145.756 187.545C145.821 187.657 145.918 187.747 146.036 187.803C146.233 187.886 146.448 187.915 146.66 187.889Z" fill="white"/>
<path d="M150.126 188.536V183.602H150.966V185.024H151.095V188.536H150.126ZM153.594 188.536V186.166C153.594 185.972 153.594 185.778 153.594 185.563C153.552 185.369 153.487 185.181 153.4 185.003C153.315 184.832 153.189 184.684 153.034 184.572C152.837 184.462 152.613 184.41 152.388 184.421C152.232 184.388 152.07 184.388 151.914 184.421C151.755 184.475 151.613 184.572 151.505 184.701C151.377 184.836 151.282 184.998 151.225 185.175C151.189 185.425 151.189 185.679 151.225 185.929L150.621 185.714C150.612 185.304 150.701 184.898 150.88 184.529C151.038 184.196 151.284 183.913 151.591 183.71C151.938 183.513 152.333 183.416 152.733 183.43C153.029 183.428 153.322 183.486 153.594 183.602C153.818 183.69 154.012 183.84 154.154 184.033C154.302 184.206 154.418 184.403 154.499 184.615C154.567 184.811 154.617 185.013 154.65 185.218C154.65 185.433 154.65 185.606 154.65 185.757V188.492L153.594 188.536Z" fill="white"/>
<path d="M157.537 188.686C157.116 188.7 156.701 188.579 156.353 188.341C156.008 188.107 155.738 187.777 155.577 187.393C155.393 186.979 155.298 186.532 155.297 186.079C155.294 185.619 155.389 185.163 155.577 184.743C155.742 184.367 156.011 184.045 156.353 183.817C156.712 183.585 157.132 183.465 157.559 183.472C157.981 183.455 158.397 183.576 158.744 183.817C159.061 184.054 159.307 184.375 159.455 184.743C159.633 185.165 159.721 185.621 159.713 186.079C159.719 186.53 159.631 186.978 159.455 187.393C159.312 187.776 159.056 188.106 158.722 188.341C158.373 188.576 157.959 188.697 157.537 188.686ZM157.537 190.84C157.273 190.845 157.01 190.801 156.762 190.71C156.512 190.631 156.278 190.507 156.073 190.344C155.874 190.181 155.706 189.985 155.577 189.763L156.46 189.31C156.553 189.51 156.713 189.67 156.913 189.763C157.105 189.866 157.32 189.917 157.537 189.913C157.776 189.925 158.014 189.873 158.227 189.763C158.421 189.673 158.58 189.521 158.679 189.332C158.771 189.106 158.815 188.864 158.808 188.621V187.242H158.938V183.559H159.778V188.642C159.789 188.764 159.789 188.887 159.778 189.009C159.788 189.131 159.788 189.253 159.778 189.375C159.718 189.68 159.576 189.962 159.368 190.193C159.164 190.416 158.904 190.58 158.614 190.667C158.299 190.795 157.964 190.867 157.624 190.883L157.537 190.84ZM157.537 187.781C157.815 187.792 158.089 187.708 158.313 187.544C158.514 187.391 158.664 187.181 158.744 186.941C158.839 186.648 158.89 186.343 158.895 186.036C158.894 185.728 158.843 185.422 158.744 185.131C158.671 184.882 158.52 184.663 158.313 184.506C158.101 184.353 157.842 184.277 157.58 184.291C157.301 184.27 157.025 184.355 156.805 184.528C156.59 184.686 156.425 184.903 156.331 185.153C156.241 185.438 156.198 185.736 156.202 186.036C156.199 186.335 156.243 186.633 156.331 186.919C156.425 187.163 156.581 187.378 156.783 187.544C156.905 187.646 157.045 187.724 157.197 187.772C157.349 187.82 157.508 187.838 157.667 187.824L157.537 187.781Z" fill="white"/>
<path d="M161.049 182.805V181.857H162.018V182.805H161.049ZM161.049 188.536V183.602H162.018V188.536H161.049Z" fill="white"/>
<path d="M163.203 188.536V183.602H164.065V185.024V188.536H163.203ZM166.693 188.536V186.166C166.713 185.965 166.713 185.763 166.693 185.563C166.668 185.367 166.61 185.178 166.521 185.003C166.434 184.826 166.3 184.676 166.133 184.572C165.938 184.456 165.712 184.403 165.487 184.421C165.33 184.39 165.169 184.39 165.013 184.421C164.859 184.487 164.72 184.582 164.603 184.701C164.483 184.838 164.395 185 164.345 185.175C164.273 185.42 164.237 185.674 164.237 185.929L163.655 185.714C163.651 185.306 163.731 184.903 163.892 184.529C164.053 184.191 164.307 183.907 164.625 183.71C164.972 183.513 165.367 183.416 165.767 183.43C166.063 183.428 166.356 183.486 166.628 183.602C166.845 183.702 167.037 183.849 167.188 184.033C167.337 184.201 167.447 184.4 167.512 184.615C167.586 184.811 167.644 185.012 167.684 185.218C167.684 185.433 167.684 185.606 167.684 185.757V188.492L166.693 188.536Z" fill="white"/>
<path d="M170.636 188.686C170.209 188.693 169.789 188.573 169.43 188.341C169.095 188.096 168.828 187.77 168.654 187.393C168.478 186.978 168.39 186.53 168.396 186.079C168.382 185.618 168.478 185.16 168.676 184.743C168.829 184.36 169.101 184.035 169.451 183.817C169.806 183.576 170.229 183.455 170.658 183.472C171.073 183.458 171.481 183.579 171.821 183.817C172.147 184.052 172.4 184.372 172.553 184.743C172.714 185.17 172.795 185.623 172.79 186.079C172.793 186.528 172.712 186.973 172.553 187.393C172.404 187.772 172.15 188.101 171.821 188.341C171.468 188.569 171.056 188.689 170.636 188.686ZM170.636 190.84C170.372 190.839 170.11 190.795 169.861 190.71C169.617 190.632 169.39 190.507 169.193 190.344C168.982 190.188 168.806 189.99 168.676 189.763L169.559 189.31C169.653 189.516 169.823 189.678 170.033 189.763C170.224 189.867 170.44 189.919 170.658 189.913C170.897 189.922 171.134 189.87 171.347 189.763C171.535 189.672 171.687 189.52 171.778 189.332C171.888 189.112 171.94 188.867 171.929 188.621V187.242H172.036V183.559H172.877V189.009C172.887 189.131 172.887 189.253 172.877 189.375C172.824 189.678 172.69 189.961 172.489 190.193C172.281 190.412 172.022 190.575 171.735 190.667C171.405 190.799 171.055 190.872 170.701 190.883L170.636 190.84ZM170.636 187.781C170.914 187.789 171.186 187.705 171.412 187.544C171.613 187.391 171.763 187.181 171.843 186.941C171.931 186.647 171.974 186.342 171.972 186.036C171.977 185.729 171.934 185.424 171.843 185.131C171.761 184.886 171.612 184.669 171.412 184.506C171.191 184.353 170.926 184.277 170.658 184.291C170.379 184.276 170.105 184.36 169.882 184.528C169.673 184.687 169.516 184.904 169.43 185.153C169.322 185.434 169.271 185.734 169.279 186.036C169.273 186.337 169.324 186.637 169.43 186.919C169.516 187.167 169.673 187.385 169.882 187.544C170.004 187.646 170.144 187.724 170.296 187.772C170.447 187.82 170.607 187.838 170.765 187.824L170.636 187.781Z" fill="white"/>
<path d="M175.804 188.535V181.965H176.752V187.652H179.746V188.535H175.804Z" fill="white"/>
<path d="M180.437 182.805V181.857H181.384V182.805H180.437ZM180.437 188.536V183.602H181.384V188.536H180.437Z" fill="white"/>
<path d="M182.225 184.379V183.603H185.262V184.379H182.225ZM183.043 188.537V183.431C183.033 183.295 183.033 183.158 183.043 183.022C183.023 182.886 183.023 182.748 183.043 182.612C183.098 182.47 183.178 182.338 183.28 182.225C183.387 182.094 183.529 181.997 183.689 181.945C183.825 181.881 183.971 181.844 184.12 181.837H185.262V182.634H184.702C184.608 182.622 184.513 182.631 184.424 182.661C184.334 182.691 184.253 182.74 184.185 182.806C184.125 182.869 184.079 182.944 184.049 183.025C184.019 183.107 184.007 183.194 184.013 183.28V188.558L183.043 188.537Z" fill="white"/>
<path d="M187.827 188.687C187.375 188.698 186.928 188.587 186.534 188.364C186.156 188.157 185.848 187.842 185.651 187.459C185.424 187.064 185.292 186.622 185.263 186.167C185.254 185.683 185.357 185.204 185.565 184.766C185.753 184.378 186.053 184.056 186.427 183.84C186.805 183.618 187.237 183.506 187.676 183.517C188.132 183.492 188.585 183.612 188.969 183.862C189.328 184.104 189.606 184.45 189.766 184.853C189.942 185.342 190.016 185.863 189.981 186.382H189.012V186.037C189.039 185.59 188.926 185.146 188.688 184.766C188.572 184.625 188.422 184.515 188.254 184.443C188.085 184.372 187.902 184.343 187.719 184.357C187.517 184.343 187.314 184.376 187.127 184.455C186.939 184.533 186.773 184.655 186.642 184.809C186.381 185.196 186.252 185.657 186.276 186.124C186.248 186.57 186.378 187.012 186.642 187.373C186.766 187.526 186.924 187.646 187.104 187.725C187.284 187.804 187.48 187.838 187.676 187.825C187.947 187.833 188.216 187.766 188.452 187.632C188.673 187.478 188.851 187.27 188.969 187.028L189.916 187.33C189.741 187.761 189.431 188.124 189.033 188.364C188.666 188.575 188.25 188.686 187.827 188.687ZM186.06 186.339V185.607H189.572V186.339H186.06Z" fill="white"/>
<path d="M192.803 188.687C192.284 188.705 191.772 188.562 191.338 188.278C191.149 188.15 190.988 187.985 190.866 187.792C190.743 187.599 190.662 187.383 190.627 187.158L191.618 187.007C191.673 187.253 191.819 187.468 192.027 187.61C192.277 187.771 192.57 187.854 192.867 187.847C193.112 187.861 193.355 187.793 193.557 187.653C193.638 187.599 193.704 187.525 193.749 187.438C193.795 187.352 193.817 187.255 193.815 187.158C193.852 187.06 193.852 186.953 193.815 186.856C193.711 186.753 193.586 186.672 193.449 186.619L192.587 186.361C192.237 186.286 191.898 186.17 191.575 186.016C191.357 185.918 191.171 185.761 191.036 185.563C190.929 185.381 190.877 185.172 190.885 184.96C190.874 184.676 190.958 184.396 191.122 184.163C191.296 183.935 191.526 183.757 191.79 183.646C192.114 183.528 192.458 183.469 192.803 183.474C193.148 183.473 193.49 183.531 193.815 183.646C194.09 183.749 194.335 183.919 194.526 184.142C194.714 184.361 194.834 184.631 194.871 184.917L193.88 185.09C193.866 184.979 193.83 184.873 193.774 184.777C193.719 184.681 193.645 184.597 193.557 184.529C193.332 184.385 193.07 184.31 192.803 184.314C192.562 184.278 192.317 184.332 192.113 184.465C192.027 184.497 191.953 184.556 191.902 184.634C191.852 184.712 191.828 184.803 191.833 184.896C191.832 184.999 191.871 185.099 191.941 185.176C192.052 185.287 192.195 185.363 192.35 185.391C192.632 185.494 192.92 185.581 193.212 185.65C193.554 185.727 193.886 185.843 194.203 185.994C194.413 186.106 194.591 186.269 194.72 186.468C194.837 186.663 194.897 186.887 194.892 187.115C194.898 187.334 194.853 187.551 194.759 187.749C194.665 187.948 194.527 188.121 194.354 188.256C193.906 188.583 193.355 188.737 192.803 188.687Z" fill="white"/>
<path d="M195.087 184.378V183.602H198.469V184.378H195.087ZM198.469 188.536C198.161 188.567 197.851 188.567 197.543 188.536C197.268 188.535 196.996 188.476 196.746 188.363C196.521 188.263 196.338 188.088 196.229 187.868C196.125 187.675 196.066 187.462 196.056 187.243C196.056 187.028 196.056 186.791 196.056 186.511V182.202H197.026V187.049C196.999 187.17 196.999 187.295 197.026 187.415C197.081 187.511 197.159 187.59 197.253 187.647C197.347 187.703 197.454 187.735 197.564 187.738C197.843 187.77 198.125 187.77 198.404 187.738L198.469 188.536Z" fill="white"/>
<path d="M199.869 190.732L200.817 188.147V188.901L198.663 183.602H199.654L201.27 187.695H200.968L202.498 183.602H203.467L200.753 190.732H199.869Z" fill="white"/>
<path d="M204.133 188.536V181.857H205.081V188.579L204.133 188.536Z" fill="white"/>
<path d="M208.486 188.685C208.034 188.696 207.587 188.585 207.193 188.362C206.815 188.156 206.507 187.84 206.31 187.457C206.107 187.042 206.004 186.584 206.008 186.122C205.999 185.638 206.102 185.159 206.31 184.721C206.498 184.333 206.798 184.011 207.172 183.795C207.55 183.573 207.983 183.461 208.421 183.472C208.878 183.447 209.33 183.568 209.714 183.817C210.073 184.059 210.351 184.405 210.511 184.808C210.687 185.297 210.761 185.818 210.726 186.337H209.757V185.992C209.784 185.546 209.671 185.101 209.434 184.721C209.317 184.58 209.168 184.47 208.999 184.398C208.83 184.327 208.647 184.298 208.464 184.312C208.262 184.298 208.059 184.331 207.872 184.41C207.685 184.488 207.518 184.61 207.387 184.765C207.126 185.151 206.997 185.612 207.021 186.079C206.993 186.525 207.123 186.967 207.387 187.328C207.511 187.481 207.669 187.601 207.849 187.68C208.029 187.759 208.225 187.793 208.421 187.78C208.692 187.788 208.961 187.721 209.197 187.587C209.418 187.433 209.596 187.225 209.714 186.983L210.662 187.285C210.486 187.716 210.177 188.079 209.778 188.319C209.39 188.56 208.942 188.687 208.486 188.685ZM206.719 186.337V185.605H210.231V186.337H206.719Z" fill="white"/>
</svg>
