<svg width="180" height="255" viewBox="0 0 180 255" fill="none" xmlns="http://www.w3.org/2000/svg">
<g clip-path="url(#clip0_2694_495)">
<path d="M37.3152 176.842C37.4865 172.033 37.3402 167.218 36.877 162.429C36.8535 161.888 36.6526 161.371 36.3056 160.956C35.9586 160.542 35.4846 160.253 34.9569 160.134C33.8508 159.863 32.6821 159.8 31.5552 159.571C31.3256 159.571 31.1586 159.154 30.783 158.736C31.2998 158.629 31.8224 158.553 32.3482 158.507C37.0021 158.507 41.6353 158.507 46.2892 158.507C46.6395 158.496 46.9882 158.56 47.3118 158.695C47.4579 158.695 47.437 159.133 47.5413 159.467C46.79 159.654 46.1222 159.842 45.4544 159.988C44.8363 160.115 44.2739 160.433 43.8468 160.897C43.4198 161.362 43.1499 161.948 43.0752 162.575C42.969 163.265 42.9133 163.962 42.9083 164.66C42.9083 170.376 42.9082 176.091 42.783 181.806C42.783 185.019 42.783 188.231 42.783 191.443C42.7514 192.069 42.7514 192.695 42.783 193.321C42.7544 193.794 42.8235 194.269 42.986 194.715C43.1486 195.161 43.4011 195.568 43.7279 195.913C44.0547 196.257 44.449 196.53 44.886 196.716C45.323 196.902 45.7935 196.995 46.2683 196.992C46.807 196.998 47.3441 197.047 47.875 197.138C48.1255 197.138 48.5012 197.617 48.4803 197.826C48.4183 197.98 48.3222 198.118 48.1993 198.23C48.0765 198.342 47.9301 198.425 47.7708 198.473C47.3349 198.536 46.892 198.536 46.4561 198.473H34.6647C33.329 198.473 31.9933 198.327 30.6785 198.202C30.5116 198.202 30.2613 197.847 30.2613 197.638C30.2613 197.43 30.4907 197.054 30.6577 197.033C31.4507 197.033 32.2438 196.908 33.0577 196.846C35.7916 196.637 37.0647 195.573 37.2316 192.903C37.3568 188.523 37.2316 184.163 37.2316 179.783C37.2316 179.783 37.2318 179.637 36.877 179.345C35.0977 179.239 33.3136 179.239 31.5343 179.345H25.6492C23.7709 179.345 21.8925 179.345 20.0142 179.345C18.136 179.345 16.2995 179.345 14.3587 179.491C14.2637 180.057 14.2011 180.628 14.1709 181.202C14.1709 184.768 14.1709 188.335 14.1709 191.923C14.1781 192.544 14.2268 193.165 14.3169 193.779C14.325 194.207 14.4173 194.628 14.5884 195.02C14.7596 195.412 15.0064 195.766 15.3145 196.062C15.6226 196.359 15.9863 196.591 16.3845 196.747C16.7826 196.903 17.2075 196.979 17.6351 196.971C18.1622 197.005 18.6856 197.082 19.2003 197.2C19.3672 197.2 19.4716 197.617 19.5134 197.868C19.5551 198.118 19.3464 198.202 19.2212 198.243C18.8973 198.385 18.5513 198.47 18.1986 198.494C13.6212 198.494 9.06482 198.452 4.52917 198.368C4.01948 198.312 3.51613 198.207 3.02637 198.056C3.33941 197.659 3.48566 197.263 3.71523 197.221C4.32961 197.106 4.9496 197.022 5.57265 196.971C6.34091 196.919 7.06212 196.582 7.5949 196.027C8.12767 195.471 8.43359 194.737 8.45266 193.967C8.55117 193.276 8.59987 192.579 8.59863 191.881C8.59863 184.184 8.59863 176.508 8.59863 168.936C8.59863 167.163 8.49436 165.39 8.41088 163.617C8.41088 161.344 7.8055 160.656 5.63506 159.946C5.13419 159.779 4.6333 159.675 4.04896 159.529C4.17417 159.154 4.1742 158.841 4.34116 158.736C4.56886 158.606 4.83086 158.548 5.09243 158.57C9.55852 158.57 14.0247 158.57 18.4908 158.57C18.8259 158.627 19.1544 158.718 19.4716 158.841C19.2212 159.154 19.0961 159.55 18.8666 159.613C18.1987 159.8 17.4683 159.842 16.7796 160.009C16.1088 160.122 15.4995 160.469 15.0602 160.989C14.621 161.508 14.3799 162.166 14.3795 162.846C14.0562 167.295 13.9726 171.758 14.1291 176.216C14.1885 176.463 14.2797 176.702 14.4004 176.925C16.2004 177.143 18.0151 177.213 19.8265 177.134C21.7882 177.134 23.7499 177.134 25.7325 177.134H31.3465C33.3408 177.247 35.3414 177.149 37.3152 176.842Z" fill="white"/>
<path d="M89.7179 175.278C89.7179 172.253 89.7179 169.208 89.7179 166.162C89.6891 165.188 89.5774 164.218 89.3839 163.263C89.274 162.505 88.9115 161.806 88.3547 161.28C87.7979 160.754 87.0795 160.431 86.3162 160.364C85.5304 160.209 84.7563 160 83.9997 159.738C83.8854 159.682 83.7882 159.596 83.7184 159.49C83.6486 159.383 83.609 159.26 83.6033 159.133C83.6196 158.971 83.6709 158.814 83.7538 158.673C83.8367 158.533 83.9491 158.412 84.0832 158.319C84.5656 158.089 85.0929 157.968 85.6275 157.965C89.5719 157.965 93.4954 157.965 97.4189 157.965C97.9483 157.993 98.4665 158.128 98.9423 158.361C99.05 158.436 99.1379 158.536 99.1986 158.652C99.2593 158.768 99.2908 158.898 99.2908 159.029C99.2908 159.16 99.2593 159.289 99.1986 159.405C99.1379 159.521 99.05 159.621 98.9423 159.696C98.3697 159.943 97.7761 160.139 97.1685 160.28C94.7893 160.864 94.0169 161.678 93.7874 164.077C93.6827 165.235 93.6411 166.397 93.6623 167.56C93.6623 171.94 93.6623 176.321 93.6623 180.68C93.6623 182.996 93.3283 185.311 93.0988 187.605C92.9931 188.226 92.8253 188.833 92.5979 189.42C91.9032 191.694 90.6517 193.758 88.9572 195.426C87.2627 197.094 85.1785 198.314 82.8935 198.973C80.3659 199.889 77.6722 200.256 74.9915 200.051C72.3108 199.846 69.7047 199.074 67.3458 197.784C65.4255 196.803 63.7568 195.393 62.4685 193.665C61.1802 191.936 60.3068 189.934 59.9161 187.814C59.596 186.15 59.4214 184.461 59.3944 182.766C59.3944 179.199 59.3944 175.611 59.3944 172.045C59.3944 169.187 59.3944 166.329 59.3944 163.492C59.4624 163.044 59.4349 162.587 59.3133 162.15C59.1918 161.713 58.979 161.307 58.6892 160.959C58.3994 160.61 58.0392 160.326 57.632 160.127C57.2248 159.927 56.7799 159.816 56.3266 159.8C55.8049 159.8 55.2414 159.8 54.7405 159.592C54.6237 159.561 54.5157 159.504 54.4251 159.424C54.3345 159.345 54.2638 159.245 54.2188 159.133C54.2187 158.695 54.4902 158.528 54.8658 158.507H55.9511H69.0779C69.4307 158.455 69.7894 158.455 70.1422 158.507C70.2492 158.556 70.3418 158.632 70.4113 158.727C70.4807 158.822 70.5246 158.933 70.5389 159.05C70.5017 159.165 70.4365 159.269 70.3491 159.353C70.2617 159.436 70.1548 159.497 70.038 159.529C69.5163 159.529 68.9737 159.529 68.4519 159.696C66.2189 160.176 65.217 160.864 65.1962 163.555C65.1753 166.246 64.7578 168.686 64.8831 171.273C65.0083 173.859 64.8831 176.446 64.8831 179.032C64.8831 180.638 64.8831 182.265 64.8831 183.872C64.9479 186.292 65.6693 188.65 66.97 190.692C68.0362 192.463 69.5414 193.929 71.3401 194.949C73.1388 195.968 75.1702 196.507 77.2379 196.512C77.864 196.512 78.4902 196.512 79.1163 196.512C81.6406 196.365 84.0422 195.374 85.9348 193.698C87.8274 192.022 89.1011 189.759 89.551 187.272C89.7389 185.415 89.8639 183.538 89.9057 181.661C89.9474 179.783 89.9057 177.384 89.9057 175.236L89.7179 175.278Z" fill="white"/>
<path d="M138.762 157.401C139.284 157.401 139.597 157.234 139.805 157.401C141.504 157.971 143.301 158.184 145.086 158.027H169.732C171.61 158.188 173.501 157.99 175.305 157.443C176.077 157.151 176.682 157.631 176.828 158.465C176.974 159.299 176.828 159.717 176.953 160.342C176.953 162.032 176.953 163.742 176.953 165.432C176.972 166.055 176.916 166.679 176.786 167.288C176.711 167.485 176.596 167.664 176.449 167.815C176.302 167.966 176.126 168.085 175.931 168.165C175.472 168.352 175.096 167.935 174.95 167.497C174.766 166.997 174.634 166.48 174.553 165.953C174.553 165.432 174.553 164.89 174.449 164.347C174.136 162.032 173.51 161.406 171.172 161.365C168.397 161.365 165.621 161.365 162.825 161.365C161.28 161.365 160.988 161.761 160.925 163.325C160.925 163.68 160.925 164.034 160.925 164.389V191.088C160.873 191.894 160.873 192.702 160.925 193.508C160.984 194.319 161.317 195.086 161.872 195.682C162.426 196.278 163.167 196.666 163.972 196.783C164.578 196.908 165.225 196.887 165.83 197.054C165.978 197.128 166.11 197.23 166.217 197.355C166.325 197.481 166.406 197.627 166.456 197.784C166.483 197.891 166.488 198.003 166.47 198.112C166.452 198.221 166.411 198.325 166.35 198.418C166.289 198.51 166.209 198.589 166.116 198.648C166.023 198.708 165.918 198.748 165.809 198.765C165.374 198.883 164.924 198.939 164.473 198.931C159.493 198.931 154.491 198.931 149.468 198.931C149.114 198.972 148.757 198.972 148.404 198.931C147.736 198.806 147.611 198.41 147.924 197.179L149.739 197.012C150.362 196.991 150.983 196.928 151.597 196.825C152.404 196.718 153.145 196.32 153.679 195.705C154.214 195.09 154.505 194.301 154.498 193.487C154.498 192.861 154.498 192.236 154.498 191.61V164.18C154.498 163.722 154.498 163.284 154.498 162.845C154.498 161.782 154.08 161.323 153.037 161.302C149.739 161.302 146.421 161.302 143.124 161.302C142.443 161.274 141.776 161.5 141.251 161.935C140.727 162.371 140.383 162.985 140.285 163.659C140.098 164.452 140.035 165.244 139.868 166.016C139.734 166.623 139.545 167.216 139.305 167.789C139.23 167.89 139.133 167.971 139.02 168.025C138.907 168.08 138.783 168.106 138.658 168.102C138.33 168.024 138.037 167.841 137.823 167.58C137.672 167.361 137.612 167.092 137.656 166.83C137.802 164.326 137.969 161.844 138.198 159.341C138.332 158.68 138.521 158.031 138.762 157.401Z" fill="white"/>
<path d="M120.522 198.953C116.494 198.953 112.466 198.953 108.459 198.953C107.755 198.945 107.055 198.854 106.372 198.681C106.231 198.588 106.115 198.461 106.035 198.312C105.954 198.162 105.913 197.996 105.913 197.826C105.935 197.666 105.995 197.514 106.09 197.383C106.185 197.252 106.31 197.146 106.456 197.075C106.974 196.947 107.508 196.891 108.042 196.908C110.964 196.742 111.736 195.949 111.778 192.924C111.778 189.337 111.778 185.77 111.778 182.203C111.778 176.488 111.778 170.772 111.778 165.057C111.778 161.135 111.569 160.885 107.75 160.113C107.313 160.026 106.886 159.893 106.477 159.717C106.289 159.717 106.038 159.279 106.08 159.112C106.122 158.945 106.33 158.382 106.581 158.299C107.165 158.094 107.778 157.981 108.396 157.965C110.087 157.965 111.798 157.965 113.489 157.965C116.619 157.965 119.75 157.965 122.88 157.965C123.674 157.983 124.462 158.117 125.217 158.361C125.426 158.361 125.614 158.904 125.656 159.196C125.697 159.488 125.384 159.696 125.197 159.759C124.593 159.919 123.98 160.037 123.36 160.113C122.755 160.113 122.108 160.113 121.503 160.113C119.165 160.322 118.518 160.906 118.164 163.159C118.121 163.784 118.121 164.411 118.164 165.036V192.153C118.121 192.687 118.121 193.224 118.164 193.759C118.164 194.312 118.383 194.842 118.775 195.234C119.166 195.625 119.697 195.845 120.25 195.845C121.774 195.845 123.298 195.845 124.821 195.845H129.913C131.079 195.918 132.242 195.664 133.271 195.111C134.3 194.558 135.154 193.728 135.736 192.716C136.086 192.093 136.506 191.512 136.988 190.984C137.25 190.763 137.567 190.619 137.906 190.567C138.015 190.545 138.128 190.548 138.236 190.576C138.344 190.603 138.444 190.656 138.528 190.728C138.613 190.801 138.68 190.891 138.724 190.994C138.768 191.096 138.788 191.207 138.783 191.318C138.705 191.664 138.607 192.005 138.49 192.34C137.76 193.967 136.988 195.573 136.403 197.221C136.218 197.774 135.851 198.247 135.362 198.565C134.874 198.883 134.292 199.027 133.711 198.973C130.059 198.973 126.386 198.973 122.713 198.973L120.522 198.953Z" fill="white"/>
<path d="M61.2936 236.31L63.2346 238.959L69.245 247.178C71.1334 250.042 74.0317 252.09 77.3631 252.914C77.5509 252.914 77.7805 252.914 77.8848 253.06C77.9892 253.206 78.5319 253.706 78.5737 254.082C78.6154 254.457 78.1771 254.833 77.6971 254.895C75.2159 255.312 72.6684 255.061 70.317 254.166C67.9656 253.271 65.8953 251.766 64.3196 249.806C63.2344 248.492 62.2326 247.157 61.1892 245.801C60.1457 244.445 58.977 242.776 57.8501 241.275C57.3701 240.628 56.8067 240.044 56.3475 239.376C55.9319 238.8 55.3712 238.345 54.7224 238.055C54.0737 237.766 53.36 237.653 52.6536 237.729C49.3353 237.729 49.3354 237.729 49.3145 240.92V247.073C49.2829 247.608 49.2829 248.145 49.3145 248.679C49.3196 249.175 49.4245 249.665 49.623 250.119C49.8215 250.573 50.1095 250.983 50.4698 251.324C50.8301 251.664 51.2553 251.929 51.7202 252.102C52.185 252.275 52.6799 252.352 53.1753 252.33C53.7962 252.34 54.4162 252.381 55.0327 252.455C55.1453 252.465 55.2546 252.498 55.3545 252.551C55.4544 252.604 55.5428 252.676 55.6146 252.763C55.6864 252.851 55.7401 252.951 55.7728 253.059C55.8055 253.168 55.8164 253.281 55.8049 253.394C55.8007 253.62 55.7131 253.836 55.5591 254.002C55.405 254.167 55.1953 254.27 54.9701 254.29C54.616 254.321 54.2598 254.321 53.9057 254.29H38.6293C38.187 254.301 37.7471 254.223 37.3354 254.061C37.1927 253.971 37.0731 253.848 36.9861 253.703C36.8992 253.558 36.8473 253.395 36.8345 253.227C36.867 253.062 36.9363 252.907 37.0376 252.773C37.1388 252.64 37.2694 252.531 37.4189 252.455C38.024 252.333 38.6385 252.263 39.2555 252.246C40.1642 252.244 41.0383 251.899 41.7037 251.28C42.369 250.661 42.7767 249.815 42.845 248.909C42.897 248.284 42.897 247.656 42.845 247.032C42.845 238.104 42.845 229.176 42.845 220.249C42.8631 219.549 42.7999 218.849 42.657 218.163C42.5743 217.49 42.257 216.868 41.7607 216.407C41.2645 215.945 40.6212 215.673 39.9441 215.639C39.0569 215.566 38.1774 215.419 37.3145 215.201C37.1641 215.134 37.0333 215.03 36.9347 214.899C36.836 214.768 36.7727 214.613 36.751 214.45C36.7695 214.284 36.8288 214.124 36.9234 213.986C37.0181 213.848 37.1451 213.735 37.2936 213.657C37.8645 213.423 38.4717 213.288 39.0884 213.261C43.6379 213.052 48.1876 212.823 52.7371 212.719C55.6822 212.688 58.6195 213.025 61.4814 213.72C63.2114 214.185 64.8688 214.887 66.4065 215.806C67.8721 216.645 69.112 217.828 70.0195 219.251C70.927 220.675 71.4749 222.298 71.6166 223.98C71.7582 225.663 71.4891 227.354 70.8324 228.91C70.1757 230.465 69.1513 231.838 67.8467 232.91C66.4782 234.07 64.9077 234.968 63.2137 235.559L61.2936 236.31ZM49.3145 225.255V232.201C49.3145 232.806 49.3145 233.432 49.3145 234.057C49.3145 235.309 49.6902 235.643 50.9215 235.705C53.59 235.903 56.2714 235.57 58.8102 234.725C59.9532 234.338 60.9964 233.703 61.8658 232.867C62.7352 232.03 63.4091 231.012 63.8396 229.886C64.5164 227.873 64.7375 225.736 64.4867 223.628C64.4905 221.875 63.9219 220.169 62.8672 218.768C61.8126 217.368 60.3294 216.35 58.6431 215.868C56.3494 215.14 53.9541 214.781 51.5474 214.805C49.7735 214.805 49.3353 215.263 49.2936 217.016C49.2727 219.727 49.3145 222.585 49.3145 225.255Z" fill="white"/>
<path d="M178.769 253.873C177.782 254.392 176.652 254.568 175.555 254.374H145.795C145.176 254.358 144.563 254.245 143.979 254.04C143.77 254.04 143.624 253.477 143.604 253.164C143.617 253.039 143.662 252.92 143.735 252.817C143.808 252.715 143.907 252.633 144.021 252.58C144.627 252.463 145.241 252.386 145.857 252.351C146.755 252.351 147.631 252.205 148.508 252.038C149.266 251.899 149.953 251.505 150.455 250.92C150.956 250.335 151.242 249.596 151.262 248.826C151.294 248.2 151.294 247.574 151.262 246.948C151.262 238.201 151.262 229.448 151.262 220.687C151.251 219.623 151.104 218.564 150.824 217.537C150.696 217.066 150.428 216.644 150.056 216.327C149.683 216.011 149.224 215.815 148.737 215.764C147.506 215.597 146.275 215.389 145.189 215.201C144.688 214.304 144.918 213.741 145.67 213.595C146.543 213.431 147.431 213.361 148.32 213.386H173.781C174.789 213.274 175.808 213.47 176.703 213.95C177.369 216.621 177.602 219.381 177.391 222.126C177.403 222.238 177.391 222.351 177.357 222.458C177.322 222.565 177.266 222.664 177.191 222.749C177.117 222.833 177.026 222.901 176.924 222.948C176.822 222.995 176.711 223.021 176.598 223.023C176.391 222.997 176.191 222.926 176.015 222.814C175.838 222.702 175.688 222.553 175.576 222.377C175.295 221.701 175.071 221.003 174.908 220.291C174.722 219.697 174.491 219.119 174.219 218.559C173.98 218.023 173.596 217.564 173.109 217.236C172.621 216.907 172.052 216.723 171.464 216.703H170.129H160.487C159.952 216.671 159.415 216.671 158.88 216.703C158.562 216.719 158.263 216.855 158.042 217.083C157.821 217.312 157.695 217.616 157.69 217.934C157.69 218.392 157.69 218.83 157.69 219.289V228.926C157.665 229.459 157.714 229.993 157.836 230.511C157.969 230.829 158.204 231.094 158.504 231.262C158.745 231.374 159.011 231.424 159.276 231.408H169.21C169.839 231.438 170.458 231.245 170.958 230.864C171.458 230.482 171.807 229.936 171.944 229.323C172.068 228.716 172.25 228.122 172.487 227.55C172.607 227.382 172.759 227.241 172.935 227.133C173.111 227.026 173.306 226.955 173.51 226.924C173.676 226.95 173.834 227.017 173.969 227.119C174.104 227.221 174.211 227.354 174.282 227.508C174.486 228.005 174.6 228.535 174.616 229.072C174.616 231.846 174.616 234.6 174.616 237.416C174.579 238.04 174.438 238.653 174.198 239.231C174.14 239.343 174.054 239.439 173.948 239.509C173.842 239.578 173.72 239.619 173.593 239.627C173.425 239.638 173.257 239.614 173.099 239.557C172.94 239.499 172.796 239.409 172.675 239.293C172.443 238.817 172.274 238.312 172.174 237.791C171.381 235.33 170.525 234.642 168 234.579C165.475 234.516 162.449 234.579 159.652 234.579H159.13C158.951 234.57 158.771 234.599 158.604 234.664C158.436 234.729 158.284 234.829 158.158 234.957C158.031 235.085 157.934 235.238 157.871 235.407C157.809 235.576 157.783 235.755 157.795 235.935C157.795 236.394 157.795 236.832 157.795 237.291V247.616C157.763 248.06 157.763 248.506 157.795 248.951C157.805 249.584 158.062 250.188 158.51 250.635C158.957 251.083 159.562 251.339 160.195 251.35H161.009C164.39 251.35 167.791 251.35 171.193 251.35C172.512 251.425 173.818 251.054 174.9 250.297C175.983 249.541 176.78 248.442 177.162 247.178C177.496 246.258 177.886 245.359 178.33 244.487C178.439 244.356 178.577 244.253 178.733 244.184C178.888 244.115 179.058 244.083 179.228 244.091C179.729 244.091 179.979 244.508 180.083 244.967C180.094 245.057 180.094 245.148 180.083 245.238C179.912 248.151 179.472 251.042 178.769 253.873Z" fill="white"/>
<path d="M127.889 216.828C127.075 216.828 126.386 216.641 125.802 216.62C121.774 216.62 117.767 216.453 113.739 216.432C112.669 216.481 111.603 216.593 110.546 216.766C109.871 216.829 109.236 217.112 108.738 217.572C108.24 218.032 107.908 218.643 107.791 219.311C107.604 220.082 107.458 220.875 107.27 221.647C107.228 221.996 107.107 222.332 106.915 222.627C106.676 222.864 106.354 222.999 106.018 223.003C105.83 223.003 105.558 222.731 105.454 222.523C105.342 222.274 105.292 222.002 105.308 221.73C105.308 219.644 105.308 217.558 105.308 215.472C105.308 213.762 105.871 213.387 107.645 213.22H133.044C133.938 213.233 134.831 213.31 135.715 213.449C135.869 213.478 136.016 213.539 136.146 213.627C136.275 213.716 136.384 213.831 136.467 213.965C136.55 214.098 136.603 214.247 136.625 214.403C136.646 214.558 136.635 214.717 136.591 214.868C136.333 215.612 135.968 216.315 135.506 216.953C132.522 221.125 129.475 225.151 126.449 229.239L111.548 249.702C111.277 250.057 111.068 250.432 110.88 250.724C111.089 251.433 111.59 251.371 112.007 251.371C118.08 251.371 124.174 251.371 130.247 251.371C131.387 251.486 132.527 251.162 133.435 250.464C134.343 249.765 134.95 248.747 135.131 247.616C135.569 246.177 135.861 244.675 136.258 243.215C136.361 242.878 136.532 242.566 136.758 242.297C136.859 242.211 136.978 242.149 137.107 242.116C137.235 242.084 137.37 242.082 137.499 242.11C137.629 242.138 137.75 242.196 137.853 242.279C137.956 242.363 138.039 242.469 138.094 242.589C138.205 243.018 138.255 243.46 138.24 243.903C138.073 246.837 137.885 249.778 137.677 252.726C137.677 253.832 137.113 254.207 135.903 254.312C135.381 254.312 134.838 254.312 134.296 254.312H105.913C105.218 254.361 104.521 254.361 103.826 254.312C103.626 254.29 103.433 254.222 103.264 254.111C103.095 254.001 102.955 253.852 102.855 253.676C102.755 253.501 102.699 253.305 102.69 253.103C102.681 252.902 102.72 252.701 102.804 252.518C103.197 251.724 103.666 250.97 104.202 250.265L116.223 233.807C119.77 228.982 123.311 224.157 126.845 219.331C127.176 219.004 127.438 218.614 127.618 218.184C127.797 217.755 127.889 217.294 127.889 216.828Z" fill="white"/>
<path d="M9.91271 254.354C7.40836 254.354 4.90409 254.354 2.42061 254.354C1.37713 254.354 0.855239 253.874 0.959586 253.227C1.06393 252.581 1.75274 252.393 2.37883 252.351C2.65013 252.351 2.92145 252.351 3.17188 252.351C5.25884 252.038 5.80134 251.371 5.92655 249.389C5.92655 249.035 5.92655 248.68 5.92655 248.325C5.92655 238.967 5.92655 229.601 5.92655 220.229C5.92655 219.332 5.92671 218.435 5.82236 217.538C5.80446 217.085 5.6235 216.654 5.31285 216.325C5.00219 215.995 4.58266 215.789 4.1318 215.744C2.98397 215.577 1.8361 215.494 0.688272 215.285C0.525461 215.247 0.373337 215.173 0.243214 215.069C0.113091 214.964 0.00838121 214.831 -0.063002 214.68C-0.128298 214.464 -0.105597 214.232 -7.74119e-05 214.032C0.105442 213.833 0.285286 213.684 0.500517 213.616C0.74505 213.502 1.0053 213.424 1.27268 213.387C1.62716 213.366 1.98256 213.366 2.33705 213.387L15.1719 212.907C18.2081 212.843 21.2393 213.18 24.1874 213.908C26.1075 214.345 27.9184 215.168 29.5093 216.328C30.7923 217.23 31.8407 218.426 32.5668 219.816C33.293 221.206 33.6757 222.749 33.6832 224.317C33.8593 226.743 33.2507 229.162 31.9468 231.217C30.6429 233.271 28.7129 234.852 26.4415 235.727C24.0988 236.831 21.5394 237.401 18.9491 237.395C17.1544 237.395 15.3806 237.395 13.5858 237.395C12.6675 237.395 12.271 237.771 12.271 238.71C12.271 241.922 12.1666 245.134 12.271 248.346C12.271 251.141 13.6901 252.289 16.4449 252.518C17.2486 252.535 18.0504 252.605 18.8449 252.727C19.0028 252.791 19.138 252.9 19.2332 253.041C19.3284 253.183 19.3792 253.349 19.3792 253.519C19.3792 253.69 19.3284 253.856 19.2332 253.997C19.138 254.138 19.0028 254.248 18.8449 254.312C18.2491 254.489 17.6298 254.573 17.0084 254.562C14.5875 254.562 12.1876 254.562 9.76674 254.562L9.91271 254.354ZM12.271 225.151C12.271 226.778 12.271 228.384 12.271 229.99C12.271 231.242 12.271 232.494 12.271 233.745C12.271 234.997 12.6883 235.163 13.7526 235.226C14.8223 235.309 15.897 235.309 16.9666 235.226C18.9091 235.168 20.7925 234.545 22.3863 233.433C23.9801 232.322 25.2153 230.77 25.9406 228.968C26.8089 227.004 27.0983 224.834 26.7752 222.711C26.6802 221.043 26.066 219.446 25.0182 218.145C23.9704 216.843 22.5416 215.902 20.9319 215.452C19.1388 214.884 17.2595 214.637 15.3805 214.722C14.8473 214.751 14.317 214.82 13.7944 214.93C12.6466 215.202 12.3127 215.577 12.2919 216.787C12.2919 219.603 12.3337 222.377 12.3337 225.13L12.271 225.151Z" fill="white"/>
<path d="M90.4485 254.374C88.4867 254.374 86.5251 254.374 84.5425 254.374C84.1048 254.406 83.6654 254.406 83.2277 254.374C83.0001 254.372 82.7807 254.289 82.6086 254.14C82.4366 253.991 82.3233 253.786 82.2887 253.561C82.2648 253.43 82.269 253.295 82.3014 253.165C82.3338 253.036 82.3935 252.915 82.4764 252.81C82.5594 252.705 82.6636 252.62 82.7824 252.558C82.9011 252.497 83.0316 252.462 83.165 252.455L84.4589 252.101C85.1615 251.924 85.7852 251.519 86.2313 250.948C86.6773 250.378 86.9203 249.675 86.9217 248.951C86.9529 248.333 86.9529 247.713 86.9217 247.095V220.228C86.9846 219.604 86.9846 218.975 86.9217 218.351C86.8532 217.723 86.5852 217.133 86.1571 216.667C85.7291 216.202 85.1633 215.886 84.5425 215.765C84.0265 215.658 83.5177 215.518 83.0191 215.347C82.5808 215.181 82.2258 214.889 82.3093 214.346C82.3928 213.804 82.8103 213.637 83.2486 213.533C83.6003 213.464 83.9557 213.415 84.313 213.387H96.6261C97.1583 213.391 97.6839 213.505 98.1704 213.72C98.3042 213.82 98.4133 213.949 98.4893 214.097C98.5653 214.245 98.6061 214.409 98.6086 214.576C98.5898 214.699 98.5396 214.816 98.4628 214.914C98.3861 215.013 98.2855 215.09 98.1704 215.139C97.4946 215.384 96.7952 215.559 96.0834 215.66C95.3831 215.731 94.73 216.046 94.238 216.549C93.746 217.052 93.4462 217.712 93.3912 218.414C93.2727 219.102 93.2239 219.801 93.2452 220.5V247.825C93.2452 250.891 94.0381 251.788 96.9807 252.393C97.2311 252.393 97.5024 252.393 97.7737 252.393C97.9976 252.424 98.2001 252.542 98.337 252.722C98.4738 252.902 98.5338 253.128 98.5041 253.352C98.4988 253.578 98.4072 253.792 98.2478 253.951C98.0885 254.11 97.8739 254.202 97.6486 254.208C96.5008 254.208 95.332 254.208 94.1842 254.333C93.0364 254.458 91.7007 254.374 90.4485 254.374Z" fill="white"/>
<path d="M85.1896 35.21C85.3211 33.3265 86.1597 31.5621 87.5374 30.2703C88.9151 28.9784 90.7302 28.2544 92.6193 28.2432C94.5857 28.2749 96.4637 29.0655 97.8601 30.4496C99.2566 31.8336 100.063 33.7039 100.111 35.6689C99.999 37.6351 99.1348 39.4829 97.6976 40.8301C96.2603 42.1773 94.3601 42.9209 92.3897 42.907C90.4171 42.8308 88.5542 41.9796 87.206 40.5384C85.8578 39.0971 85.1331 37.1823 85.1896 35.21Z" fill="white"/>
<path d="M110.317 70.6495C112.283 70.6378 114.176 71.3947 115.591 72.7587C117.006 74.1228 117.832 75.9859 117.892 77.9502C117.783 79.8336 116.996 81.614 115.676 82.9632C114.357 84.3125 112.595 85.1397 110.713 85.2925C108.754 85.2623 106.873 84.5155 105.427 83.1933C103.981 81.8711 103.07 80.0652 102.866 78.117C102.919 76.1567 103.72 74.2907 105.105 72.9021C106.491 71.5134 108.355 70.7075 110.317 70.6495Z" fill="white"/>
<path d="M57.0783 77.7411C57.0838 78.719 56.8966 79.6884 56.5272 80.594C56.1579 81.4996 55.6135 82.3235 54.9256 83.0189C54.2376 83.7143 53.4195 84.2674 52.5176 84.6467C51.6158 85.026 50.6481 85.224 49.6697 85.2294C48.6932 85.252 47.7219 85.0774 46.8144 84.7162C45.907 84.3549 45.0818 83.8144 44.3881 83.127C43.6945 82.4395 43.1469 81.6193 42.7778 80.7154C42.4087 79.8115 42.2257 78.8424 42.24 77.8662C42.2811 75.9864 43.038 74.1931 44.3565 72.852C45.6751 71.5108 47.456 70.723 49.3357 70.6491C51.2988 70.5808 53.2102 71.2857 54.6583 72.6122C56.1065 73.9387 56.9755 75.7805 57.0783 77.7411Z" fill="white"/>
<path d="M92.7239 102.5C91.7454 102.58 90.761 102.453 89.8355 102.125C88.91 101.797 88.0645 101.277 87.3547 100.599C86.6448 99.9215 86.0866 99.1009 85.7171 98.1917C85.3476 97.2826 85.1749 96.3055 85.2107 95.3248C85.2241 94.3845 85.4247 93.4562 85.8004 92.594C86.1761 91.7318 86.7195 90.9529 87.3993 90.3026C88.079 89.6523 88.8813 89.1437 89.7596 88.8062C90.6378 88.4688 91.5745 88.3093 92.515 88.3371C93.4926 88.3008 94.4675 88.4606 95.3823 88.807C96.297 89.1535 97.1331 89.6795 97.8412 90.3542C98.5492 91.0288 99.115 91.8384 99.505 92.7351C99.8949 93.6318 100.101 94.5974 100.112 95.5751C100.09 96.5174 99.8812 97.446 99.4966 98.3066C99.112 99.1672 98.5596 99.9425 97.8717 100.587C97.1839 101.232 96.3745 101.733 95.4905 102.062C94.6066 102.39 93.6661 102.539 92.7239 102.5Z" fill="white"/>
<path d="M74.9221 35.3976C74.8697 37.3801 74.0597 39.2672 72.6586 40.6715C71.2575 42.0758 69.3716 42.8906 67.3883 42.9485C65.6079 42.7599 63.9571 41.9297 62.7446 40.6131C61.532 39.2965 60.8407 37.5836 60.7998 35.7946C60.7589 34.0056 61.3711 32.2629 62.5222 30.8923C63.6733 29.5217 65.2844 28.617 67.0543 28.3473C69.0207 28.2876 70.9348 28.9865 72.3996 30.2991C73.8644 31.6117 74.7676 33.4374 74.9221 35.3976Z" fill="white"/>
<path d="M49.5652 60.1573C48.5897 60.2036 47.6152 60.0481 46.7025 59.7006C45.7899 59.3531 44.9586 58.821 44.2612 58.1376C43.5638 57.4543 43.0151 56.6344 42.6494 55.7292C42.2836 54.8241 42.1086 53.8533 42.1355 52.8775C42.2772 50.9632 43.1532 49.1776 44.5804 47.8932C46.0076 46.6088 47.8759 45.9248 49.7955 45.984C51.7151 46.0432 53.5377 46.841 54.883 48.2109C56.2282 49.5808 56.9921 51.4171 57.0155 53.3364C56.9181 55.2233 56.0823 56.9962 54.6883 58.2723C53.2944 59.5485 51.4543 60.2255 49.5652 60.1573Z" fill="white"/>
<path d="M110.9 46.0772C111.839 46.088 112.765 46.285 113.626 46.657C114.487 47.029 115.266 47.5684 115.916 48.2439C116.567 48.9194 117.077 49.7175 117.416 50.5917C117.755 51.4659 117.917 52.3988 117.892 53.3361C117.892 57.3619 114.365 60.1153 109.941 60.157C108.049 60.1024 106.255 59.3058 104.947 57.9396C103.639 56.5734 102.921 54.7473 102.949 52.8564C102.979 51.8729 103.214 50.9066 103.64 50.0196C104.066 49.1326 104.673 48.3444 105.422 47.7059C106.171 47.0674 107.045 46.5926 107.989 46.3121C108.932 46.0316 109.924 45.9516 110.9 46.0772Z" fill="white"/>
<path d="M67.4292 102.5C66.4554 102.545 65.4828 102.386 64.5739 102.034C63.665 101.682 62.8398 101.144 62.1505 100.455C61.4612 99.766 60.9231 98.941 60.5707 98.0325C60.2183 97.1241 60.0595 96.1522 60.104 95.1789C60.1159 94.2419 60.3191 93.3173 60.7012 92.4616C61.0832 91.6058 61.6358 90.8371 62.3255 90.2024C63.0152 89.5677 63.8273 89.0805 64.712 88.7705C65.5968 88.4605 66.5355 88.3344 67.4708 88.3998C68.4427 88.325 69.4197 88.4518 70.3403 88.7722C71.2609 89.0926 72.1054 89.5997 72.8206 90.2617C73.5359 90.9237 74.1066 91.7262 74.4969 92.6191C74.8872 93.5119 75.0887 94.4757 75.0887 95.4501C75.0887 96.4244 74.8872 97.3882 74.4969 98.2811C74.1066 99.1739 73.5359 99.9765 72.8206 100.638C72.1054 101.3 71.2609 101.808 70.3403 102.128C69.4197 102.448 68.4427 102.575 67.4708 102.5H67.4292Z" fill="white"/>
<path d="M31.3256 72.5469C32.7366 72.5783 34.0816 73.1497 35.0835 74.1433C36.0853 75.1369 36.6674 76.4768 36.7098 77.8868C36.6654 79.2973 36.0947 80.6401 35.11 81.6514C34.1252 82.6626 32.7977 83.2692 31.3882 83.3518C29.8969 83.3356 28.4709 82.7377 27.4143 81.6856C26.3578 80.6335 25.7541 79.2104 25.7324 77.7199C25.8379 76.3108 26.4734 74.9938 27.5111 74.0341C28.5488 73.0743 29.9118 72.543 31.3256 72.5469Z" fill="white"/>
<path d="M98.1286 17.6675C98.0424 19.0914 97.4025 20.4251 96.3458 21.3839C95.2891 22.3426 93.8993 22.8504 92.473 22.7988C91.7769 22.7783 91.0916 22.6209 90.4564 22.3357C89.8211 22.0504 89.2481 21.6429 88.7704 21.1364C88.2927 20.6299 87.9196 20.0343 87.6721 19.3836C87.4247 18.733 87.3079 18.04 87.3285 17.3442C87.349 16.6485 87.5065 15.9636 87.7919 15.3286C88.0773 14.6937 88.485 14.1211 88.9918 13.6437C89.4985 13.1662 90.0945 12.7932 90.7455 12.5459C91.3965 12.2987 92.0897 12.182 92.7859 12.2025C94.2159 12.2299 95.578 12.8184 96.5776 13.8409C97.5773 14.8634 98.1343 16.2379 98.1286 17.6675Z" fill="white"/>
<path d="M110.901 108.487C110.815 109.906 110.182 111.235 109.134 112.196C108.087 113.157 106.708 113.675 105.287 113.64C104.574 113.607 103.875 113.434 103.229 113.131C102.584 112.828 102.004 112.401 101.524 111.874C101.043 111.347 100.671 110.731 100.428 110.06C100.186 109.39 100.078 108.678 100.111 107.966C100.144 107.254 100.317 106.555 100.62 105.91C100.923 105.264 101.351 104.685 101.878 104.204C102.405 103.724 103.021 103.352 103.692 103.11C104.363 102.868 105.075 102.76 105.788 102.793C107.212 102.895 108.542 103.545 109.495 104.608C110.449 105.67 110.953 107.061 110.901 108.487Z" fill="white"/>
<path d="M128.869 40.1321C128.89 41.5404 128.377 42.9044 127.432 43.9494C126.487 44.9944 125.181 45.6428 123.777 45.764C122.287 45.7771 120.85 45.217 119.762 44.1996C118.674 43.1822 118.019 41.7855 117.934 40.2989C118.041 38.8946 118.65 37.5757 119.65 36.5836C120.65 35.5916 121.975 34.9927 123.381 34.8965C124.789 34.9101 126.14 35.4586 127.159 36.4308C128.179 37.403 128.79 38.7262 128.869 40.1321Z" fill="white"/>
<path d="M42.0518 40.3615C42.0059 41.7746 41.4278 43.1182 40.4334 44.1238C39.439 45.1293 38.1014 45.7225 36.6882 45.7848C35.2023 45.7313 33.7943 45.1075 32.7566 44.0431C31.7189 42.9787 31.1313 41.5556 31.1162 40.0695C31.2639 38.6655 31.9207 37.3642 32.9627 36.4112C34.0046 35.4581 35.3596 34.9193 36.7718 34.8965C38.1805 34.9702 39.509 35.5752 40.4889 36.5895C41.4688 37.6038 42.0274 38.9518 42.0518 40.3615Z" fill="white"/>
<path d="M123.36 78.0125C123.349 77.305 123.478 76.6024 123.74 75.9451C124.002 75.2877 124.392 74.6888 124.887 74.1827C125.381 73.6765 125.971 73.2733 126.623 72.9963C127.274 72.7192 127.974 72.5738 128.682 72.5684C130.107 72.5902 131.473 73.1435 132.512 74.1198C133.55 75.096 134.187 76.4249 134.296 77.8457C134.218 79.2667 133.624 80.6104 132.624 81.6244C131.625 82.6384 130.29 83.2529 128.87 83.3524C127.446 83.3227 126.087 82.7555 125.065 81.7649C124.042 80.7743 123.434 79.4336 123.36 78.0125Z" fill="white"/>
<path d="M54.3027 28.0139C52.8851 27.9815 51.5355 27.4 50.5387 26.392C49.5419 25.3841 48.9758 24.0285 48.96 22.6114C49.0461 21.1895 49.6822 19.8568 50.7338 18.8952C51.7854 17.9337 53.1702 17.4187 54.5949 17.4593C56.0194 17.4866 57.3759 18.0729 58.3716 19.0915C59.3674 20.1102 59.9222 21.4794 59.9165 22.9034C59.8844 23.6077 59.7138 24.2986 59.4141 24.9368C59.1144 25.575 58.6916 26.1478 58.1701 26.6225C57.6487 27.0972 57.0388 27.4644 56.3751 27.7032C55.7115 27.9419 55.0072 28.0475 54.3027 28.0139Z" fill="white"/>
<path d="M62.0871 17.6887C62.0533 16.9856 62.1618 16.283 62.406 15.6227C62.6502 14.9625 63.0252 14.3583 63.5083 13.8462C63.9915 13.3341 64.5729 12.9246 65.218 12.6422C65.8631 12.3599 66.5585 12.2104 67.2627 12.2028C68.6794 12.1595 70.0594 12.6574 71.1217 13.5952C72.184 14.533 72.8489 15.8402 72.9809 17.2507C72.9676 18.6719 72.4151 20.0351 71.4351 21.065C70.455 22.0949 69.1204 22.7146 67.7009 22.7991C66.9963 22.8328 66.2923 22.7272 65.6287 22.4885C64.965 22.2497 64.3549 21.8825 63.8334 21.4078C63.3119 20.9331 62.8894 20.3603 62.5897 19.7221C62.29 19.0839 62.1192 18.3929 62.0871 17.6887Z" fill="white"/>
<path d="M54.6155 102.771C56.0336 102.89 57.3577 103.528 58.3326 104.564C59.3076 105.6 59.8641 106.96 59.8953 108.382C59.7859 109.801 59.149 111.128 58.11 112.101C57.071 113.073 55.7052 113.622 54.2815 113.639C53.5418 113.656 52.8062 113.522 52.1199 113.246C51.4336 112.969 50.8107 112.556 50.2895 112.031C49.7683 111.506 49.3597 110.88 49.0883 110.192C48.817 109.504 48.6888 108.768 48.7116 108.029C48.7343 107.29 48.9072 106.563 49.2203 105.893C49.5334 105.223 49.9798 104.623 50.5323 104.131C51.0848 103.639 51.7318 103.265 52.4338 103.031C53.1358 102.797 53.8782 102.709 54.6155 102.771Z" fill="white"/>
<path d="M123.631 95.8888C122.217 95.9706 120.827 95.5011 119.753 94.5791C118.678 93.657 118.004 92.3543 117.871 90.9452C117.857 90.2452 117.983 89.5494 118.241 88.8985C118.499 88.2475 118.883 87.6543 119.373 87.1534C119.862 86.6525 120.447 86.254 121.092 85.9811C121.737 85.7082 122.43 85.5662 123.13 85.5636C123.831 85.4756 124.542 85.5361 125.218 85.7411C125.894 85.9462 126.519 86.2911 127.052 86.7535C127.586 87.2159 128.016 87.7854 128.315 88.4249C128.613 89.0645 128.774 89.7597 128.786 90.4654C128.832 91.1667 128.733 91.8698 128.493 92.5307C128.254 93.1915 127.881 93.7957 127.397 94.3052C126.912 94.8146 126.328 95.2184 125.68 95.4909C125.032 95.7635 124.334 95.8989 123.631 95.8888Z" fill="white"/>
<path d="M42.0522 90.4856C42.0925 91.188 41.9873 91.8911 41.7432 92.5509C41.4991 93.2108 41.1213 93.8132 40.6335 94.3203C40.1457 94.8274 39.5583 95.2285 38.9083 95.4982C38.2582 95.768 37.5595 95.9007 36.8557 95.8881C35.4415 95.9533 34.0563 95.4718 32.9878 94.5436C31.9192 93.6154 31.2491 92.3116 31.1166 90.9028C31.1083 90.2028 31.2394 89.5081 31.5023 88.8592C31.7652 88.2103 32.1546 87.6202 32.6479 87.1233C33.1413 86.6263 33.7288 86.2324 34.3759 85.9645C35.0231 85.6966 35.7168 85.5601 36.4173 85.563C37.1181 85.478 37.8291 85.5414 38.5037 85.7491C39.1784 85.9568 39.8016 86.3041 40.3331 86.7684C40.8646 87.2328 41.2924 87.8037 41.5886 88.4441C41.8847 89.0846 42.0427 89.7802 42.0522 90.4856Z" fill="white"/>
<path d="M106.143 17.5845C106.848 17.6262 107.536 17.8138 108.164 18.1355C108.792 18.4571 109.347 18.9058 109.792 19.453C110.238 20.0003 110.564 20.6341 110.752 21.3143C110.939 21.9944 110.983 22.7061 110.88 23.4041C110.815 24.1042 110.606 24.7835 110.268 25.4001C109.93 26.0167 109.469 26.5576 108.914 26.9895C108.359 27.4213 107.721 27.735 107.04 27.9112C106.359 28.0874 105.649 28.1223 104.954 28.0139C103.631 27.8472 102.41 27.2171 101.508 26.2355C100.606 25.254 100.082 23.9847 100.028 22.6532C100.085 21.9148 100.29 21.1953 100.631 20.5377C100.972 19.88 101.441 19.2974 102.012 18.8246C102.582 18.3518 103.242 17.9984 103.951 17.7854C104.661 17.5723 105.406 17.504 106.143 17.5845Z" fill="white"/>
<path d="M128.744 58.1965C128.044 58.2412 127.342 58.1419 126.681 57.9048C126.021 57.6676 125.416 57.2977 124.904 56.8178C124.393 56.3379 123.985 55.7582 123.706 55.1146C123.427 54.471 123.283 53.777 123.283 53.0756C123.283 52.3742 123.427 51.6803 123.706 51.0366C123.985 50.393 124.393 49.8133 124.904 49.3334C125.416 48.8535 126.021 48.4836 126.681 48.2465C127.342 48.0093 128.044 47.9101 128.744 47.9548C129.444 47.9101 130.147 48.0093 130.807 48.2465C131.468 48.4836 132.072 48.8535 132.584 49.3334C133.096 49.8133 133.504 50.393 133.783 51.0366C134.062 51.6803 134.205 52.3742 134.205 53.0756C134.205 53.777 134.062 54.471 133.783 55.1146C133.504 55.7582 133.096 56.3379 132.584 56.8178C132.072 57.2977 131.468 57.6676 130.807 57.9048C130.147 58.1419 129.444 58.2412 128.744 58.1965Z" fill="white"/>
<path d="M62.087 113.618C62.073 112.921 62.1991 112.228 62.4577 111.581C62.7162 110.933 63.102 110.344 63.5923 109.848C64.0827 109.352 64.6674 108.96 65.3122 108.694C65.9569 108.427 66.6486 108.293 67.3462 108.299C68.7474 108.319 70.0919 108.856 71.1206 109.807C72.1493 110.758 72.7895 112.056 72.9182 113.451C72.8908 114.858 72.3109 116.198 71.3035 117.182C70.2961 118.165 68.9421 118.713 67.5339 118.708C66.8353 118.759 66.1334 118.666 65.4727 118.433C64.8119 118.201 64.2068 117.834 63.695 117.355C63.1832 116.877 62.7762 116.298 62.4994 115.655C62.2227 115.012 62.0822 114.318 62.087 113.618Z" fill="white"/>
<path d="M92.7234 118.687C92.0382 118.699 91.3572 118.577 90.7195 118.326C90.0817 118.075 89.4997 117.702 89.0065 117.226C88.5133 116.751 88.1187 116.183 87.8451 115.555C87.5715 114.927 87.4243 114.251 87.412 113.566C87.3996 112.881 87.5224 112.201 87.7732 111.564C88.024 110.926 88.398 110.344 88.8738 109.851C89.3495 109.358 89.9177 108.964 90.546 108.691C91.1743 108.417 91.8502 108.27 92.5354 108.258C93.9441 108.212 95.3141 108.723 96.3491 109.679C97.384 110.636 98.0008 111.961 98.0658 113.368C98.0743 114.071 97.9418 114.768 97.6761 115.418C97.4103 116.069 97.0168 116.66 96.5187 117.155C96.0206 117.651 95.4281 118.042 94.7762 118.305C94.1243 118.569 93.4263 118.698 92.7234 118.687Z" fill="white"/>
<path d="M31.0538 58.2167C30.3537 58.2307 29.6578 58.1042 29.0074 57.8447C28.357 57.5852 27.7653 57.198 27.2672 56.706C26.7691 56.214 26.3748 55.6272 26.1075 54.9802C25.8403 54.3333 25.7054 53.6393 25.7111 52.9394C25.8078 51.53 26.4551 50.2152 27.5133 49.2786C28.5714 48.342 29.9555 47.8588 31.3669 47.9333C32.065 47.9152 32.7593 48.0414 33.4063 48.3039C34.0532 48.5665 34.639 48.9597 35.1269 49.4591C35.6147 49.9584 35.994 50.5531 36.2412 51.2058C36.4884 51.8585 36.5982 52.5552 36.5634 53.2523C36.5643 53.9515 36.4181 54.6431 36.1342 55.2821C35.8502 55.9211 35.435 56.4933 34.9154 56.9615C34.3958 57.4297 33.7834 57.7834 33.1181 57.9996C32.4529 58.2159 31.7496 58.2899 31.0538 58.2167Z" fill="white"/>
<path d="M18.261 73.4652C19.4316 73.4895 20.55 73.9538 21.3933 74.7657C22.2365 75.5776 22.7427 76.6773 22.8107 77.8456C22.7631 79.0894 22.2416 80.2681 21.3533 81.1405C20.4649 82.0129 19.2767 82.5131 18.0315 82.5388C16.8684 82.4347 15.7774 81.9309 14.9441 81.1132C14.1108 80.2956 13.5866 79.2145 13.4609 78.0542C13.469 77.4361 13.6002 76.8259 13.8469 76.2591C14.0936 75.6923 14.4509 75.1803 14.8978 74.753C15.3447 74.3258 15.8722 73.9919 16.4497 73.7707C17.0272 73.5496 17.6429 73.4457 18.261 73.4652Z" fill="white"/>
<path d="M18.0101 48.7059C19.1956 48.6419 20.3596 49.0416 21.2555 49.8202C22.1514 50.5988 22.709 51.6953 22.8102 52.8776C22.8176 54.0638 22.3692 55.2076 21.5576 56.073C20.7461 56.9385 19.6331 57.4597 18.4483 57.5292C17.8225 57.5773 17.1935 57.499 16.5985 57.2989C16.0036 57.0988 15.4551 56.7809 14.9857 56.3644C14.5163 55.9478 14.1355 55.441 13.8663 54.8742C13.5971 54.3074 13.4451 53.6922 13.4189 53.0654C13.4677 51.8849 13.9741 50.7698 14.8311 49.9561C15.688 49.1424 16.8282 48.694 18.0101 48.7059Z" fill="white"/>
<path d="M32.0349 99.9766C31.9906 101.221 31.4534 102.398 30.5415 103.246C29.6296 104.095 28.4177 104.547 27.1724 104.503C25.927 104.459 24.7501 103.922 23.9008 103.01C23.0515 102.099 22.5993 100.888 22.6436 99.6429C22.7936 98.4081 23.3981 97.2733 24.3395 96.4597C25.2809 95.6461 26.4917 95.2119 27.7359 95.2417C28.8992 95.3901 29.9713 95.9486 30.7593 96.8166C31.5474 97.6845 31.9996 98.8051 32.0349 99.9766Z" fill="white"/>
<path d="M27.6107 35.5641C26.4264 35.6532 25.2533 35.2822 24.3359 34.5284C23.4184 33.7746 22.8273 32.6961 22.6855 31.5175C22.6925 30.254 23.1751 29.0395 24.0375 28.1157C24.8999 27.1919 26.0788 26.6266 27.3394 26.5322C28.5258 26.5808 29.6526 27.0653 30.5037 27.8929C31.3548 28.7205 31.8705 29.8329 31.9518 31.0169C31.98 31.604 31.8885 32.1906 31.683 32.7413C31.4775 33.2921 31.1624 33.7953 30.7565 34.2205C30.3505 34.6458 29.8624 34.9841 29.3217 35.2151C28.7809 35.4461 28.1988 35.5648 27.6107 35.5641Z" fill="white"/>
<path d="M141.767 73.4857C142.941 73.4576 144.083 73.8704 144.968 74.6427C145.853 75.415 146.416 76.4907 146.546 77.6575C146.525 78.9147 146.022 80.1158 145.141 81.0126C144.259 81.9094 143.066 82.4333 141.809 82.4759C140.627 82.4336 139.506 81.9412 138.676 81.0997C137.846 80.2582 137.369 79.1312 137.343 77.9495C137.353 76.7761 137.822 75.6532 138.648 74.8196C139.474 73.986 140.593 73.5074 141.767 73.4857Z" fill="white"/>
<path d="M97.2315 5.02716C97.0622 6.21536 96.459 7.29893 95.5381 8.06917C94.6172 8.83941 93.4437 9.24183 92.2436 9.19894C90.9979 9.05228 89.8607 8.41994 89.079 7.43948C88.2974 6.45901 87.9346 5.20972 88.0697 3.96336C88.3197 2.80242 88.9865 1.77315 89.9439 1.06988C90.9013 0.366622 92.083 0.0380394 93.2662 0.146179C94.4082 0.338152 95.441 0.939789 96.1709 1.83833C96.9009 2.73688 97.278 3.87065 97.2315 5.02716Z" fill="white"/>
<path d="M44.9948 9.30287C45.5812 9.21994 46.1784 9.26267 46.747 9.42823C47.3156 9.59378 47.8423 9.87838 48.2924 10.2631C48.7424 10.6478 49.1054 11.1239 49.3573 11.6596C49.6091 12.1953 49.7439 12.7785 49.7529 13.3704C49.7752 13.9964 49.6726 14.6205 49.4507 15.2064C49.2289 15.7922 48.8924 16.328 48.461 16.7824C48.0297 17.2369 47.512 17.6008 46.9383 17.853C46.3647 18.1052 45.7465 18.2406 45.1199 18.2513C43.939 18.1759 42.8242 17.6799 41.978 16.8532C41.1318 16.0266 40.6103 14.9241 40.5078 13.7458C40.5188 12.5637 40.9963 11.4337 41.8366 10.6016C42.6769 9.76958 43.812 9.30282 44.9948 9.30287Z" fill="white"/>
<path d="M141.892 57.4455C141.317 57.4917 140.738 57.418 140.192 57.2291C139.647 57.0402 139.146 56.7403 138.722 56.3482C138.299 55.9561 137.961 55.4804 137.731 54.9512C137.5 54.422 137.382 53.8508 137.384 53.2737C137.344 52.7018 137.422 52.1278 137.614 51.5874C137.806 51.0471 138.107 50.552 138.499 50.1332C138.89 49.7143 139.364 49.3806 139.891 49.153C140.417 48.9253 140.985 48.8085 141.558 48.8099C142.164 48.7357 142.778 48.7886 143.362 48.9653C143.946 49.142 144.486 49.4385 144.948 49.8359C145.411 50.2333 145.786 50.7229 146.048 51.2732C146.31 51.8236 146.455 52.4226 146.473 53.032C146.49 53.6414 146.38 54.2478 146.15 54.8123C145.919 55.3768 145.573 55.887 145.134 56.3102C144.695 56.7335 144.173 57.0605 143.6 57.2704C143.028 57.4803 142.417 57.5683 141.809 57.5289L141.892 57.4455Z" fill="white"/>
<path d="M92.2017 130.806C91.0428 130.741 89.9558 130.224 89.175 129.365C88.3942 128.507 87.9822 127.376 88.0278 126.217C88.2065 125.059 88.792 124.004 89.6794 123.239C90.5668 122.474 91.6979 122.051 92.8695 122.045C94.051 122.105 95.1682 122.602 96.0047 123.438C96.8413 124.274 97.3378 125.39 97.3982 126.571C97.371 127.204 97.2099 127.823 96.9259 128.389C96.642 128.955 96.2413 129.454 95.7505 129.854C95.2596 130.254 94.6897 130.546 94.078 130.71C93.4663 130.874 92.827 130.906 92.2017 130.806Z" fill="white"/>
<path d="M62.9223 4.42209C62.9439 3.25242 63.4197 2.137 64.2493 1.31173C65.0789 0.486455 66.1972 0.0160496 67.3675 5.64032e-08C68.6152 -0.000191863 69.8128 0.489398 70.7028 1.36332C71.5928 2.23725 72.104 3.42558 72.1259 4.67239C72.032 5.83717 71.5194 6.92867 70.6832 7.74531C69.8469 8.56196 68.7434 9.04859 67.5762 9.11534C66.9575 9.12985 66.3424 9.01805 65.7684 8.78679C65.1945 8.55553 64.6738 8.20966 64.2381 7.77035C63.8025 7.33103 63.4611 6.80751 63.2349 6.2318C63.0086 5.65608 62.9023 5.04029 62.9223 4.42209Z" fill="white"/>
<path d="M49.6902 117.54C49.6222 118.714 49.1138 119.819 48.2667 120.634C47.4195 121.45 46.2958 121.917 45.1197 121.941C43.8686 121.861 42.6964 121.303 41.8456 120.383C40.9948 119.462 40.5307 118.25 40.5494 116.997C40.6911 115.833 41.2793 114.769 42.1902 114.03C43.1012 113.291 44.2637 112.934 45.4328 113.034C46.0171 113.021 46.5979 113.13 47.1373 113.355C47.6768 113.58 48.1629 113.916 48.5642 114.34C48.9656 114.765 49.2731 115.269 49.4671 115.821C49.661 116.372 49.7372 116.957 49.6902 117.54Z" fill="white"/>
<path d="M67.2836 130.806C66.7038 130.836 66.1244 130.744 65.5821 130.537C65.0398 130.33 64.5465 130.012 64.134 129.604C63.7216 129.195 63.3989 128.706 63.1866 128.166C62.9743 127.626 62.8771 127.047 62.901 126.467C62.9009 125.283 63.3671 124.147 64.199 123.303C65.0309 122.46 66.1616 121.978 67.3463 121.962C68.5981 121.999 69.7879 122.516 70.6695 123.405C71.5512 124.294 72.0575 125.487 72.0837 126.739C71.9774 127.91 71.4146 128.993 70.5167 129.754C69.6188 130.515 68.4576 130.893 67.2836 130.806Z" fill="white"/>
<path d="M114.804 9.32356C115.384 9.26818 115.97 9.335 116.523 9.51971C117.076 9.70442 117.585 10.0029 118.015 10.396C118.446 10.789 118.789 11.2679 119.023 11.8017C119.257 12.3356 119.377 12.9125 119.374 13.4953C119.386 14.1138 119.272 14.7282 119.04 15.3017C118.808 15.8751 118.462 16.3956 118.023 16.8321C117.584 17.2685 117.062 17.6118 116.487 17.8413C115.913 18.0709 115.297 18.1819 114.679 18.1677C113.503 18.0816 112.401 17.5664 111.581 16.7201C110.761 15.8738 110.281 14.7557 110.233 13.5788C110.282 12.4113 110.79 11.3101 111.645 10.5136C112.5 9.71718 113.635 9.28962 114.804 9.32356Z" fill="white"/>
<path d="M132.856 104.295C131.674 104.364 130.511 103.965 129.621 103.184C128.731 102.403 128.183 101.304 128.098 100.123C128.073 99.5231 128.167 98.9242 128.374 98.3605C128.58 97.7969 128.896 97.2795 129.303 96.8379C129.71 96.3962 130.2 96.039 130.746 95.7867C131.291 95.5344 131.88 95.3918 132.48 95.3671C133.08 95.3425 133.68 95.4362 134.244 95.643C134.808 95.8498 135.325 96.1656 135.767 96.5724C136.209 96.9791 136.566 97.4689 136.819 98.0137C137.071 98.5585 137.214 99.1476 137.238 99.7475C137.25 100.928 136.797 102.066 135.977 102.917C135.158 103.767 134.037 104.262 132.856 104.295Z" fill="white"/>
<path d="M132.793 35.5641C132.209 35.6036 131.624 35.5265 131.07 35.3374C130.517 35.1482 130.007 34.8508 129.57 34.4624C129.133 34.074 128.777 33.6025 128.524 33.0754C128.272 32.5483 128.126 31.9761 128.097 31.3923C128.082 30.7924 128.185 30.1954 128.401 29.6354C128.617 29.0754 128.941 28.5634 129.355 28.1285C129.768 27.6937 130.264 27.3446 130.813 27.1011C131.361 26.8576 131.953 26.7245 132.553 26.7094C133.153 26.6944 133.75 26.7976 134.311 27.0133C134.871 27.2289 135.383 27.5528 135.818 27.9663C136.253 28.3798 136.603 28.875 136.846 29.4234C137.09 29.9719 137.223 30.5629 137.238 31.1628C137.25 31.7475 137.142 32.3285 136.922 32.8704C136.703 33.4124 136.375 33.904 135.959 34.3156C135.543 34.7272 135.049 35.05 134.504 35.2647C133.96 35.4793 133.378 35.5811 132.793 35.5641Z" fill="white"/>
<path d="M114.699 113.014C115.285 112.949 115.877 113.009 116.438 113.189C116.998 113.37 117.514 113.667 117.952 114.061C118.39 114.455 118.739 114.937 118.977 115.475C119.215 116.014 119.336 116.597 119.332 117.185C119.36 117.805 119.263 118.423 119.047 119.004C118.83 119.585 118.499 120.116 118.072 120.566C117.645 121.016 117.132 121.375 116.563 121.622C115.995 121.869 115.382 121.999 114.762 122.004C113.597 121.891 112.509 121.375 111.686 120.544C110.862 119.714 110.356 118.621 110.254 117.457C110.259 116.28 110.73 115.153 111.562 114.321C112.395 113.489 113.522 113.019 114.699 113.014Z" fill="white"/>
</g>
<defs>
<clipPath id="clip0_2694_495">
<rect width="180" height="255" fill="white"/>
</clipPath>
</defs>
</svg>
