<svg width="178" height="223" viewBox="0 0 178 223" fill="none" xmlns="http://www.w3.org/2000/svg">
<path d="M40.9472 56.5661C40.9472 49.8888 41.0409 43.2114 40.9472 36.5341C40.7975 34.5964 41.1283 32.6517 41.9103 30.8721C42.6923 29.0925 43.9014 27.5327 45.4307 26.3309C53.0385 20.5584 60.8494 15.02 68.6603 9.49719C69.106 9.32336 69.5856 9.25405 70.0623 9.29463C70.539 9.3352 71 9.48456 71.4097 9.7312C75.2996 12.4926 78.8145 12.0402 82.345 9.12275C85.4694 6.54855 88.9062 4.19275 92.1711 1.72776C92.5715 1.2792 93.1256 0.996751 93.7242 0.936103C94.3228 0.875455 94.9225 1.04102 95.4049 1.40015C106.481 8.71712 117.588 15.9561 128.695 23.2419C129.304 23.6267 129.87 24.0766 130.382 24.5836C130.791 24.9178 131.109 25.3501 131.305 25.8401C131.501 26.3302 131.569 26.8619 131.504 27.3856C131.438 27.9092 131.241 28.4078 130.93 28.8345C130.619 29.2612 130.205 29.6022 129.726 29.8256C125.945 31.8069 122.087 33.6011 118.228 35.4264C116.929 36.101 115.478 36.4309 114.015 36.3845C112.551 36.3381 111.124 35.9168 109.871 35.1612C95.0768 26.2685 78.0959 33.9911 68.3479 43.0866C64.6962 46.1764 62.0794 50.3087 60.8494 54.928C59.2872 61.6833 61.693 67.2061 66.2702 72.0893C69.6758 75.7244 73.2219 79.2503 76.2994 83.1506C77.9769 85.121 79.2466 87.4042 80.035 89.8678C80.8233 92.3315 81.1147 94.9269 80.8922 97.5037C80.5016 101.451 78.0803 103.292 74.3935 101.872C70.2012 100.254 66.1248 98.3517 62.1929 96.1776C56.694 93.1666 51.3514 89.9371 45.9931 86.6141C44.3974 85.7274 43.0811 84.4136 42.1924 82.8205C41.3037 81.2274 40.8779 79.4182 40.9628 77.5965C40.9628 70.6072 40.9628 63.5554 40.9628 56.5973L40.9472 56.5661Z" fill="white"/>
<path d="M136.631 59.9514C136.631 65.755 136.631 71.5431 136.631 77.3312C136.631 83.1192 134.069 85.9898 128.82 87.7216C116.885 91.5751 105.028 95.6158 93.1557 99.6253C92.1017 100.023 91.0998 100.547 90.172 101.185C86.6258 103.448 86.1415 105.195 87.7818 108.986C88.6274 110.705 89.3024 112.503 89.7971 114.353C90.0507 115.217 89.9795 116.145 89.5969 116.961C89.2144 117.776 88.5467 118.425 87.7193 118.784C86.9362 119.224 86.0318 119.402 85.14 119.289C84.2481 119.177 83.4162 118.781 82.7672 118.16C81.9709 117.572 81.4257 116.705 81.2404 115.734C81.0551 114.762 81.2433 113.757 81.7674 112.918C85.048 107.769 85.2355 101.997 85.5167 96.193C85.9697 86.5827 89.8908 79.1877 98.1703 73.9769C102.134 71.3764 105.909 68.4986 109.465 65.365C112.86 62.452 115.19 58.4953 116.089 54.1165C117.526 47.7668 120.65 42.8836 127.133 40.6215C128.734 39.9162 130.299 39.1299 131.82 38.2657C134.944 36.7055 136.506 37.8132 136.6 41.3079C136.6 47.5484 136.6 53.6953 136.6 59.889L136.631 59.9514Z" fill="white"/>
<path d="M79.2361 64.5073C79.3142 66.5355 79.1111 68.8445 76.8304 69.8898C75.7007 70.3641 74.4495 70.4686 73.2566 70.1883C72.0637 69.908 70.9905 69.2573 70.1911 68.3296C68.808 67.0936 67.7405 65.5454 67.0775 63.8141C66.4145 62.0828 66.1751 60.2184 66.3794 58.376C66.7855 54.1949 70.238 52.5412 73.9091 54.6006C75.5926 55.6364 76.972 57.0982 77.9075 58.838C78.8431 60.5778 79.3014 62.5337 79.2361 64.5073Z" fill="white"/>
<path d="M83.9541 40.1384C89.203 38.5783 96.7171 42.1821 99.7321 47.861C103.2 54.4135 101.997 62.8694 96.9046 66.8789C98.9042 54.8243 94.5873 45.9108 83.9541 40.1384Z" fill="white"/>
<path d="M74.5654 46.5976C77.4763 45.8268 80.5679 46.1315 83.2717 47.4558C85.9754 48.7801 88.1094 51.0349 89.2811 53.8053C92.2493 60.2955 91.0308 66.8636 86.1568 70.0774C87.9845 59.531 84.5634 51.59 74.5654 46.5976Z" fill="white"/>
<path d="M106.559 60.9506C107.707 56.0886 107.152 50.9805 104.986 46.4778C102.82 41.9752 99.1736 38.3501 94.6553 36.2071C97.5453 34.881 105.45 37.9544 108.387 43.2588C111.746 49.1717 110.871 57.4091 106.559 60.9506Z" fill="white"/>
<path d="M68.2869 155.577C68.2912 153.67 68.145 151.766 67.8495 149.882C67.6963 148.992 67.3385 148.148 66.8042 147.419C66.2698 146.689 65.5736 146.093 64.7699 145.678C63.9663 145.262 63.0771 145.038 62.1722 145.023C61.2673 145.008 60.3712 145.203 59.5543 145.592C58.6616 145.997 57.9099 146.659 57.3952 147.493C56.8805 148.326 56.626 149.294 56.6643 150.273C56.6643 150.928 56.7892 151.567 56.8674 152.223C57.0169 152.938 56.9479 153.682 56.6694 154.358C56.3909 155.034 55.9156 155.611 55.3052 156.014C54.7806 156.38 54.1562 156.576 53.5165 156.576C52.8767 156.576 52.2523 156.38 51.7278 156.014C51.1556 155.596 50.7169 155.021 50.4646 154.359C50.2124 153.698 50.1573 152.977 50.3062 152.285C50.4287 150.646 50.9734 149.066 51.8877 147.699C52.8019 146.333 54.0545 145.225 55.5239 144.484C57.8503 143.249 60.4375 142.583 63.0722 142.542C65.7069 142.502 68.3135 143.087 70.677 144.25C72.2646 144.925 73.6054 146.072 74.5167 147.534C75.428 148.997 75.8656 150.705 75.7697 152.426C75.7697 157.324 75.926 162.239 76.0353 167.137C76.0414 167.888 76.1518 168.633 76.3634 169.353C76.4861 169.885 76.79 170.357 77.2231 170.69C77.6562 171.023 78.1916 171.196 78.7379 171.178C79.2647 171.182 79.7744 170.991 80.1693 170.643C80.5642 170.295 80.8165 169.813 80.8781 169.29C81.0556 168.328 81.1393 167.351 81.128 166.373C81.128 157.012 81.128 147.652 81.128 138.291C81.2151 137.418 81.0902 136.536 80.7639 135.722C80.4376 134.907 79.9194 134.183 79.2534 133.61L88.6265 131.738V146.591C88.9252 146.378 89.212 146.149 89.4857 145.904C90.8811 144.486 92.6314 143.468 94.5546 142.955C96.4778 142.442 98.5035 142.453 100.421 142.987C102.361 143.435 104.081 144.552 105.278 146.142C106.475 147.731 107.073 149.691 106.966 151.677C106.966 155.967 107.06 160.273 107.123 164.579C107.123 165.874 107.123 167.2 107.248 168.495C107.319 169.327 107.535 170.14 107.888 170.897C108.02 171.242 108.233 171.55 108.509 171.796C108.785 172.042 109.115 172.218 109.474 172.31C109.832 172.401 110.206 172.406 110.567 172.323C110.927 172.24 111.262 172.072 111.544 171.833C111.049 170.31 110.703 168.743 110.513 167.153C110.557 165.93 110.905 164.737 111.523 163.681C112.142 162.625 113.013 161.738 114.059 161.1C117.922 158.522 122.297 156.809 126.884 156.076L128.728 155.655C128.718 153.749 128.571 151.846 128.29 149.961C128.138 149.116 127.804 148.315 127.311 147.612C126.817 146.91 126.177 146.323 125.434 145.892C124.69 145.462 123.862 145.198 123.007 145.119C122.151 145.041 121.289 145.149 120.479 145.436C119.465 145.811 118.593 146.495 117.988 147.39C117.383 148.286 117.074 149.348 117.105 150.429C117.14 151.067 117.213 151.702 117.324 152.332C117.479 153.05 117.413 153.798 117.134 154.477C116.855 155.157 116.377 155.736 115.762 156.139C115.227 156.491 114.598 156.671 113.958 156.654C113.318 156.637 112.699 156.425 112.184 156.045C111.609 155.63 111.168 155.055 110.915 154.393C110.663 153.73 110.61 153.009 110.763 152.316C110.885 150.677 111.43 149.097 112.344 147.731C113.258 146.364 114.511 145.256 115.98 144.516C118.307 143.28 120.894 142.614 123.529 142.574C126.163 142.533 128.77 143.118 131.133 144.282C132.724 144.948 134.068 146.09 134.98 147.552C135.893 149.013 136.328 150.722 136.226 152.441C136.226 157.449 136.226 162.457 136.351 167.449C136.351 167.777 136.351 168.105 136.429 168.432C136.679 170.164 137.663 171.178 139.085 171.163C139.439 171.142 139.786 171.049 140.103 170.889C140.42 170.73 140.701 170.508 140.929 170.236C141.158 169.964 141.328 169.649 141.43 169.309C141.532 168.97 141.563 168.613 141.522 168.261C141.522 157.98 141.631 147.698 141.522 137.417C141.309 136.08 140.915 134.779 140.35 133.548L149.098 131.801C149.168 132.203 149.215 132.61 149.239 133.018C149.239 143.814 149.239 154.615 149.239 165.421C149.352 166.776 149.189 168.139 148.76 169.429C148.33 170.719 147.643 171.909 146.74 172.926C142.678 177.06 135.304 176.935 130.634 172.629C124.885 176.701 119.042 176.779 113.043 172.957C111.259 174.316 109.031 174.961 106.795 174.766C102.202 174.314 99.4211 170.944 99.3743 165.811C99.3743 161.225 99.3743 156.638 99.3743 152.051C99.4923 150.823 99.1204 149.599 98.3393 148.644C97.5583 147.688 96.4313 147.079 95.2033 146.949C93.9452 146.733 92.6512 146.973 91.5543 147.625C90.4574 148.277 89.6296 149.299 89.2201 150.507C88.928 151.393 88.7752 152.319 88.7671 153.252C88.7671 157.309 88.5952 161.396 88.7671 165.453C89.0795 171.943 83.9556 175.469 78.7066 175.718C77.1633 175.792 75.6219 175.538 74.184 174.973C72.7461 174.408 71.4444 173.546 70.3646 172.442C69.0259 173.697 67.4396 174.659 65.7072 175.266C63.9747 175.873 62.1344 176.112 60.3041 175.968C58.4659 176.023 56.6432 175.615 55.0049 174.781C53.3665 173.946 51.9654 172.712 50.9311 171.194C50.3464 172.207 49.5286 173.067 48.5452 173.701C47.5618 174.336 46.4411 174.728 45.276 174.844C40.5894 175.344 37.4651 172.738 37.262 167.84C37.0433 162.457 37.137 157.075 37.0745 151.708C37.1535 150.691 36.8885 149.677 36.3221 148.829C35.7556 147.98 34.9204 147.346 33.9502 147.027C32.8961 146.716 31.7684 146.761 30.7428 147.156C29.7171 147.551 28.8511 148.274 28.2794 149.212C27.7186 150.129 27.3864 151.167 27.3109 152.238C27.2172 158.479 27.2328 164.579 27.3109 170.757C27.499 171.642 27.8428 172.488 28.3263 173.253C28.5138 173.674 28.7481 174.064 29.0449 174.642C26.686 174.642 24.6239 174.798 22.6087 174.642C20.5935 174.486 19.6562 173.082 19.6406 170.71C19.6406 166.217 19.6406 161.739 19.6406 157.246V152.191C19.6406 148.962 18.0784 147.043 15.329 146.825C13.9538 146.78 12.6141 147.266 11.5875 148.18C10.5609 149.095 9.92604 150.369 9.81445 151.739C9.71312 152.625 9.66617 153.516 9.67386 154.407C9.67386 159.867 9.67385 165.328 9.81445 170.804C10.0035 172.147 10.355 173.461 10.8611 174.72H0.519499C3.00337 172.067 1.9567 168.822 2.08168 165.811C2.20665 160.757 2.08168 155.702 2.08168 150.663C2.08168 148.666 2.36284 146.591 0.191406 144.968L9.65824 143.065V146.825C10.7331 145.468 12.1111 144.382 13.6818 143.654C15.2525 142.925 16.9722 142.574 18.7033 142.628C20.3737 142.652 22.0012 143.16 23.3878 144.091C24.7745 145.022 25.8606 146.334 26.5142 147.87C27.4003 146.421 28.6103 145.196 30.0495 144.292C31.4886 143.388 33.1177 142.829 34.8093 142.659C35.9618 142.484 37.1379 142.546 38.2658 142.84C39.3937 143.134 40.4498 143.655 41.3694 144.37C42.289 145.086 43.0529 145.981 43.6145 147.001C44.176 148.021 44.5234 149.145 44.6355 150.304C44.9479 153.97 44.8542 157.668 44.9479 161.365C44.9479 163.658 45.0885 165.936 45.1979 168.23C45.1979 169.29 45.5259 170.539 46.6819 170.585C47.1428 170.524 47.587 170.373 47.9891 170.14C48.3912 169.907 48.7433 169.597 49.0252 169.228C49.5849 168.479 49.9402 167.597 50.0562 166.669C50.279 165.472 50.7446 164.332 51.4242 163.321C52.1038 162.31 52.9833 161.448 54.0086 160.788C57.8039 158.36 62.0573 156.736 66.506 156.014L68.2869 155.577ZM68.1463 158.136C64.8657 158.994 61.7882 159.977 59.5387 162.582C59.0531 163.151 58.6914 163.816 58.4764 164.532C58.1039 165.612 58.0532 166.776 58.3305 167.884C58.6078 168.992 59.2012 169.995 60.0386 170.773C60.6868 171.458 61.5274 171.932 62.45 172.133C63.3727 172.333 64.3345 172.251 65.2094 171.896C66.1057 171.529 66.8663 170.895 67.3866 170.079C67.9069 169.263 68.1614 168.306 68.115 167.34C68.2713 164.36 68.1463 161.334 68.1463 158.136ZM128.353 158.26C125.649 158.758 123.102 159.886 120.917 161.552C119.906 162.364 119.173 163.471 118.821 164.718C118.468 165.964 118.513 167.29 118.948 168.51C119.279 169.613 119.965 170.575 120.901 171.246C121.836 171.918 122.968 172.261 124.119 172.223C125.216 172.199 126.262 171.752 127.036 170.976C127.811 170.199 128.255 169.154 128.275 168.058C128.571 164.813 128.353 161.568 128.353 158.26Z" fill="white"/>
<path d="M86.612 202.708C86.5448 200.571 86.2728 198.445 85.7997 196.359C85.5534 195.439 85.0801 194.595 84.423 193.905C83.7659 193.215 82.9461 192.701 82.0385 192.409C81.1309 192.117 80.1646 192.058 79.2278 192.235C78.2911 192.413 77.4139 192.822 76.6765 193.426C76.1025 193.875 75.6411 194.451 75.3293 195.109C75.0174 195.767 74.8636 196.489 74.88 197.217C74.88 198.059 74.9894 198.886 75.0519 199.729C75.1338 200.19 75.1195 200.663 75.0097 201.118C74.9 201.574 74.6972 202.002 74.4141 202.375C74.1311 202.749 73.7738 203.06 73.3647 203.289C72.9557 203.518 72.5036 203.66 72.0369 203.707C71.5539 203.754 71.0665 203.693 70.6103 203.528C70.1542 203.363 69.7409 203.098 69.4008 202.752C69.0606 202.406 68.8024 201.989 68.6449 201.531C68.4874 201.072 68.4347 200.584 68.4907 200.103C68.4414 198.521 68.813 196.954 69.5677 195.561C70.3223 194.169 71.4331 193.001 72.7867 192.178C75.3026 190.557 78.2199 189.667 81.2128 189.607C84.2058 189.546 87.1568 190.317 89.7364 191.834C91.0883 192.563 92.2062 193.658 92.9609 194.995C93.7156 196.331 94.0763 197.853 94.0011 199.385C94.0011 204.425 94.173 209.479 94.2823 214.519C94.2823 214.753 94.2823 214.987 94.2823 215.221C94.4385 217.046 95.4071 218.247 96.7662 218.341C98.1253 218.434 99.1251 217.311 99.25 215.361C99.3594 213.801 99.3282 212.241 99.3438 210.681C99.3438 202.506 99.3438 194.315 99.3438 186.14C99.3438 184.159 99.3438 182.193 97.5629 180.508L106.858 178.636V193.582L107.826 192.677C109.194 191.346 110.878 190.385 112.72 189.883C114.561 189.381 116.501 189.354 118.356 189.806C122.589 190.711 125.104 194.128 125.135 198.746C125.135 204.035 125.135 209.308 125.276 214.597C125.32 216.036 125.578 217.461 126.041 218.825C126.194 219.166 126.422 219.469 126.709 219.709C126.996 219.95 127.334 220.122 127.697 220.213C128.229 220.307 128.885 219.636 129.51 219.308C126.385 214.175 128.478 210.15 132.15 207.685C135.842 205.368 139.975 203.838 144.288 203.192C145.85 202.911 146.35 202.334 146.131 200.852C146.069 199.412 145.902 197.978 145.631 196.562C145.391 195.633 144.923 194.778 144.27 194.074C143.617 193.371 142.798 192.84 141.889 192.531C140.98 192.222 140.007 192.143 139.06 192.302C138.113 192.461 137.219 192.852 136.461 193.441C135.791 193.958 135.266 194.639 134.938 195.418C134.609 196.197 134.488 197.048 134.587 197.888C134.665 198.73 134.774 199.573 134.774 200.415C134.793 200.848 134.724 201.281 134.572 201.687C134.42 202.093 134.188 202.464 133.889 202.779C133.59 203.093 133.231 203.344 132.833 203.517C132.435 203.69 132.006 203.781 131.572 203.785C131.136 203.811 130.701 203.747 130.292 203.595C129.883 203.443 129.511 203.207 129.199 202.903C128.887 202.599 128.643 202.233 128.481 201.828C128.319 201.424 128.244 200.991 128.26 200.555C128.124 198.86 128.477 197.162 129.277 195.661C130.077 194.16 131.291 192.918 132.774 192.084C135.264 190.552 138.122 189.721 141.045 189.68C143.969 189.639 146.849 190.389 149.38 191.85C150.796 192.616 151.959 193.775 152.73 195.187C153.5 196.599 153.845 198.203 153.723 199.807C153.723 204.705 153.723 209.62 153.723 214.534C153.723 217.124 154.02 219.542 157.098 220.416C157.244 220.507 157.365 220.633 157.449 220.783C157.534 220.933 157.579 221.102 157.582 221.274C157.426 221.648 157.004 222.163 156.676 222.179C155.206 222.375 153.715 222.343 152.255 222.085C150.679 221.5 149.167 220.758 147.74 219.87C145.835 221.309 143.601 222.254 141.24 222.619C138.879 222.983 136.464 222.757 134.212 221.96C133.373 221.645 132.479 221.505 131.585 221.548C130.69 221.591 129.814 221.816 129.01 222.21C123.542 224.753 117.684 220.65 117.59 214.316C117.512 209.745 117.59 205.158 117.59 200.571V199.448C117.59 195.875 115.887 193.909 112.747 193.831C111.995 193.795 111.244 193.913 110.539 194.179C109.835 194.444 109.192 194.851 108.652 195.375C108.111 195.899 107.684 196.528 107.397 197.223C107.11 197.918 106.969 198.665 106.983 199.417C106.983 203.723 106.983 208.028 106.983 212.334C106.983 218.06 104.296 221.274 98.6252 222.257C96.1398 222.819 93.5424 222.618 91.1736 221.68C90.1512 221.117 89.1744 220.475 88.2523 219.761C82.7066 224.316 72.6305 223.271 69.428 218.715C68.9265 219.615 68.2422 220.401 67.419 221.021C66.5959 221.642 65.6519 222.084 64.6478 222.319C63.5984 222.596 62.5 222.634 61.4341 222.429C60.3683 222.224 59.3622 221.783 58.4904 221.137C57.6187 220.491 56.9037 219.658 56.3984 218.698C55.8931 217.739 55.6105 216.678 55.5715 215.595C55.4445 214.038 55.3976 212.476 55.4309 210.915C55.4309 207.077 55.4309 203.239 55.4309 199.401C55.4309 195.906 53.7906 193.863 50.9474 193.769C50.2188 193.767 49.4971 193.91 48.8247 194.19C48.1523 194.471 47.5427 194.882 47.0319 195.401C46.521 195.92 46.1192 196.536 45.85 197.212C45.5808 197.888 45.4496 198.611 45.4642 199.339C45.4642 199.713 45.4642 200.087 45.4642 200.462C45.4642 205.797 45.4642 211.117 45.4642 216.453C45.4642 218.341 45.3705 220.213 47.2294 221.804H36.0911C38.5125 219.402 37.6533 216.438 37.6533 213.692C37.747 208.777 37.6533 203.863 37.6533 198.964C37.6533 195.938 36.0911 194.003 33.4666 193.785C32.1447 193.699 30.8388 194.111 29.8063 194.94C28.7739 195.769 28.0901 196.954 27.8896 198.262C27.7827 199.006 27.7305 199.757 27.7334 200.509V215.657C27.7334 217.732 27.5147 219.885 29.4674 221.648H18.5322C20.7348 219.527 20.0944 216.968 20.1881 214.456C20.1881 208.762 20.1881 203.052 20.1881 197.295C20.1881 195.376 20.2818 193.441 18.3291 191.834L27.7022 189.962V193.535C33.451 187.482 41.6837 188.621 44.6206 194.643C45.4591 193.27 46.5969 192.104 47.9493 191.231C49.3017 190.359 50.8338 189.802 52.4315 189.603C53.7426 189.36 55.092 189.42 56.3766 189.777C57.6612 190.134 58.847 190.78 59.8433 191.666C60.8397 192.551 61.6202 193.652 62.1253 194.884C62.6304 196.117 62.8466 197.448 62.7575 198.777C62.7575 203.785 62.7575 208.793 62.7575 213.785C62.7458 214.766 62.8774 215.744 63.1481 216.687C63.223 217.084 63.4165 217.448 63.703 217.733C63.9895 218.017 64.3556 218.208 64.753 218.281C65.1505 218.354 65.5607 218.304 65.9295 218.14C66.2983 217.975 66.6085 217.702 66.8192 217.358C67.417 216.647 67.7823 215.771 67.8658 214.846C67.918 213.389 68.3376 211.969 69.0859 210.717C69.8341 209.465 70.8868 208.422 72.1462 207.685C75.8505 205.391 79.9688 203.843 84.2687 203.13L86.612 202.708ZM86.2683 205.017C84.1362 205.84 82.0502 206.778 80.0196 207.826C78.866 208.533 77.8884 209.494 77.1608 210.634C76.542 211.664 76.2565 212.859 76.3432 214.057C76.4298 215.255 76.8845 216.397 77.6451 217.327C78.1829 218.132 78.9622 218.747 79.8714 219.084C80.7806 219.42 81.773 219.46 82.7066 219.199C85.2685 218.512 86.0965 216.453 86.2371 214.191C86.4089 211.305 86.2683 208.403 86.2683 205.017ZM146.365 205.205C143.168 205.746 140.189 207.179 137.773 209.339C137.085 210.045 136.582 210.91 136.309 211.858C136.037 212.805 136.003 213.805 136.211 214.768C136.393 215.953 136.962 217.045 137.829 217.875C138.697 218.704 139.814 219.225 141.007 219.355C142.099 219.457 143.188 219.132 144.045 218.448C144.902 217.764 145.459 216.775 145.6 215.689C146.115 212.319 146.131 208.871 146.365 205.205Z" fill="white"/>
<path d="M156.019 143.33H166.111L156.738 153.502C159.362 158.26 161.956 163.003 164.549 167.73C165.168 168.877 165.846 169.992 166.58 171.069C166.965 171.598 167.468 172.03 168.048 172.333C168.359 172.538 168.721 172.653 169.093 172.666C169.466 172.678 169.834 172.587 170.158 172.403C170.482 172.218 170.748 171.948 170.927 171.622C171.106 171.295 171.191 170.926 171.173 170.554C171.173 169.681 171.079 168.776 171.173 167.902C171.213 167.162 171.377 166.435 171.657 165.749C171.927 165.177 172.382 164.712 172.949 164.43C173.515 164.147 174.161 164.062 174.781 164.189C175.398 164.251 175.97 164.542 176.383 165.004C176.797 165.466 177.022 166.066 177.015 166.685C177.09 167.759 176.886 168.834 176.422 169.805C171.985 177.466 162.174 177.606 157.91 171.116C155.066 166.794 152.77 162.114 150.286 157.574C150.248 157.348 150.261 157.115 150.323 156.894C150.385 156.673 150.495 156.468 150.646 156.295C151.973 154.735 153.442 153.408 154.707 151.864C155.717 150.641 156.592 149.312 157.316 147.901C158.082 145.998 157.722 144.828 156.019 143.33ZM173.641 165.921L173.094 165.733C171.922 166.607 172.141 167.902 172.391 169.213L173.641 165.921Z" fill="white"/>
<path d="M174.656 143.05C174.213 143.056 173.773 142.974 173.362 142.809C172.951 142.644 172.577 142.399 172.261 142.088C171.946 141.778 171.695 141.408 171.525 140.999C171.354 140.591 171.266 140.153 171.266 139.711C171.246 139.257 171.32 138.804 171.483 138.379C171.645 137.954 171.892 137.567 172.21 137.242C172.527 136.916 172.908 136.658 173.328 136.485C173.749 136.311 174.201 136.225 174.656 136.232C175.101 136.23 175.541 136.317 175.952 136.487C176.363 136.658 176.735 136.91 177.047 137.227C177.358 137.544 177.603 137.92 177.767 138.334C177.93 138.747 178.009 139.189 177.999 139.633C178.007 140.077 177.927 140.519 177.763 140.932C177.599 141.345 177.354 141.722 177.043 142.04C176.732 142.358 176.361 142.61 175.951 142.784C175.541 142.957 175.101 143.048 174.656 143.05ZM177.483 139.617C177.468 138.867 177.167 138.151 176.642 137.615C176.116 137.079 175.406 136.763 174.656 136.731C173.901 136.757 173.184 137.065 172.646 137.594C172.108 138.123 171.789 138.833 171.75 139.586C171.746 140.365 172.051 141.115 172.598 141.67C173.146 142.226 173.891 142.542 174.671 142.55C175.43 142.522 176.147 142.2 176.672 141.653C177.197 141.105 177.488 140.375 177.483 139.617Z" fill="white"/>
<path d="M173.641 138.01C175.796 137.792 175.953 138.01 175.609 139.929C175.647 140.463 175.763 140.989 175.953 141.489C175.651 141.264 175.373 141.007 175.125 140.725C174.974 140.439 174.849 140.142 174.75 139.835L174.297 140.147L173.875 141.161H173.641V138.01Z" fill="white"/>
</svg>
