<svg width="3086" height="997" viewBox="0 0 3086 997" fill="none" xmlns="http://www.w3.org/2000/svg">
<g clip-path="url(#clip0_2694_219)">
<path d="M2023.01 997L1970.51 984.792C1898.94 969.336 1834.48 930.644 1787.19 874.742C1739.9 818.839 1712.42 748.866 1709.04 675.722C1700.49 558.93 1723.49 451.906 1809.36 365.838C1912.11 264.104 2038.68 241.518 2172.77 280.381C2301.17 317.412 2365.88 417.52 2391.31 543.264C2397.82 585.939 2402.03 628.933 2403.93 672.06H1901.74C1881.39 763.621 1934.91 834.835 2032.37 853.554C2091.18 864.542 2147.95 855.182 2189.05 811.64C2204.82 794.198 2224.55 780.79 2246.57 772.542C2268.59 764.293 2292.27 761.443 2315.62 764.231C2337.39 765.655 2359.37 764.231 2381.95 764.231C2364.25 877.564 2254.57 975.229 2135.54 988.047C2121.82 990.199 2108.23 993.12 2094.84 996.796L2023.01 997ZM2209.6 556.082C2200.65 448.446 2133.91 389.848 2036.44 402.056C1948.74 413.043 1886.47 483.443 1900.52 556.082H2209.6Z" fill="white"/>
<path d="M1250.19 997C1220.28 988.861 1189.14 982.147 1160.45 972.38C1100.92 951.728 1048.66 914.243 1010.01 864.474C971.364 814.705 947.992 754.79 942.73 691.999C932.951 612.734 944.032 532.289 974.879 458.62C1027.58 342.439 1119.35 280.381 1246.33 267.766C1338.91 258.609 1427.01 270.817 1506.17 322.295C1539.8 343.508 1567.74 372.613 1587.56 407.08C1607.39 441.547 1618.49 480.333 1619.92 520.067C1570.13 522.02 1520.28 521.408 1470.56 518.236C1460.87 515.495 1451.95 510.565 1444.47 503.827C1436.99 497.089 1431.16 488.722 1427.42 479.374C1396.49 392.899 1247.75 369.907 1178.77 454.144C1109.79 538.38 1105.51 711.532 1170.83 797.6C1186.24 818.441 1206.8 834.92 1230.5 845.42C1254.2 855.921 1280.22 860.083 1306.01 857.498C1331.8 854.913 1356.48 845.669 1377.62 830.674C1398.76 815.679 1415.64 795.448 1426.61 771.963C1445.53 729.641 1470.36 710.922 1516.75 715.195C1551.95 718.247 1587.56 715.195 1623.17 715.195C1602.82 874.104 1506.98 968.921 1350.3 988.251C1343.24 990.195 1336.41 992.925 1329.96 996.389L1250.19 997Z" fill="white"/>
<path d="M628.556 654.764V1.22077C664.875 3.53864 701.023 8.02303 736.807 14.6498C797.852 29.0961 822.676 64.7035 822.879 132.459C822.879 372.96 822.879 613.257 822.879 853.554V975.636C765.701 975.636 710.964 978.281 656.634 975.636C612.072 972.787 586.638 939.621 564.459 904.014C451.73 721.841 338.525 539.872 224.847 358.106C217.851 345.766 207.281 335.835 194.529 329.621V978.281H-0.609375V0C58.5571 0.00550405 117.647 4.22109 176.215 12.615C206.61 23.0438 232.295 43.9641 248.655 71.621C362.808 250.064 473.908 430.134 585.823 609.798L616.345 658.63L628.556 654.764Z" fill="white"/>
<path d="M3084.37 985.199C3041.85 977.06 2999.93 976.043 2964.73 959.969C2940.07 944.275 2920.98 921.207 2910.19 894.045C2901.95 872.04 2898.61 848.497 2900.43 825.068C2900.43 566.255 2900.43 307.51 2900.43 48.8327C2900.43 39.88 2900.43 31.1308 2902.26 13.8359C2942.82 16.8713 2983.01 23.6831 3022.31 34.1829C3046.06 45.7887 3065.05 65.2782 3076.03 89.3235C3084.71 112.568 3088.18 137.433 3086.2 162.165C3086.2 423.691 3086.2 685.082 3086.2 946.337C3086 956.307 3084.37 966.277 3084.37 985.199Z" fill="white"/>
<path d="M2710.58 983.978C2675.62 980.103 2640.9 974.262 2606.6 966.48C2552.88 951.22 2530.09 914.799 2529.07 844.398C2527.65 735.949 2529.07 627.5 2529.07 518.847C2529.07 367.195 2529.07 215.61 2529.07 64.093V12.6152C2573.23 19.3297 2612.9 23.3994 2651.16 31.9451C2689.41 40.4908 2703.45 72.639 2707.73 108.246C2711.15 135.244 2712.99 162.42 2713.22 189.634C2713.22 439.087 2713.22 688.608 2713.22 938.197C2712.82 951.626 2711.59 963.224 2710.58 983.978Z" fill="white"/>
</g>
<defs>
<clipPath id="clip0_2694_219">
<rect width="3086" height="997" fill="white"/>
</clipPath>
</defs>
</svg>
