<svg width="288" height="198" viewBox="0 0 288 198" fill="none" xmlns="http://www.w3.org/2000/svg">
<path d="M21.6451 196.969H17.32L4.32508 177.281V196.969H0V170.588H4.32508L17.32 190.158V170.588H21.6451V196.969Z" fill="white"/>
<path d="M31.6455 174.111V181.841H40.7458V185.364H31.6455V193.446H41.8808V196.969H27.3203V170.588H41.8808V174.111H31.6455Z" fill="white"/>
<path d="M64.6807 182.252C63.9821 183.499 62.9254 184.508 61.6472 185.148C59.9895 185.968 58.1523 186.359 56.3044 186.284H51.5097V196.969H47.2041V170.607H56.3044C58.0726 170.555 59.8285 170.917 61.432 171.664C62.7418 172.265 63.8399 173.247 64.5828 174.482C65.2658 175.674 65.6235 177.023 65.62 178.397C65.6346 179.74 65.3117 181.066 64.6807 182.252ZM59.9642 181.626C60.3837 181.216 60.7094 180.721 60.9189 180.174C61.1284 179.626 61.2167 179.04 61.1775 178.455C61.1775 175.578 59.5531 174.15 56.3044 174.15H51.5097V182.741H56.3044C57.6215 182.845 58.9292 182.447 59.9642 181.626Z" fill="white"/>
<path d="M85.6416 191.587H74.6038L72.6467 196.969H68.1455L77.5785 170.588H82.5886L92.0216 196.969H87.4813L85.6416 191.587ZM84.4283 188.064L80.064 175.813L75.7389 188.064H84.4283Z" fill="white"/>
<path d="M100.496 193.486H109.42V196.97H96.1904V170.608H100.496V193.486Z" fill="white"/>
<path d="M139.89 170.608V174.151H132.904V196.97H128.579V174.151H121.533V170.608H139.89Z" fill="white"/>
<path d="M148.56 174.111V181.841H157.661V185.364H148.56V193.446H158.796V196.969H144.255V170.588H158.815V174.111H148.56Z" fill="white"/>
<path d="M168.444 193.486H177.349V196.97H164.217V170.608H168.542L168.444 193.486Z" fill="white"/>
<path d="M185.275 174.111V181.841H194.376V185.364H185.275V193.446H195.53V196.969H180.97V170.588H195.53V174.111H185.275Z" fill="white"/>
<path d="M201.186 176.792C202.351 174.778 204.042 173.121 206.078 171.997C208.14 170.844 210.468 170.25 212.83 170.275C215.477 170.227 218.08 170.948 220.326 172.349C222.515 173.729 224.186 175.793 225.081 178.22H219.895C219.285 176.914 218.287 175.828 217.038 175.109C215.75 174.404 214.298 174.053 212.83 174.091C211.201 174.063 209.594 174.468 208.173 175.265C206.8 176.054 205.686 177.223 204.963 178.631C204.167 180.221 203.771 181.981 203.808 183.759C203.773 185.53 204.169 187.283 204.963 188.867C205.689 190.282 206.802 191.463 208.173 192.272C209.592 193.075 211.2 193.487 212.83 193.466C214.3 193.497 215.751 193.139 217.038 192.428C218.286 191.716 219.283 190.636 219.895 189.336H225.081C224.196 191.769 222.522 193.836 220.326 195.208C218.065 196.562 215.465 197.241 212.83 197.165C210.461 197.195 208.126 196.601 206.059 195.442C204.024 194.324 202.337 192.664 201.186 190.648C199.961 188.547 199.338 186.15 199.385 183.72C199.344 181.29 199.967 178.894 201.186 176.792Z" fill="white"/>
<path d="M235.376 195.502C233.334 194.376 231.642 192.711 230.483 190.687C229.27 188.575 228.648 186.175 228.683 183.74C228.648 181.304 229.27 178.904 230.483 176.792C231.659 174.788 233.348 173.132 235.376 171.997C237.446 170.848 239.78 170.254 242.148 170.275C244.529 170.248 246.876 170.841 248.958 171.997C250.985 173.128 252.668 174.784 253.831 176.792C255.031 178.909 255.646 181.307 255.612 183.74C255.646 186.173 255.031 188.571 253.831 190.687C252.686 192.714 250.998 194.381 248.958 195.502C246.876 196.658 244.529 197.252 242.148 197.224C239.78 197.245 237.446 196.651 235.376 195.502ZM246.805 192.292C248.185 191.486 249.3 190.296 250.015 188.867C250.809 187.277 251.205 185.517 251.17 183.74C251.207 181.962 250.811 180.202 250.015 178.612C249.286 177.229 248.171 176.087 246.805 175.325C245.384 174.527 243.777 174.122 242.148 174.15C240.518 174.12 238.91 174.526 237.49 175.325C236.113 176.108 234.997 177.278 234.28 178.691C233.484 180.281 233.088 182.041 233.126 183.818C233.09 185.596 233.487 187.355 234.28 188.946C234.995 190.374 236.11 191.564 237.49 192.37C238.908 193.176 240.516 193.588 242.148 193.564C243.786 193.562 245.393 193.123 246.805 192.292Z" fill="white"/>
<path d="M287.609 170.608V196.97H283.284V178.926L275.241 196.97H272.247L264.184 178.926V196.97H259.858V170.608H264.516L273.812 191.275L283.01 170.608H287.609Z" fill="white"/>
<path d="M192.48 68.975C192.265 84.6315 186.394 97.1567 176.824 108.116C171.931 113.713 166.412 118.782 161.167 124.066C153.795 131.348 147.602 139.733 142.81 148.921C142.338 149.593 141.771 150.193 141.127 150.702C141.138 149.886 141.263 149.076 141.499 148.295C146.94 137.079 154.358 126.935 163.398 118.352C169.558 112.681 174.994 106.272 179.583 99.2702C183.346 93.5207 185.773 87.0007 186.684 80.1898C187.595 73.3788 186.967 66.4503 184.848 59.9138C182.879 53.7291 179.102 48.2759 174.006 44.2574C171.931 42.5547 169.759 41.0086 167.684 39.3255C166.588 38.6161 165.817 37.5006 165.542 36.2238C165.267 34.947 165.509 33.6132 166.216 32.515C166.587 31.9296 167.081 31.4325 167.665 31.059C168.248 30.6854 168.907 30.4444 169.593 30.353C170.28 30.2615 170.979 30.3218 171.64 30.5297C172.3 30.7376 172.908 31.088 173.418 31.5561C176.664 34.2698 179.64 37.2912 182.303 40.5781C187.829 47.4167 191.231 55.7238 192.089 64.4737C192.402 66.2155 192.421 68.0552 192.48 68.975Z" fill="white"/>
<path d="M111.87 34.4921L110.284 36.6448C102.607 46.3557 99.0886 58.7122 100.499 71.0107C101.321 78.839 105.059 85.1603 109.795 91.1293C112.903 94.8298 116.648 97.9448 120.852 100.328C121.263 100.582 121.694 100.817 122.085 101.091C122.669 101.431 123.177 101.887 123.577 102.431C123.978 102.975 124.263 103.595 124.415 104.253C124.568 104.911 124.583 105.593 124.462 106.258C124.341 106.922 124.085 107.555 123.71 108.117C123.344 108.702 122.856 109.202 122.279 109.58C121.702 109.959 121.049 110.208 120.367 110.31C119.684 110.413 118.987 110.366 118.324 110.173C117.662 109.98 117.048 109.646 116.527 109.193C113.267 106.752 110.246 104.006 107.505 100.993C102.539 95.3127 99.014 88.5197 97.2289 81.1887C95.4438 73.8577 95.4512 66.2046 97.2503 58.877C99.201 49.893 103.715 41.6674 110.245 35.1966C110.656 34.7856 111.106 34.4529 111.537 34.0811L111.87 34.4921Z" fill="white"/>
<path d="M144.845 81.7939C145.311 82.0142 145.757 82.2762 146.176 82.5768C148.387 84.5338 150.618 86.2952 152.712 88.2914C153.295 88.9672 153.62 89.8263 153.632 90.7181C153.73 93.8886 153.632 97.0394 153.632 100.21C153.575 101.638 154.057 103.035 154.983 104.124C156.353 105.768 157.683 107.451 158.897 109.193C159.279 109.612 159.569 110.107 159.75 110.645C159.93 111.183 159.997 111.752 159.945 112.317C159.894 112.883 159.725 113.431 159.45 113.927C159.175 114.424 158.8 114.857 158.349 115.201C157.888 115.524 157.366 115.748 156.815 115.861C156.265 115.974 155.696 115.973 155.146 115.857C154.596 115.742 154.075 115.514 153.616 115.189C153.157 114.864 152.77 114.449 152.478 113.968C150.305 111.228 148.074 108.566 146.019 105.748C145.287 104.778 144.852 103.615 144.767 102.402C144.63 95.7478 144.669 89.1133 144.649 82.4593C144.701 82.2337 144.766 82.0115 144.845 81.7939Z" fill="white"/>
<path d="M143.671 81.7744C143.768 82.1798 143.833 82.592 143.867 83.0074C143.867 89.3874 143.867 95.7674 143.867 102.147C143.871 103.31 143.531 104.447 142.888 105.416C140.618 108.527 138.172 111.502 135.725 114.477C135.107 115.294 134.192 115.835 133.179 115.985C132.165 116.135 131.133 115.882 130.304 115.279C129.859 114.976 129.48 114.585 129.193 114.129C128.906 113.673 128.716 113.162 128.635 112.63C128.554 112.097 128.584 111.553 128.723 111.032C128.862 110.512 129.108 110.025 129.443 109.604C130.735 107.823 132.144 106.14 133.514 104.437C134.539 103.183 135.062 101.593 134.982 99.9751C134.982 97.0199 134.982 94.1039 134.982 91.1292C134.935 90.4891 135.046 89.8474 135.305 89.2604C135.564 88.6734 135.964 88.1592 136.469 87.763C138.426 86.1191 140.383 84.3773 142.458 82.6747C142.712 82.3811 143.123 82.1658 143.671 81.7744Z" fill="white"/>
<path d="M163.614 26.6833C162.411 27.9355 161.143 29.1244 159.817 30.2452C155.848 33.4685 151.196 35.7442 146.215 36.8992C145.471 36.8613 144.74 36.682 144.063 36.3708C143.945 37.9756 142.38 37.5255 141.049 37.5255C134.129 37.6515 127.353 35.5371 121.733 31.4977C118.503 29.2079 118.132 25.6265 120.832 23.1998C121.682 22.4926 122.741 22.0862 123.845 22.0437C124.95 22.0013 126.037 22.3251 126.938 22.9649C128.94 24.399 130.867 25.934 132.712 27.564C140.54 34.7464 155.218 33.9049 162.068 27.0161C162.41 26.7097 162.784 26.4407 163.183 26.2137L163.614 26.6833Z" fill="white"/>
<path d="M156.411 16.3882C156.347 16.6267 156.241 16.852 156.098 17.0536C150.755 22.9248 143.866 25.7821 136.038 22.9248C134.144 22.2189 132.379 21.2074 130.813 19.9305C129.99 19.2585 129.439 18.3107 129.263 17.2632C129.087 16.2157 129.297 15.1398 129.854 14.2354C130.257 13.3786 130.927 12.6753 131.763 12.2308C132.599 11.7863 133.556 11.6245 134.492 11.7695C135.925 12.1968 137.256 12.909 138.406 13.8636C139.131 14.5026 139.746 15.2563 140.226 16.0946C140.937 17.1213 141.846 17.9954 142.899 18.6654C143.953 19.3353 145.13 19.7876 146.361 19.9955C147.592 20.2034 148.852 20.1628 150.068 19.876C151.283 19.5892 152.428 19.0621 153.436 18.3257C154.415 17.6994 155.393 16.9557 156.255 16.2512L156.411 16.3882Z" fill="white"/>
<path d="M149.131 5.03674C149.156 5.68079 149.048 6.32298 148.814 6.92368C148.581 7.52438 148.226 8.07084 147.773 8.52932C147.32 8.9878 146.778 9.34857 146.18 9.58937C145.583 9.83018 144.942 9.94589 144.298 9.92939C143.638 9.9399 142.984 9.81816 142.372 9.57134C141.761 9.32451 141.205 8.95761 140.738 8.49235C140.271 8.02709 139.902 7.47293 139.653 6.86258C139.404 6.25224 139.28 5.59813 139.287 4.93891C139.325 3.66597 139.838 2.45317 140.725 1.5401C141.613 0.627021 142.811 0.0800131 144.082 0.00708365C144.753 -0.0294287 145.424 0.0755031 146.052 0.315084C146.68 0.554665 147.251 0.92359 147.727 1.39783C148.203 1.87208 148.574 2.44108 148.816 3.06797C149.058 3.69487 149.165 4.36561 149.131 5.03674Z" fill="white"/>
<path d="M136.665 75.1387C139.659 77.0957 139.659 77.0957 138.133 79.9334C137.115 81.7339 136.176 83.5148 135.099 85.3153L134.708 85.1979C135.334 81.9101 135.98 78.6222 136.665 75.1387Z" fill="white"/>
<path d="M135.941 86.0795C137.272 83.6527 138.564 81.2259 139.953 78.8383C140.113 78.7092 140.302 78.6219 140.503 78.5844C140.705 78.5468 140.913 78.5601 141.108 78.6231C141.677 78.9207 142.177 79.334 142.576 79.8364C142.772 80.0713 142.83 80.7367 142.576 80.8933C140.482 82.7525 138.309 84.5529 136.176 86.373L135.941 86.0795Z" fill="white"/>
<path d="M152.224 86.3344L148.76 83.3597C148.114 82.8117 147.507 82.2051 146.803 81.6375C145.413 80.4046 145.668 79.0737 147.527 78.4475C147.735 78.4436 147.942 78.4896 148.129 78.5815C148.316 78.6734 148.479 78.8085 148.603 78.9759C149.934 81.2656 151.187 83.6141 152.517 85.943L152.224 86.3344Z" fill="white"/>
<path d="M151.773 75.0605C152.439 78.505 153.065 81.6754 153.73 84.8458L153.261 85.0416L150.716 80.6578C150.341 79.8356 149.903 79.0438 149.405 78.2897C148.838 77.5264 148.975 77.0763 149.679 76.5871C150.384 76.0978 150.893 75.7259 151.773 75.0605Z" fill="white"/>
<path d="M147.938 64.5527L151.187 70.6587L150.756 71.0502C149.132 70.6392 147.488 70.2674 145.903 69.7781C145.668 69.7781 145.394 68.9953 145.511 68.78C146.196 67.3709 146.979 66.1184 147.938 64.5527Z" fill="white"/>
<path d="M137.311 70.5602L140.501 64.4346L143.338 69.4055L137.78 70.9907L137.311 70.5602Z" fill="white"/>
<path d="M148.368 76.2941L145.589 71.245L145.843 70.8535C147.526 71.3624 149.249 71.8321 150.892 72.4583C151.127 72.4583 151.323 73.613 151.127 73.8478C150.261 74.7215 149.339 75.5387 148.368 76.2941Z" fill="white"/>
<path d="M142.888 71.2849C142.145 72.694 141.421 74.103 140.618 75.4534C140.462 75.7078 139.718 75.9427 139.581 75.8253C138.717 75.0721 137.918 74.2472 137.193 73.3594C137.218 73.1693 137.281 72.9863 137.378 72.8214C137.476 72.6565 137.606 72.5133 137.761 72.4004C139.366 71.8524 140.99 71.4219 142.614 70.9326L142.888 71.2849Z" fill="white"/>
<path d="M143.554 53.8869C141.108 50.9317 141.049 45.6672 143.554 44.1016V53.8869Z" fill="white"/>
<path d="M144.846 54.0031V44.2178C147.331 44.981 147.429 50.6369 144.846 54.0031Z" fill="white"/>
<path d="M139.699 59.2087L140.854 52.6526L141.284 52.5547C141.95 53.7681 142.654 54.9423 143.241 56.1753C143.251 56.3267 143.229 56.4785 143.175 56.6204C143.121 56.7622 143.037 56.8908 142.928 56.9972C141.989 57.8192 140.971 58.602 140.032 59.3848L139.699 59.2087Z" fill="white"/>
<path d="M148.76 59.2869C148.505 59.2272 148.255 59.142 148.017 59.0324C144.298 55.7837 144.396 57.4668 147.606 52.6133L148.76 59.2869Z" fill="white"/>
<path d="M144.846 66.921V59.582C147.449 61.9696 147.468 64.8074 144.846 66.921Z" fill="white"/>
<path d="M143.612 59.3662V66.8422C140.931 65.3548 140.931 62.4192 143.612 59.3662Z" fill="white"/>
<path d="M144.846 78.6623V72.9281L145.218 72.7324C146.035 73.9967 146.692 75.3574 147.175 76.7835C147.292 77.3511 145.981 78.2318 145.315 78.9754L144.846 78.6623Z" fill="white"/>
<path d="M143.632 72.7902V78.9354C140.951 77.6046 140.814 77.2523 142.067 75.0213L143.319 72.6924L143.632 72.7902Z" fill="white"/>
</svg>
