<svg width="1964" height="2459" viewBox="0 0 1964 2459" fill="none" xmlns="http://www.w3.org/2000/svg">
<g clip-path="url(#clip0_2694_326)">
<path d="M1534.51 2068.77L1613.66 2062.97L1615.42 2080.56C1548.76 2109.22 1476.65 2085.13 1406.65 2088.12C1433.91 2074.75 1464.69 2065.79 1487.2 2046.79C1509.71 2027.8 1535.92 2000.01 1539.96 1972.93C1543.58 1940.45 1535.41 1907.74 1516.93 1880.78C1493.53 1848.95 1458.71 1870.41 1432.68 1886.94C1376.05 1922.11 1358.11 1979.97 1353.89 2043.63C1350.37 2094.98 1349.49 2094.8 1298.84 2089V1756.1L1363.21 1748.19V1871.29C1414.21 1861.97 1460.29 1851.77 1506.72 1845.61C1545.77 1840.34 1584.99 1844.21 1604.86 1885.18C1615.28 1905.09 1619.81 1927.57 1617.91 1949.96C1616.01 1972.36 1607.76 1993.75 1594.13 2011.62C1576 2032.41 1556.05 2051.54 1534.51 2068.77Z" fill="white"/>
<path d="M62.7875 2007.4V2094.45H0V1749.07C24.2708 1756.81 46.0793 1764.54 68.2396 1770.52C75.8771 1771.62 83.6576 1771.14 91.1034 1769.12C110.45 1765.77 129.796 1761.55 149.318 1758.04C237.256 1742.21 282.104 1768.94 291.777 1841.57C303.385 1929.5 259.592 1989.81 177.282 1998.61C141.58 2002.3 105.525 2004.06 62.7875 2007.4ZM233.035 1860.38C230.748 1827.85 220.02 1791.27 177.634 1777.73C137.886 1764.89 109.746 1789.69 91.2794 1819.76C75.6712 1844.61 65.7052 1872.59 62.084 1901.71C59.9735 1922.99 66.8326 1958.16 80.9026 1965.19C107.616 1978.84 138.425 1982.16 167.433 1974.52C212.985 1958.86 231.452 1916.48 233.035 1860.38Z" fill="white"/>
<path d="M1332.08 2343.11V2443.52H1267.01V2162.15L1327.68 2158.46V2324.12C1444.46 2330.98 1482.98 2242.7 1536.45 2175.34C1592.9 2201.19 1594.84 2210.51 1555.79 2255.53C1531 2284.02 1507.08 2313.57 1477.53 2348.56L1650.59 2434.2C1641.44 2439.65 1631.46 2443.57 1621.04 2445.81C1548.05 2452.49 1476.83 2457.07 1421.6 2390.59C1404.36 2369.31 1370.24 2362.45 1332.08 2343.11Z" fill="white"/>
<path d="M883.773 2193.98C911.913 2203.3 931.963 2210.69 952.541 2216.32C961.819 2218.86 971.53 2219.4 981.032 2217.9C1022.89 2210.69 1064.4 2200.32 1106.61 2195.04C1154.27 2189.94 1194.55 2203.66 1215.3 2253.07C1224.16 2276.3 1226.22 2301.57 1221.23 2325.92C1216.25 2350.28 1204.43 2372.71 1187.16 2390.59C1175.55 2401.67 1162.01 2410.82 1145.12 2424H1212.66C1195.07 2460.06 1129.12 2468.14 999.148 2448.8C1025.7 2437.55 1040.83 2431.21 1055.78 2424.71C1118.22 2396.92 1154.8 2346.98 1151.98 2293.87C1148.64 2226.87 1102.74 2199.44 1043.12 2228.98C1018.39 2240.72 997.121 2258.66 981.4 2281.07C965.679 2303.48 956.038 2329.58 953.42 2356.83C949.551 2386.2 946.561 2415.56 942.868 2448.45H883.773V2193.98Z" fill="white"/>
<path d="M827.669 2207.88V2450.56C793.725 2455.66 761.716 2471.31 760.837 2431.74C702.656 2442.74 643.956 2450.78 584.961 2455.83C529.737 2458.3 504.587 2432.62 492.803 2379.16C471.698 2284.55 525.34 2206.65 622.071 2196.62C658.139 2194.69 694.303 2195.58 730.235 2199.26C762.596 2201.19 794.253 2204.89 827.669 2207.88ZM556.47 2346.8C555.878 2357.85 557.486 2368.9 561.2 2379.32C564.914 2389.73 570.66 2399.31 578.104 2407.49C585.548 2415.67 594.543 2422.29 604.566 2426.97C614.589 2431.64 625.441 2434.28 636.493 2434.73C689.256 2436.14 758.199 2355.07 758.375 2292.29C758.661 2282 756.804 2271.76 752.922 2262.23C749.04 2252.7 743.217 2244.08 735.824 2236.92C728.43 2229.76 719.628 2224.21 709.976 2220.64C700.324 2217.06 690.033 2215.53 679.758 2216.14C615.212 2217.9 556.997 2279.27 556.47 2346.98V2346.8Z" fill="white"/>
<path d="M421.398 2307.94C430.895 2343.11 445.668 2371.95 443.382 2398.51C440.216 2436.84 407.152 2451.26 370.921 2451.26C318.159 2452.49 265.396 2451.26 218.262 2451.26V2177.45C281.401 2174.64 347.002 2166.55 411.725 2169.89C466.422 2172.71 486.647 2239.36 449.538 2283.5C441.064 2292.63 431.63 2300.83 421.398 2307.94ZM270.321 2295.81L286.677 2308.99C327.832 2308.99 370.746 2308.99 388.685 2262.04C391.369 2251.63 391.832 2240.77 390.044 2230.16C388.256 2219.56 384.258 2209.45 378.308 2200.49C373.384 2193.46 334.515 2197.33 324.666 2208.4C303.792 2235.73 285.593 2265 270.321 2295.81ZM280.346 2336.6C276.125 2415.04 287.381 2440.18 324.49 2436.84C361.6 2433.5 383.936 2410.64 377.253 2374.59C367.052 2315.5 319.39 2340.12 280.346 2336.78V2336.6Z" fill="white"/>
<path d="M1903.85 1805.17H1964.35V2043.63L1873.6 2027.1C1847.22 2032.2 1804.31 2042.75 1760.86 2048.02C1700.89 2055.23 1661.67 2034.83 1644.96 1993.33C1635.54 1967.63 1634.61 1939.59 1642.31 1913.32C1650 1887.05 1665.91 1863.94 1687.7 1847.37C1695.44 1841.57 1704.06 1837.17 1721.29 1826.44L1648.66 1831.72C1661.85 1793.21 1739.41 1783.01 1843.7 1806.4C1817.67 1819.23 1796.22 1828.2 1776.17 1839.99C1715.31 1875.16 1689.99 1938.46 1715.31 1989.29C1732.9 2024.46 1759.28 2036.77 1796.57 2021.82C1861.82 1995.62 1892.77 1944.62 1899.81 1877.09C1901.74 1854.58 1902.09 1831.72 1903.85 1805.17Z" fill="white"/>
<path d="M993.519 1806.57V2035.19C961.51 2052.77 936.008 2050.31 926.159 2016.55C886.024 2028.85 845.212 2038.84 803.926 2046.44C727.596 2056.46 682.22 2029.91 670.612 1976.1C653.025 1894.5 689.783 1817.83 761.54 1801.82C805.172 1794.56 849.53 1792.67 893.622 1796.2C926.863 1796.55 959.751 1803.41 993.519 1806.57ZM809.906 2025.69C872.165 2023.58 944.098 1918.24 924.225 1862.5C920.144 1851.77 913.714 1842.1 905.406 1834.18C893.806 1822.29 878.587 1814.57 862.133 1812.25C845.679 1809.93 828.919 1813.12 814.478 1821.34C790.575 1830.79 769.943 1847 755.107 1867.99C740.27 1888.98 731.871 1913.84 730.937 1939.52C729.373 1956.12 733.381 1972.78 742.33 1986.85C751.278 2000.92 764.658 2011.62 780.358 2017.25C789.998 2020.75 799.872 2023.57 809.906 2025.69Z" fill="white"/>
<path d="M1224.09 1917.54C1231.83 1952.71 1246.78 1984.89 1242.73 2013.38C1237.11 2052.24 1198.77 2058.05 1164.47 2058.75C1117.16 2058.75 1069.85 2058.75 1028.34 2058.75V1792.86C1089.37 1789.34 1151.46 1782.3 1213.36 1784.59C1224.69 1787.13 1235.23 1792.4 1244.06 1799.94C1252.89 1807.48 1259.74 1817.06 1264.02 1827.85C1269.29 1849.31 1257.16 1877.27 1246.43 1899.78C1241.13 1907.99 1233.29 1914.23 1224.09 1917.54ZM1079.52 1909.8L1098.34 1929.32C1127.71 1915.43 1162.54 1907.16 1183.99 1885.71C1196.13 1873.4 1195.6 1832.95 1183.99 1816.6C1165 1787.4 1137.21 1809.39 1123.32 1827.5C1106.32 1853.59 1091.66 1881.13 1079.52 1909.8ZM1083.92 1946.73C1093.06 1984.01 1066.33 2036.42 1129.12 2042.04C1162.54 2045.03 1183.64 2019.89 1184.34 1985.42C1185.05 1950.95 1154.09 1938.29 1083.92 1946.73Z" fill="white"/>
<path d="M532.023 1975.39L639.482 2033.43C609.584 2054.18 550.313 2051.89 510.214 2027.8C475.039 2006.52 437.226 1988.23 390.619 1963.26L386.222 2042.57H325.545V1811.85C396.95 1806.57 474.863 1798.31 552.952 1795.85C562.211 1795.31 571.448 1797.22 579.732 1801.39C588.015 1805.56 595.053 1811.84 600.136 1819.6C605.219 1827.36 608.167 1836.32 608.683 1845.58C609.199 1854.84 607.265 1864.07 603.076 1872.34C588.478 1907.69 559.635 1937.06 532.023 1975.39ZM391.322 1957.81C444.085 1960.09 489.813 1950.77 523.581 1910.86C542.751 1888.35 556.469 1861.44 532.374 1835.76C508.279 1810.09 475.391 1810.62 447.778 1833.48C412.076 1863.73 386.398 1900.83 392.553 1957.63L391.322 1957.81Z" fill="white"/>
<path d="M1880.11 775.879C1837.72 791.882 1794.28 805.95 1752.77 824.591C1708.45 845.619 1668.94 875.551 1636.7 912.519C1608.19 943.43 1577.7 972.449 1545.42 999.392C1527.4 1014.69 1506.47 1026.16 1483.88 1033.11C1461.3 1040.07 1437.53 1042.36 1414.04 1039.84C1348.26 1034.04 1282.83 1025.24 1224.62 989.72C1198.36 973.879 1176.35 951.876 1160.51 925.616C1144.66 899.355 1135.46 869.629 1133.69 839.011C1131.76 821.426 1143.19 823.888 1153.04 823.008L1596.07 783.441C1606.7 782.991 1617.2 780.916 1627.2 777.286C1622.27 777.286 1617.53 775.175 1612.6 774.648L1158.67 734.201C1131.41 731.915 1131.05 731.739 1135.28 704.833C1138.85 673.358 1150.42 643.323 1168.9 617.588C1187.37 591.853 1212.12 571.276 1240.8 557.817C1305.67 527.159 1377.25 513.426 1448.86 517.897C1500.39 520.184 1540.49 549.024 1577.25 582.261C1595.08 598.064 1611.77 615.106 1627.2 633.259C1688.63 704.715 1772.21 753.559 1864.63 772.01C1869.2 773.065 1874.13 773.944 1878.7 775.351C1879.58 774.648 1880.28 775.879 1880.11 775.879Z" fill="white"/>
<path d="M926.511 1312.42C930.028 1274.2 933.428 1236.04 936.711 1197.93C947.792 1076.42 958.872 954.9 969.248 833.207C970.655 818.084 975.404 813.687 990.529 815.622C1023.59 818.405 1055.35 829.807 1082.63 848.692C1109.91 867.576 1131.76 893.282 1146 923.246C1171.81 980.142 1185.64 1041.74 1186.63 1104.2C1189.59 1146.78 1176.27 1188.9 1149.34 1222.03C1125.13 1253.32 1098.11 1282.34 1068.62 1308.72C1001.56 1367.52 954.524 1445.78 934.073 1532.59C932.263 1541.46 928.608 1549.84 923.345 1557.21C921.451 1553.51 919.805 1549.69 918.42 1545.78C898.299 1451.29 847.615 1366.07 774.203 1303.27C746.829 1279.05 721.91 1252.19 699.807 1223.08C685.02 1205.38 674.096 1184.79 667.735 1162.62C661.375 1140.45 659.719 1117.2 662.874 1094.35C668.523 1044.14 678.887 994.56 693.828 946.283C704.958 910.339 726.707 878.604 756.214 855.251C785.722 831.899 821.607 818.022 859.151 815.446C873.924 813.687 878.145 817.908 879.376 833.031C892.743 988.137 906.461 1143.12 920.531 1298C920.531 1303.27 922.466 1308.37 923.345 1313.47L926.511 1312.42Z" fill="white"/>
<path d="M926.336 0C927.743 5.80326 929.326 11.4307 930.733 17.5856C949.363 107.296 996.2 188.697 1064.4 249.892C1093.92 276.386 1121.26 305.201 1146.18 336.062C1174.57 369.571 1189.04 412.676 1186.63 456.523C1185.48 514.046 1173.92 570.885 1152.51 624.29C1139.69 657.582 1117.84 686.639 1089.41 708.198C1060.98 729.757 1027.11 742.963 991.586 746.335C975.582 748.445 970.481 744.224 969.25 728.749C956.235 578.568 942.517 428.562 928.975 278.381C928.595 269.412 926.568 260.589 922.995 252.354C921.934 256.939 921.112 261.576 920.533 266.247C906.814 419.945 892.92 573.819 879.905 727.518C878.498 745.104 873.926 749.324 856.514 747.038C822.521 743.858 790.017 731.559 762.435 711.44C734.853 691.321 713.216 664.127 699.809 632.731C672.8 571.633 660.165 505.155 662.875 438.41C664.275 399.374 679.267 362.054 705.261 332.896C728.976 304.293 754.72 277.435 782.295 252.53C852.85 189.737 900.857 105.534 918.95 12.8374C918.95 8.79274 921.06 4.92403 922.115 0.879336L926.336 0Z" fill="white"/>
<path d="M293.537 992.181C271.025 969.32 249.744 947.514 228.287 926.059L92.3352 790.122C85.476 783.264 79.1445 777.988 89.1694 767.964C156.002 701.667 222.307 635.017 288.788 568.719C290.371 566.961 292.833 566.257 299.516 560.981C306.904 571.401 314.89 581.384 323.435 590.877C381.122 648.91 438.81 706.766 497.2 764.096C507.049 773.944 508.456 779.747 497.2 790.474C432.302 854.134 368.284 918.673 303.737 982.861C301.803 985.499 298.813 987.609 293.537 992.181Z" fill="white"/>
<path d="M647.221 750.907C623.679 751.214 600.18 753.035 576.871 756.359C535.541 764.976 506.521 751.083 478.381 720.132C428.081 664.562 372.856 613.387 320.093 560.455C316.752 557.113 313.938 553.245 310.068 548.672C329.683 523.575 354.53 503.052 382.881 488.53C385.796 487.506 388.914 487.195 391.974 487.623C395.034 488.052 397.946 489.207 400.468 490.991C481.605 574.347 562.449 657.996 643 741.939C644.708 744.777 646.122 747.782 647.221 750.907Z" fill="white"/>
<path d="M648.803 805.247C645.084 810.325 641.091 815.197 636.844 819.843C559.811 899.682 482.601 979.169 405.92 1059.36C395.895 1069.91 387.101 1071.85 376.373 1063.58C353.509 1045.99 331.173 1027.53 304.264 1006.07C323.082 988.489 338.383 976.003 352.453 961.935C403.985 910.937 455.516 859.762 506.344 808.237C510.069 803.93 514.784 800.591 520.084 798.508C525.384 796.425 531.11 795.66 536.771 796.278C567.197 799.092 597.624 800.499 628.05 802.609C633.854 802.961 639.658 804.016 648.803 805.247Z" fill="white"/>
<path d="M768.75 742.465C743.952 744.224 721.792 745.982 699.455 746.862C695.263 746.356 691.392 744.358 688.551 741.234C600.379 656.12 512.441 570.888 424.738 485.539C423.341 483.402 422.218 481.098 421.396 478.681C425.82 477.27 430.348 476.211 434.939 475.515C454.782 473.837 474.755 476.439 493.506 483.144C512.257 489.848 529.35 500.5 543.63 514.38C616.794 585.953 688.903 658.582 761.363 731.035C764.091 734.667 766.56 738.486 768.75 742.465Z" fill="white"/>
<path d="M417.703 1077.65C424.738 1069.73 427.904 1065.51 431.773 1061.82C514.61 981.631 597.624 901.792 679.933 821.25C684.22 816.295 689.701 812.516 695.856 810.269C702.011 808.023 708.637 807.384 715.108 808.412C731.817 810.874 748.701 811.402 768.926 812.984C763.826 819.491 761.364 823.536 758.198 826.701C687.848 897.044 617.028 967.386 545.74 1037.73C532.082 1051.31 515.817 1061.99 497.923 1069.12C480.03 1076.25 460.879 1079.69 441.622 1079.23C435.467 1079.93 428.959 1078.7 417.703 1077.65Z" fill="white"/>
</g>
<defs>
<clipPath id="clip0_2694_326">
<rect width="1964" height="2459" fill="white"/>
</clipPath>
</defs>
</svg>
