<svg width="2546" height="2555" viewBox="0 0 2546 2555" fill="none" xmlns="http://www.w3.org/2000/svg">
<path d="M866.721 1903.24L713.849 2259.24H633.142L480.721 1903.24H568.622L676.081 2157.49L785.114 1903.24H866.721Z" fill="white"/>
<path d="M1172.72 2193.3V2259.24H897.721V1903.24H1166.17V1969.41H979.52V2046.23H1144.25V2110.36H979.52V2192.85L1172.72 2193.3Z" fill="white"/>
<path d="M1243.72 1903.24H1404.6C1520.41 1903.24 1599.72 1973.49 1599.72 2081.35C1599.72 2189.22 1520.41 2259.24 1404.6 2259.24H1243.72V1903.24ZM1401.44 2191.71C1471.74 2191.71 1517.71 2149.34 1517.71 2081.35C1517.71 2013.37 1472.64 1971 1401.44 1971H1325.74V2191.71H1401.44Z" fill="white"/>
<path d="M1896.87 2182.2H1728.42L1696.03 2259.24H1609.72L1771.69 1903.24H1854.75L2016.72 2259.24H1929.03L1896.87 2182.2ZM1870.49 2119.65L1812.87 1983.69L1755.26 2119.65H1870.49Z" fill="white"/>
<path d="M520.721 2530.83L528.588 2515.31C546.149 2530.37 568.726 2538.5 591.989 2538.14C628.086 2538.14 643.59 2523.3 643.59 2504.59C643.59 2452.55 525.349 2484.5 525.349 2413.29C525.349 2385.45 548.488 2361.25 596.154 2361.25C617.199 2360.97 637.867 2366.77 655.622 2377.91L648.912 2393.89C633.166 2383.9 614.874 2378.52 596.154 2378.37C560.983 2378.37 545.248 2393.66 545.248 2412.61C545.248 2464.64 663.721 2433.38 663.721 2502.3C663.721 2530.15 640.582 2554.11 591.989 2554.11C566.122 2555.39 540.705 2547.08 520.721 2530.83Z" fill="white"/>
<path d="M790.975 2377.98H724.721V2361.24H877.721V2377.98H811.239V2544.24H790.975V2377.98Z" fill="white"/>
<path d="M968.721 2470.87V2361.24H988.434V2469.95C988.434 2516.01 1009.27 2536.28 1045.33 2536.28C1081.4 2536.28 1102.46 2515.32 1102.46 2469.95V2361.24H1121.72V2470.87C1121.72 2525.68 1093.05 2554.24 1045.33 2554.24C997.618 2554.24 968.721 2525.68 968.721 2470.87Z" fill="white"/>
<path d="M1233.72 2361.36H1313.6C1326.89 2360.72 1340.19 2362.74 1352.67 2367.29C1365.15 2371.85 1376.56 2378.84 1386.2 2387.85C1395.85 2396.87 1403.52 2407.71 1408.77 2419.72C1414.02 2431.74 1416.72 2444.67 1416.72 2457.74C1416.72 2470.81 1414.02 2483.75 1408.77 2495.76C1403.52 2507.77 1395.85 2518.62 1386.2 2527.63C1376.56 2536.64 1365.15 2543.64 1352.67 2548.19C1340.19 2552.75 1326.89 2554.77 1313.6 2554.13H1233.72V2361.36ZM1312.41 2536.5C1323.32 2537.08 1334.22 2535.47 1344.47 2531.78C1354.72 2528.08 1364.1 2522.37 1372.02 2515C1379.95 2507.63 1386.26 2498.75 1390.58 2488.91C1394.89 2479.06 1397.12 2468.46 1397.12 2457.74C1397.12 2447.03 1394.89 2436.42 1390.58 2426.57C1386.26 2416.73 1379.95 2407.85 1372.02 2400.48C1364.1 2393.11 1354.72 2387.4 1344.47 2383.71C1334.22 2380.01 1323.32 2378.41 1312.41 2378.99H1254.52V2536.5H1312.41Z" fill="white"/>
<path d="M1517.72 2361.24H1538.72V2544.24H1517.72V2361.24Z" fill="white"/>
<path d="M1640.76 2455.72C1640.19 2435.54 1645.36 2415.65 1655.59 2398.58C1665.83 2381.51 1680.69 2368.04 1698.25 2359.88C1715.81 2351.73 1735.28 2349.27 1754.18 2352.82C1773.08 2356.37 1790.54 2365.76 1804.34 2379.8C1818.13 2393.83 1827.63 2411.88 1831.62 2431.62C1835.6 2451.36 1833.9 2471.9 1826.72 2490.62C1819.54 2509.34 1807.22 2525.38 1791.32 2536.7C1775.43 2548.01 1756.68 2554.09 1737.48 2554.14C1724.89 2554.74 1712.32 2552.64 1700.53 2547.95C1688.74 2543.26 1677.98 2536.08 1668.93 2526.87C1659.87 2517.65 1652.7 2506.58 1647.86 2494.35C1643.01 2482.11 1640.6 2468.97 1640.76 2455.72ZM1814.29 2455.72C1814.46 2439.6 1810.07 2423.79 1801.67 2410.3C1793.27 2396.82 1781.24 2386.26 1767.12 2379.99C1752.99 2373.71 1737.41 2372 1722.36 2375.06C1707.3 2378.13 1693.46 2385.83 1682.59 2397.2C1671.71 2408.57 1664.3 2423.08 1661.3 2438.88C1658.3 2454.69 1659.84 2471.08 1665.72 2485.97C1671.61 2500.85 1681.58 2513.56 1694.36 2522.47C1707.14 2531.38 1722.15 2536.08 1737.48 2535.99C1747.62 2536.35 1757.72 2534.51 1767.16 2530.61C1776.61 2526.71 1785.19 2520.81 1792.38 2513.3C1799.57 2505.78 1805.23 2496.79 1809 2486.89C1812.76 2476.98 1814.56 2466.38 1814.29 2455.72Z" fill="white"/>
<path d="M1914.72 2530.83L1922.59 2515.31C1940.24 2530.37 1962.89 2538.49 1986.22 2538.14C2022.09 2538.14 2037.82 2523.3 2037.82 2504.59C2037.82 2452.55 1919.35 2484.5 1919.35 2413.29C1919.35 2385.44 1942.49 2361.25 1990.15 2361.25C2011.27 2361.01 2032 2366.79 2049.85 2377.91L2042.91 2393.89C2027.17 2383.9 2008.87 2378.52 1990.15 2378.37C1954.98 2378.37 1939.48 2393.66 1939.48 2412.6C1939.48 2464.64 2057.72 2433.37 2057.72 2502.3C2057.72 2530.15 2034.58 2554.12 1986.22 2554.12C1960.28 2555.38 1934.8 2547.08 1914.72 2530.83Z" fill="white"/>
<path d="M1212.72 26.9638V187.523C1212.72 194.609 1215.41 201.405 1220.19 206.416C1224.97 211.427 1231.46 214.243 1238.22 214.243C1244.98 214.243 1251.47 211.427 1256.25 206.416C1261.03 201.405 1263.72 194.609 1263.72 187.523V26.9638C1263.72 19.877 1261.03 13.0796 1256.25 8.06854C1251.47 3.05748 1244.98 0.243164 1238.22 0.243164C1231.46 0.243164 1224.97 3.05748 1220.19 8.06854C1215.41 13.0796 1212.72 19.877 1212.72 26.9638Z" fill="white"/>
<path d="M1111.96 123.62C1105.2 124.876 1099.23 128.692 1095.33 134.243C1091.43 139.794 1089.92 146.631 1091.13 153.268L1100.28 203.355C1101.35 209.205 1104.48 214.5 1109.13 218.317C1113.77 222.134 1119.63 224.232 1125.69 224.243H1130.27C1133.62 223.673 1136.83 222.459 1139.7 220.671C1142.58 218.882 1145.07 216.555 1147.02 213.822C1148.98 211.088 1150.37 208.002 1151.1 204.741C1151.84 201.48 1151.92 198.109 1151.33 194.82L1142.17 144.733C1141.62 141.392 1140.39 138.193 1138.57 135.319C1136.75 132.445 1134.36 129.954 1131.55 127.99C1128.74 126.027 1125.56 124.631 1122.2 123.88C1118.84 123.13 1115.35 123.041 1111.96 123.62Z" fill="white"/>
<path d="M908.187 216.653C906.382 213.836 903.977 211.365 901.109 209.383C898.241 207.4 894.966 205.944 891.47 205.097C887.975 204.251 884.328 204.031 880.738 204.449C877.148 204.868 873.685 205.917 870.547 207.537C867.408 209.156 864.656 211.315 862.447 213.889C860.238 216.464 858.616 219.404 857.673 222.541C856.73 225.678 856.484 228.952 856.95 232.175C857.416 235.397 858.585 238.506 860.39 241.323L887.873 284.225C890.301 287.958 893.798 291.039 898 293.152C902.202 295.264 906.957 296.33 911.772 296.238C916.577 296.232 921.288 295.045 925.394 292.805C928.458 291.189 931.137 289.046 933.277 286.499C935.417 283.952 936.976 281.05 937.864 277.961C938.752 274.872 938.952 271.656 938.453 268.498C937.953 265.339 936.764 262.301 934.953 259.556L908.187 216.653Z" fill="white"/>
<path d="M716.654 432.488C720.781 436.252 726.024 438.294 731.429 438.242C734.871 438.241 738.271 437.43 741.39 435.862C744.51 434.295 747.274 432.01 749.488 429.169C753.38 424.034 755.22 417.442 754.604 410.843C753.988 404.244 750.967 398.178 746.205 393.982L710.087 361.673C705.322 358.125 699.499 356.627 693.763 357.475C688.026 358.322 682.791 361.453 679.087 366.252C675.383 371.051 673.478 377.171 673.746 383.408C674.014 389.646 676.436 395.548 680.536 399.957L716.654 432.488Z" fill="white"/>
<path d="M558.754 621.561L608.781 639.837C611.705 640.761 614.75 641.235 617.813 641.243C623.933 641.181 629.837 638.951 634.5 634.94C639.163 630.93 642.289 625.393 643.335 619.293C644.382 613.192 643.282 606.914 640.227 601.548C637.172 596.183 632.355 592.071 626.614 589.927L576.588 571.65C573.274 570.517 569.77 570.061 566.281 570.309C562.791 570.557 559.385 571.505 556.26 573.096C553.136 574.688 550.355 576.891 548.079 579.579C545.804 582.268 544.079 585.387 543.005 588.755C540.915 595.222 541.389 602.257 544.327 608.378C547.266 614.498 552.438 619.225 558.754 621.561Z" fill="white"/>
<path d="M525.997 804.243C519.293 804.243 512.864 806.93 508.124 811.712C503.384 816.495 500.721 822.98 500.721 829.743C500.721 836.506 503.384 842.993 508.124 847.775C512.864 852.557 519.293 855.243 525.997 855.243H577.444C584.148 855.243 590.577 852.557 595.317 847.775C600.058 842.993 602.721 836.506 602.721 829.743C602.721 822.98 600.058 816.495 595.317 811.712C590.577 806.93 584.148 804.243 577.444 804.243H525.997Z" fill="white"/>
<path d="M559.325 1047.82C553.472 1049.84 548.521 1053.92 545.363 1059.33C542.205 1064.74 541.047 1071.12 542.099 1077.33C543.151 1083.53 546.343 1089.14 551.1 1093.16C555.857 1097.18 561.866 1099.34 568.045 1099.24C571.103 1099.27 574.138 1098.71 576.996 1097.6L626.567 1079.61C633.049 1077.22 638.335 1072.31 641.262 1065.95C644.188 1059.6 644.516 1052.32 642.173 1045.71C639.829 1039.11 635.007 1033.73 628.766 1030.75C622.526 1027.77 615.378 1027.43 608.896 1029.82L559.325 1047.82Z" fill="white"/>
<path d="M713.469 1226.64L673.685 1258.73C670.966 1260.76 668.697 1263.31 667.013 1266.21C665.328 1269.12 664.263 1272.32 663.88 1275.64C663.497 1278.95 663.805 1282.31 664.786 1285.5C665.766 1288.7 667.398 1291.67 669.585 1294.24C671.773 1296.81 674.47 1298.93 677.516 1300.46C680.562 1302 683.895 1302.92 687.315 1303.17C690.735 1303.43 694.174 1303.01 697.424 1301.94C700.675 1300.88 703.671 1299.18 706.235 1296.97L745.341 1264.88C750.586 1260.71 753.914 1254.69 754.592 1248.14C755.271 1241.58 753.244 1235.04 748.957 1229.94C744.619 1225.04 738.506 1221.97 731.894 1221.36C725.282 1220.74 718.681 1222.63 713.469 1226.64Z" fill="white"/>
<path d="M924.868 1367.83C918.653 1364.29 911.28 1363.32 904.351 1365.14C897.422 1366.96 891.495 1371.42 887.857 1377.55L860.397 1424.95C856.808 1431.09 855.797 1438.39 857.584 1445.26C859.372 1452.13 863.813 1458.03 869.949 1461.68C874.184 1464.02 878.952 1465.24 883.798 1465.24C888.609 1465.34 893.36 1464.16 897.558 1461.83C901.757 1459.5 905.25 1456.09 907.676 1451.97L935.136 1404.57C936.916 1401.49 938.062 1398.1 938.509 1394.58C938.956 1391.06 938.694 1387.49 937.739 1384.07C936.784 1380.65 935.154 1377.46 932.945 1374.67C930.735 1371.88 927.99 1369.56 924.868 1367.83Z" fill="white"/>
<path d="M1100.28 1466.87L1091.12 1517.5C1089.92 1524.18 1091.44 1531.07 1095.34 1536.64C1099.25 1542.21 1105.22 1546.03 1111.95 1547.24H1116.53C1122.61 1547.24 1128.5 1545.13 1133.18 1541.27C1137.86 1537.42 1141.04 1532.06 1142.16 1526.13L1151.31 1475.5C1151.91 1472.18 1151.85 1468.77 1151.12 1465.47C1150.4 1462.17 1149.02 1459.04 1147.08 1456.27C1145.13 1453.5 1142.66 1451.13 1139.79 1449.31C1136.92 1447.49 1133.72 1446.24 1130.37 1445.65C1127.02 1445.05 1123.58 1445.11 1120.26 1445.84C1116.93 1446.56 1113.78 1447.92 1110.99 1449.85C1108.19 1451.78 1105.81 1454.24 1103.97 1457.08C1102.13 1459.92 1100.88 1463.1 1100.28 1466.42V1466.87Z" fill="white"/>
<path d="M1346.18 1445.62C1339.38 1446.84 1333.35 1450.67 1329.41 1456.28C1325.46 1461.89 1323.92 1468.83 1325.12 1475.56L1334.27 1526.15C1335.4 1532.07 1338.57 1537.43 1343.25 1541.28C1347.93 1545.13 1353.83 1547.24 1359.91 1547.24H1364.49C1371.22 1546.03 1377.19 1542.22 1381.1 1536.65C1385 1531.08 1386.52 1524.2 1385.32 1517.53L1376.16 1466.94C1375.64 1463.58 1374.44 1460.35 1372.64 1457.45C1370.84 1454.55 1368.47 1452.03 1365.68 1450.05C1362.89 1448.06 1359.73 1446.65 1356.38 1445.89C1353.03 1445.13 1349.56 1445.04 1346.18 1445.62Z" fill="white"/>
<path d="M1569.05 1451.97C1571.47 1456.09 1574.94 1459.5 1579.12 1461.83C1583.29 1464.16 1588.01 1465.34 1592.8 1465.24C1597.62 1465.24 1602.36 1464.02 1606.57 1461.68C1612.67 1458.03 1617.08 1452.13 1618.86 1445.26C1620.64 1438.38 1619.63 1431.09 1616.06 1424.95L1588.76 1377.55C1585.14 1371.42 1579.25 1366.96 1572.36 1365.14C1565.47 1363.32 1558.14 1364.29 1551.96 1367.83C1548.92 1369.62 1546.25 1371.98 1544.13 1374.8C1542 1377.61 1540.45 1380.82 1539.57 1384.23C1538.69 1387.64 1538.49 1391.2 1538.99 1394.69C1539.48 1398.18 1540.66 1401.53 1542.46 1404.57L1569.05 1451.97Z" fill="white"/>
<path d="M1794.08 1259.42L1753.98 1227.01C1748.69 1222.76 1741.88 1220.73 1735.05 1221.35C1728.22 1221.98 1721.92 1225.21 1717.53 1230.34C1713.21 1235.49 1711.17 1242.1 1711.85 1248.72C1712.53 1255.34 1715.89 1261.42 1721.18 1265.63L1761.27 1298.04C1766.56 1302 1773.22 1303.81 1779.85 1303.09C1786.48 1302.36 1792.56 1299.16 1796.81 1294.15C1801.06 1289.15 1803.15 1282.73 1802.65 1276.25C1802.14 1269.77 1799.07 1263.73 1794.08 1259.42Z" fill="white"/>
<path d="M1907.29 1047.82L1858.2 1029.82C1855.03 1028.64 1851.65 1028.11 1848.28 1028.27C1844.9 1028.43 1841.59 1029.27 1838.53 1030.75C1835.47 1032.22 1832.72 1034.3 1830.44 1036.87C1828.17 1039.44 1826.4 1042.45 1825.25 1045.71C1824.1 1048.98 1823.59 1052.45 1823.75 1055.92C1823.9 1059.4 1824.72 1062.81 1826.16 1065.95C1827.59 1069.1 1829.61 1071.92 1832.11 1074.27C1834.61 1076.61 1837.53 1078.43 1840.71 1079.61L1889.79 1097.6C1892.62 1098.71 1895.63 1099.27 1898.65 1099.24C1904.77 1099.34 1910.72 1097.18 1915.43 1093.16C1920.14 1089.14 1923.3 1083.53 1924.35 1077.33C1925.39 1071.12 1924.24 1064.74 1921.11 1059.33C1917.99 1053.92 1913.08 1049.84 1907.29 1047.82Z" fill="white"/>
<path d="M1947.97 855.243C1955.33 855.243 1962.39 852.557 1967.59 847.775C1972.8 842.993 1975.72 836.506 1975.72 829.743C1975.72 822.98 1972.8 816.495 1967.59 811.712C1962.39 806.93 1955.33 804.243 1947.97 804.243H1891.48C1884.11 804.243 1877.05 806.93 1871.85 811.712C1866.64 816.495 1863.72 822.98 1863.72 829.743C1863.72 836.506 1866.64 842.993 1871.85 847.775C1877.05 852.557 1884.11 855.243 1891.48 855.243H1947.97Z" fill="white"/>
<path d="M1907.62 621.588C1910.81 620.436 1913.75 618.647 1916.27 616.325C1918.78 614.003 1920.82 611.194 1922.27 608.06C1923.71 604.926 1924.54 601.53 1924.69 598.068C1924.85 594.606 1924.33 591.148 1923.17 587.892C1920.84 581.269 1916.05 575.856 1909.84 572.832C1903.63 569.807 1896.5 569.417 1890.01 571.746L1840.61 589.997C1834.94 592.139 1830.19 596.245 1827.17 601.603C1824.15 606.961 1823.07 613.231 1824.1 619.323C1825.13 625.415 1828.22 630.944 1832.83 634.949C1837.43 638.954 1843.26 641.181 1849.3 641.243C1852.33 641.235 1855.33 640.762 1858.22 639.839L1907.62 621.588Z" fill="white"/>
<path d="M1569.59 216.653L1542.44 259.556C1540.65 262.301 1539.48 265.339 1538.99 268.498C1538.49 271.657 1538.69 274.872 1539.57 277.961C1540.44 281.05 1541.98 283.952 1544.1 286.499C1546.21 289.046 1548.86 291.189 1551.88 292.805C1555.94 295.045 1560.59 296.232 1565.34 296.238C1570.1 296.33 1574.79 295.264 1578.94 293.152C1583.1 291.04 1586.55 287.958 1588.95 284.225L1616.1 241.323C1619.7 235.633 1620.66 228.877 1618.78 222.541C1616.9 216.205 1612.32 210.808 1606.06 207.537C1599.8 204.266 1592.37 203.388 1585.39 205.098C1578.42 206.807 1572.48 210.964 1568.88 216.653H1569.59Z" fill="white"/>
<path d="M1325.12 194.794C1324.52 198.086 1324.6 201.461 1325.34 204.725C1326.08 207.989 1327.46 211.076 1329.42 213.812C1331.38 216.548 1333.86 218.879 1336.74 220.669C1339.61 222.459 1342.82 223.673 1346.17 224.243H1350.75C1356.81 224.232 1362.67 222.134 1367.31 218.313C1371.96 214.492 1375.09 209.192 1376.16 203.336L1385.31 153.205C1385.91 149.913 1385.85 146.538 1385.12 143.271C1384.4 140.004 1383.02 136.909 1381.08 134.164C1379.13 131.419 1376.65 129.077 1373.79 127.272C1370.92 125.467 1367.72 124.233 1364.37 123.643C1361.02 123.053 1357.58 123.117 1354.25 123.831C1350.93 124.545 1347.78 125.896 1344.98 127.806C1342.19 129.716 1339.8 132.148 1337.97 134.963C1336.13 137.778 1334.87 140.921 1334.27 144.212L1325.12 194.794Z" fill="white"/>
<path d="M929.703 87.7628L986.534 237.834C988.463 242.938 991.955 247.342 996.539 250.454C1001.12 253.567 1006.58 255.238 1012.17 255.241C1015.47 255.286 1018.75 254.727 1021.84 253.594C1028.64 251.158 1034.16 246.197 1037.2 239.801C1040.24 233.406 1040.54 226.099 1038.04 219.486L980.972 69.4148C979.814 66.0384 977.971 62.9227 975.552 60.2523C973.133 57.5818 970.187 55.4115 966.889 53.8692C963.592 52.327 960.009 51.4436 956.354 51.2735C952.699 51.1034 949.046 51.6497 945.612 52.8786C942.178 54.1076 939.032 55.9953 936.362 58.4289C933.692 60.8626 931.552 63.7925 930.068 67.0459C928.584 70.2993 927.787 73.8098 927.725 77.3684C927.662 80.927 928.335 84.4618 929.703 87.7628Z" fill="white"/>
<path d="M792.061 350.087C796.747 354.464 802.973 357.011 809.52 357.228C816.067 357.445 822.462 355.318 827.454 351.262C832.446 347.205 835.675 341.514 836.507 335.3C837.34 329.087 835.717 322.8 831.956 317.671L729.567 203.003C725.096 197.984 718.726 194.863 711.854 194.326C704.981 193.789 698.166 195.878 692.901 200.136C687.637 204.451 684.369 210.58 683.807 217.188C683.246 223.796 685.437 230.349 689.903 235.42L792.061 350.087Z" fill="white"/>
<path d="M514.363 453.617L654.011 527.086C657.068 528.675 660.431 529.689 663.91 530.072C667.389 530.454 670.915 530.196 674.286 529.313C677.658 528.43 680.809 526.939 683.56 524.925C686.311 522.912 688.608 520.416 690.32 517.578C692.031 514.74 693.124 511.618 693.536 508.388C693.948 505.158 693.67 501.884 692.719 498.754C691.768 495.624 690.162 492.698 687.994 490.144C685.825 487.59 683.135 485.458 680.079 483.869L540.43 410.401C537.374 408.812 534.01 407.797 530.531 407.415C527.053 407.033 523.527 407.29 520.155 408.173C513.346 409.956 507.579 414.177 504.122 419.908C500.665 425.639 499.802 432.411 501.722 438.732C503.643 445.054 508.19 450.408 514.363 453.617Z" fill="white"/>
<path d="M430.717 715.257L582.206 743.219H586.445C592.942 743.509 599.294 741.142 604.174 736.615C609.054 732.088 612.084 725.749 612.631 718.924C613.178 712.099 611.2 705.316 607.111 699.991C603.021 694.666 597.135 691.211 590.684 690.349L439.195 662.621C435.928 662.035 432.583 662.131 429.352 662.906C426.121 663.681 423.066 665.119 420.363 667.137C417.659 669.156 415.36 671.715 413.595 674.67C411.831 677.624 410.636 680.916 410.079 684.356C409.523 687.797 409.615 691.32 410.351 694.723C411.087 698.126 412.452 701.343 414.368 704.19C416.284 707.038 418.714 709.46 421.52 711.318C424.325 713.177 427.45 714.435 430.717 715.021V715.257Z" fill="white"/>
<path d="M433.861 997.07C435.284 997.301 436.731 997.301 438.154 997.07L591.55 969.226C594.851 968.655 598.011 967.405 600.847 965.55C603.683 963.695 606.139 961.271 608.072 958.418C610.005 955.565 611.377 952.34 612.109 948.929C612.84 945.519 612.917 941.991 612.334 938.549C611.786 935.094 610.591 931.785 608.819 928.812C607.046 925.839 604.73 923.259 602.002 921.222C599.275 919.184 596.19 917.726 592.924 916.934C589.657 916.142 586.273 916.03 582.965 916.604L429.569 944.449C423.567 945.88 418.262 949.528 414.632 954.721C411.002 959.914 409.29 966.301 409.813 972.708C410.336 979.115 413.057 985.11 417.476 989.587C421.895 994.063 427.714 996.721 433.861 997.07Z" fill="white"/>
<path d="M514.019 1248.98C517.315 1255.04 522.756 1259.48 529.151 1261.31C535.546 1263.15 542.372 1262.24 548.13 1258.78L681.03 1179.68C686.791 1176.16 691.013 1170.41 692.794 1163.65C694.574 1156.89 693.77 1149.66 690.555 1143.52C687.217 1137.44 681.735 1133 675.304 1131.17C668.874 1129.33 662.015 1130.25 656.222 1133.72L523.322 1212.82C517.556 1216.33 513.342 1222.11 511.6 1228.88C509.857 1235.66 510.727 1242.88 514.019 1248.98Z" fill="white"/>
<path d="M692.73 1469.94C697.406 1474.01 703.366 1476.25 709.529 1476.24C713.305 1476.28 717.043 1475.46 720.467 1473.85C723.892 1472.23 726.916 1469.86 729.32 1466.9L831.495 1345.49C835.483 1340.11 837.295 1333.39 836.561 1326.71C835.826 1320.02 832.601 1313.87 827.545 1309.51C822.488 1305.16 815.983 1302.93 809.359 1303.28C802.736 1303.63 796.495 1306.54 791.914 1311.4L689.968 1432.81C685.497 1438.12 683.277 1445 683.795 1451.95C684.312 1458.91 687.525 1465.38 692.73 1469.94Z" fill="white"/>
<path d="M945.491 1606.69C952.336 1609 959.896 1608.73 966.523 1605.92C973.149 1603.12 978.305 1598.02 980.865 1591.73L1038.04 1449.27C1040.55 1442.97 1040.24 1436 1037.17 1429.91C1034.1 1423.82 1028.53 1419.1 1021.69 1416.79C1014.85 1414.48 1007.29 1414.77 1000.68 1417.6C994.066 1420.42 988.944 1425.55 986.437 1431.86L929.5 1574.31C928.221 1577.4 927.621 1580.7 927.734 1584C927.847 1587.31 928.671 1590.57 930.159 1593.58C931.646 1596.59 933.767 1599.3 936.399 1601.55C939.031 1603.8 942.121 1605.54 945.491 1606.69Z" fill="white"/>
<path d="M1212.72 1480.72V1633.77C1212.72 1640.53 1215.41 1647.01 1220.19 1651.78C1224.97 1656.56 1231.46 1659.24 1238.22 1659.24C1244.98 1659.24 1251.47 1656.56 1256.25 1651.78C1261.03 1647.01 1263.72 1640.53 1263.72 1633.77V1480.72C1263.72 1473.96 1261.03 1467.48 1256.25 1462.7C1251.47 1457.93 1244.98 1455.24 1238.22 1455.24C1231.46 1455.24 1224.97 1457.93 1220.19 1462.7C1215.41 1467.48 1212.72 1473.96 1212.72 1480.72Z" fill="white"/>
<path d="M1452.95 1416.81C1446.8 1419.16 1441.8 1423.86 1439.04 1429.89C1436.28 1435.93 1435.97 1442.81 1438.19 1449.07L1490.2 1591.05C1491.25 1594.25 1492.93 1597.19 1495.13 1599.72C1497.34 1602.25 1500.02 1604.3 1503.03 1605.76C1506.03 1607.22 1509.3 1608.05 1512.63 1608.21C1515.96 1608.38 1519.29 1607.86 1522.42 1606.7C1525.55 1605.53 1528.41 1603.75 1530.85 1601.45C1533.28 1599.14 1535.23 1596.37 1536.58 1593.29C1537.93 1590.22 1538.66 1586.89 1538.72 1583.53C1538.77 1580.16 1538.16 1576.82 1536.91 1573.69L1485.13 1432.16C1484.04 1429 1482.34 1426.09 1480.13 1423.59C1477.92 1421.1 1475.23 1419.08 1472.24 1417.65C1469.24 1416.22 1465.99 1415.41 1462.68 1415.27C1459.37 1415.12 1456.06 1415.64 1452.95 1416.81Z" fill="white"/>
<path d="M1675.36 1312.56C1670.93 1307.24 1664.61 1303.92 1657.77 1303.34C1650.94 1302.75 1644.15 1304.94 1638.91 1309.43C1633.66 1313.92 1630.39 1320.34 1629.81 1327.27C1629.23 1334.21 1631.4 1341.09 1635.82 1346.41L1737.3 1466.97C1739.68 1469.9 1742.69 1472.26 1746.09 1473.86C1749.49 1475.47 1753.2 1476.28 1756.95 1476.24C1761.87 1476.23 1766.69 1474.79 1770.83 1472.1C1774.97 1469.41 1778.27 1465.57 1780.34 1461.04C1782.4 1456.51 1783.15 1451.47 1782.49 1446.53C1781.83 1441.58 1779.79 1436.93 1776.61 1433.12L1675.36 1312.56Z" fill="white"/>
<path d="M1940.93 1262.24C1946.42 1262.13 1951.73 1260.14 1956.06 1256.57C1960.38 1252.99 1963.48 1248.04 1964.88 1242.45C1966.29 1236.86 1965.92 1230.94 1963.84 1225.59C1961.76 1220.24 1958.07 1215.74 1953.35 1212.79L1820.27 1133.72C1814.47 1130.25 1807.6 1129.33 1801.16 1131.17C1794.72 1133 1789.23 1137.44 1785.89 1143.51C1782.67 1149.66 1781.87 1156.88 1783.65 1163.64C1785.43 1170.39 1789.66 1176.15 1795.43 1179.67L1928.5 1258.74C1932.29 1261.01 1936.57 1262.21 1940.93 1262.24Z" fill="white"/>
<path d="M2040.01 997.071C2046.86 997.36 2053.56 994.998 2058.71 990.477C2063.85 985.957 2067.05 979.629 2067.63 972.815C2068.2 966.001 2066.12 959.229 2061.8 953.912C2057.49 948.595 2051.28 945.146 2044.48 944.285L1884.71 916.602C1881.27 916.031 1877.74 916.142 1874.34 916.93C1870.94 917.718 1867.72 919.166 1864.88 921.193C1862.04 923.219 1859.63 925.783 1857.78 928.739C1855.94 931.695 1854.69 934.985 1854.12 938.42C1853.52 941.842 1853.6 945.349 1854.36 948.74C1855.12 952.131 1856.55 955.338 1858.56 958.175C1860.58 961.011 1863.13 963.421 1866.09 965.266C1869.04 967.11 1872.33 968.351 1875.77 968.918L2035.54 997.071C2037.02 997.3 2038.53 997.3 2040.01 997.071Z" fill="white"/>
<path d="M2067.28 684.232C2066.02 677.306 2062.08 671.156 2056.32 667.11C2050.56 663.064 2043.44 661.448 2036.49 662.612L1876.93 690.343C1870.14 691.205 1863.94 694.66 1859.63 699.986C1855.32 705.312 1853.24 712.095 1853.81 718.921C1854.39 725.747 1857.58 732.086 1862.72 736.614C1867.86 741.142 1874.55 743.509 1881.4 743.219H1885.86L2045.42 715.489C2048.92 714.894 2052.27 713.609 2055.26 711.711C2058.26 709.812 2060.85 707.337 2062.89 704.43C2064.92 701.522 2066.35 698.239 2067.11 694.772C2067.86 691.305 2067.92 687.722 2067.28 684.232Z" fill="white"/>
<path d="M1453 253.594C1455.82 254.727 1458.81 255.286 1461.81 255.241C1466.9 255.238 1471.87 253.567 1476.05 250.454C1480.22 247.342 1483.4 242.938 1485.16 237.834L1536.92 87.7628C1538.16 84.4618 1538.77 80.927 1538.72 77.3684C1538.66 73.8098 1537.93 70.2993 1536.58 67.0459C1535.23 63.7925 1533.28 60.8626 1530.85 58.4289C1528.42 55.9953 1525.55 54.1076 1522.43 52.8786C1519.3 51.6497 1515.97 51.1034 1512.64 51.2735C1509.32 51.4436 1506.05 52.327 1503.05 53.8692C1500.05 55.4115 1497.36 57.5818 1495.16 60.2523C1492.96 62.9227 1491.28 66.0384 1490.22 69.4148L1438.25 219.486C1435.97 226.099 1436.25 233.406 1439.02 239.801C1441.78 246.197 1446.81 251.158 1453 253.594Z" fill="white"/>
<path d="M836.721 621.243L888.456 843.387C889.707 849.157 893.169 854.221 898.113 857.513C934.213 880.297 1088.73 1001.28 1159.09 1323.45C1159.67 1326.22 1161.2 1328.71 1163.42 1330.49C1165.64 1332.28 1168.42 1333.25 1171.28 1333.24H1190.13C1191.95 1333.27 1193.75 1332.9 1195.41 1332.15C1197.07 1331.41 1198.55 1330.32 1199.73 1328.95C1200.92 1327.58 1201.78 1325.97 1202.27 1324.23C1202.76 1322.49 1202.85 1320.67 1202.55 1318.89C1188.98 1237.32 1113.33 829.488 934.903 667.494C907.399 643.085 873.252 627.237 836.721 621.926V621.243Z" fill="white"/>
<path d="M2128.72 106.924V327.375C2128.67 354.301 2121.13 380.679 2106.96 403.545C2092.78 426.41 2072.53 444.855 2048.48 456.809C1848.81 555.371 1339.13 845.568 1250.68 1273.66C1250.13 1276.35 1248.57 1278.73 1246.32 1280.31C1244.08 1281.88 1241.31 1282.53 1238.6 1282.12L1217.18 1279.15C1214.66 1278.83 1212.33 1277.61 1210.62 1275.73C1208.91 1273.84 1207.92 1271.41 1207.83 1268.86L1202.82 1082.03C1202.11 1059.9 1205.35 1037.83 1212.39 1016.85C1262.77 865.921 1500.05 245.278 2045.29 87.0292C2067.64 80.6478 2091.33 80.6478 2113.68 87.0292C2118.08 88.2087 2121.94 90.8727 2124.62 94.5747C2127.25 98.1524 2128.69 102.477 2128.72 106.924Z" fill="white"/>
</svg>
