<svg width="583" height="1185" viewBox="0 0 583 1185" fill="none" xmlns="http://www.w3.org/2000/svg">
<g opacity="0.08">
<path d="M156.81 611.931C156.81 611.931 49.2714 657.275 36.0067 723.124C36.0067 723.124 15.9068 801.427 95.2918 834.453C95.2918 834.453 224.351 861.253 418.449 915.056C439.902 921.012 501.624 967.506 486.464 1037.82C482.336 1056.84 472.049 1073.83 459.055 1088.24C431.172 1119.17 370.195 1176.02 305.496 1167.9C305.496 1167.9 399.567 1212.56 479.087 1154.23C488.968 1146.98 497.631 1138.39 505.888 1129.39C530.387 1102.93 574.241 1047.36 582.227 982.53C582.227 982.53 592.988 839.935 463.996 811.443C371.955 791.14 264.822 770.295 210.884 760.008C178.399 753.782 148.553 736.389 132.311 709.995C116.069 683.736 111.196 648.341 156.81 611.796V611.931Z" fill="#DBA039"/>
<path d="M285.8 619.854C128.18 619.854 0 491.674 0 334.054C0 176.435 128.18 48.2549 285.8 48.2549C443.419 48.2549 571.599 176.435 571.599 334.054C571.599 491.674 443.419 619.854 285.8 619.854ZM285.8 115.661C165.335 115.661 67.3386 213.657 67.3386 334.122C67.3386 454.587 165.335 552.583 285.8 552.583C406.264 552.583 504.26 454.587 504.26 334.122C504.26 213.657 406.264 115.661 285.8 115.661Z" fill="#DBA039"/>
<path d="M496.95 82.0244C519.601 82.0244 537.962 63.6626 537.962 41.0122C537.962 18.3618 519.601 0 496.95 0C474.3 0 455.938 18.3618 455.938 41.0122C455.938 63.6626 474.3 82.0244 496.95 82.0244Z" fill="#DBA039"/>
</g>
</svg>
