<svg width="32" height="33" viewBox="0 0 32 33" fill="none" xmlns="http://www.w3.org/2000/svg">
<path d="M12.3645 17.1464C12.3645 17.1464 9.42471 18.3345 9.06209 20.06C9.06209 20.06 8.51262 22.1117 10.6828 22.9771C10.6828 22.9771 14.2108 23.6794 19.5168 25.0892C20.1033 25.2452 21.7906 26.4635 21.3761 28.306C21.2633 28.8043 20.9821 29.2494 20.6269 29.6271C19.8646 30.4376 18.1977 31.9272 16.4291 31.7144C16.4291 31.7144 19.0007 32.8848 21.1745 31.3561C21.4446 31.1664 21.6814 30.9412 21.9071 30.7053C22.5768 30.012 23.7757 28.556 23.994 26.8572C23.994 26.8572 24.2882 23.1208 20.7619 22.3742C18.2458 21.8422 15.3172 21.296 13.8427 21.0264C12.9546 20.8633 12.1388 20.4075 11.6947 19.7159C11.2507 19.0279 11.1175 18.1004 12.3645 17.1428V17.1464Z" fill="#DBA039"/>
<path d="M16.5 17.1424C12.3637 17.1424 9 13.7788 9 9.64251C9 5.50627 12.3637 2.14258 16.5 2.14258C20.6363 2.14258 24 5.50627 24 9.64251C24 13.7788 20.6363 17.1424 16.5 17.1424ZM16.5 3.91145C13.3387 3.91145 10.7671 6.48306 10.7671 9.64429C10.7671 12.8055 13.3387 15.3771 16.5 15.3771C19.6613 15.3771 22.2329 12.8055 22.2329 9.64429C22.2329 6.48306 19.6613 3.91145 16.5 3.91145Z" fill="#DBA039"/>
<path d="M22.9279 2.14284C23.5196 2.14284 23.9993 1.66315 23.9993 1.07142C23.9993 0.479691 23.5196 0 22.9279 0C22.3361 0 21.8564 0.479691 21.8564 1.07142C21.8564 1.66315 22.3361 2.14284 22.9279 2.14284Z" fill="#DBA039"/>
</svg>
